<?xml version="1.0" encoding="iso-8859-1"?>
<!-- Generator: Adobe Illustrator 21.0.2, SVG Export Plug-In . SVG Version: 6.00 Build 0)  -->
<svg version="1.1" xmlns="http://www.w3.org/2000/svg" xmlns:xlink="http://www.w3.org/1999/xlink" x="0px" y="0px"
	 viewBox="0 0 1200 700" style="enable-background:new 0 0 1200 700;" xml:space="preserve">
<g id="BACKGROUND">
	<rect x="4.443" style="fill:#EFF2F7;" width="1195.557" height="700"/>
</g>
<g id="OBJECTS">
	<g>
		<rect x="630.06" y="59.495" style="fill:#FFFFFF;" width="389.06" height="316.717"/>
	</g>
	<linearGradient id="SVGID_1_" gradientUnits="userSpaceOnUse" x1="250.2413" y1="557.5046" x2="96.627" y2="659.9142">
		<stop  offset="0" style="stop-color:#4A50C2;stop-opacity:0.02"/>
		<stop  offset="1" style="stop-color:#444BCC;stop-opacity:0.64"/>
	</linearGradient>
	<ellipse style="opacity:0.5;fill:url(#SVGID_1_);" cx="197.712" cy="592.524" rx="46.984" ry="6.563"/>
	<linearGradient id="SVGID_2_" gradientUnits="userSpaceOnUse" x1="1114.4404" y1="559.6022" x2="960.8262" y2="662.0118">
		<stop  offset="0" style="stop-color:#4A50C2;stop-opacity:0.02"/>
		<stop  offset="1" style="stop-color:#444BCC;stop-opacity:0.64"/>
	</linearGradient>
	<ellipse style="opacity:0.5;fill:url(#SVGID_2_);" cx="1061.911" cy="594.622" rx="46.984" ry="6.563"/>
	<g>
		<rect x="208.464" y="59.495" style="fill:#FFFFFF;" width="389.06" height="316.717"/>
	</g>
	<polygon style="fill:#EFF2F7;" points="1019.12,169.55 977.597,169.55 977.597,249.121 926.42,249.121 926.42,271.606 
		884.671,271.606 884.671,150.559 834.494,150.559 834.494,301.042 786.358,301.042 786.358,169.832 748.649,169.832 
		748.649,278.03 739.222,278.03 739.222,255.545 690.26,255.545 690.26,300.515 671.885,300.515 671.885,143.742 630.136,143.742 
		630.136,271.606 630.06,271.606 630.06,376.212 1019.12,376.212 	"/>
	<polygon style="fill:#EFF2F7;" points="597.524,169.55 564.391,169.55 564.391,249.121 513.214,249.121 513.214,271.606 
		471.465,271.606 471.465,150.559 421.288,150.559 421.288,301.042 373.152,301.042 373.152,169.832 335.443,169.832 
		335.443,278.03 326.016,278.03 326.016,255.545 277.054,255.545 277.054,300.515 258.679,300.515 258.679,143.742 208.464,143.742 
		208.464,333.707 208.464,376.212 597.524,376.212 	"/>
	<g>
		<path style="fill:#5BB59B;" d="M161.263,389.212c0,0-14.581,64.4,8.506,108.144s23.087,43.744,23.087,43.744
			S198.93,431.74,161.263,389.212z"/>
		<path style="fill:#FFFFFF;" d="M162.248,557.339c1.403,7.897,3.2,15.864,7.108,22.868c3.908,7.004,10.222,13.017,18.018,14.904
			c3.534,0.856,7.215,0.843,10.85,0.746c3.989-0.106,8.156-0.36,11.595-2.385c4.481-2.639,6.831-7.733,8.652-12.605
			c3.081-8.244,5.419-16.764,6.977-25.426c0.899-5,1.48-10.421-0.854-14.933c-3.162-6.112-10.572-8.572-17.364-9.68
			c-11.286-1.841-26.828-2.783-37.642,1.813C160.148,536.656,160.717,548.717,162.248,557.339z"/>
		<path style="fill:#524F63;" d="M187.846,541.309c8.956,0.524,18.662-0.849,24.3-3.886c1.128-0.608,2.131-1.388,1.598-2.131
			c-0.63-0.879-3.015-1.241-5.094-1.455c-10.767-1.111-22.69-1.613-33.228,0.174C159.983,536.629,179.652,540.83,187.846,541.309z"
			/>
		<path style="fill:#63A590;" d="M183.134,373.416c0,0-7.291,122.725,9.721,167.684C192.855,541.099,203.791,431.74,183.134,373.416
			z"/>
		<path style="fill:#5BB59B;" d="M190.706,540.202h3.947c5.808-24.296,23.18-102.992,13.998-139.721
			c0,0-29.162,103.283-21.872,126.37C188.561,532.906,189.817,537.176,190.706,540.202z"/>
	</g>
	<g>
		<path style="fill:#5BB59B;" d="M1027.526,393.407c0,0-14.581,64.4,8.506,108.144c23.087,43.744,23.087,43.744,23.087,43.744
			S1065.194,435.935,1027.526,393.407z"/>
		<path style="fill:#FFFFFF;" d="M1028.512,561.534c1.403,7.897,3.2,15.864,7.108,22.868c3.908,7.004,10.222,13.016,18.018,14.904
			c3.534,0.856,7.215,0.843,10.85,0.746c3.989-0.106,8.156-0.36,11.595-2.385c4.481-2.639,6.831-7.733,8.652-12.605
			c3.081-8.243,5.419-16.764,6.977-25.425c0.899-5,1.48-10.421-0.854-14.933c-3.162-6.112-10.572-8.572-17.364-9.68
			c-11.286-1.841-26.828-2.782-37.642,1.813C1026.411,540.851,1026.981,552.912,1028.512,561.534z"/>
		<path style="fill:#524F63;" d="M1054.11,545.504c8.956,0.524,18.661-0.849,24.299-3.886c1.128-0.608,2.131-1.387,1.599-2.13
			c-0.63-0.879-3.015-1.24-5.094-1.455c-10.767-1.111-22.69-1.613-33.228,0.174C1026.247,540.824,1045.916,545.024,1054.11,545.504z
			"/>
		<path style="fill:#63A590;" d="M1049.398,377.611c0,0-7.291,122.725,9.721,167.684
			C1059.119,545.294,1070.055,435.935,1049.398,377.611z"/>
		<path style="fill:#5BB59B;" d="M1056.97,544.397h3.947c5.808-24.295,23.18-102.992,13.998-139.721
			c0,0-29.162,103.284-21.872,126.37C1054.824,537.101,1056.08,541.371,1056.97,544.397z"/>
	</g>
	<linearGradient id="SVGID_3_" gradientUnits="userSpaceOnUse" x1="389.7135" y1="533.9821" x2="43.6273" y2="764.7065">
		<stop  offset="0" style="stop-color:#4A50C2;stop-opacity:0.02"/>
		<stop  offset="1" style="stop-color:#444BCC;stop-opacity:0.64"/>
	</linearGradient>
	<ellipse style="opacity:0.5;fill:url(#SVGID_3_);" cx="271.367" cy="612.88" rx="105.923" ry="13.634"/>
	<linearGradient id="SVGID_4_" gradientUnits="userSpaceOnUse" x1="1094.4708" y1="544.4696" x2="748.3846" y2="775.194">
		<stop  offset="0" style="stop-color:#4A50C2;stop-opacity:0.02"/>
		<stop  offset="1" style="stop-color:#444BCC;stop-opacity:0.64"/>
	</linearGradient>
	<ellipse style="opacity:0.5;fill:url(#SVGID_4_);" cx="976.124" cy="623.368" rx="105.923" ry="13.634"/>
	<linearGradient id="SVGID_5_" gradientUnits="userSpaceOnUse" x1="633.0226" y1="530.8351" x2="286.9365" y2="761.5594">
		<stop  offset="0" style="stop-color:#4A50C2;stop-opacity:0.02"/>
		<stop  offset="1" style="stop-color:#444BCC;stop-opacity:0.64"/>
	</linearGradient>
	<ellipse style="opacity:0.5;fill:url(#SVGID_5_);" cx="514.676" cy="609.733" rx="105.923" ry="13.634"/>
	<linearGradient id="SVGID_6_" gradientUnits="userSpaceOnUse" x1="911.9891" y1="526.6401" x2="565.9029" y2="757.3645">
		<stop  offset="0" style="stop-color:#4A50C2;stop-opacity:0.02"/>
		<stop  offset="1" style="stop-color:#444BCC;stop-opacity:0.64"/>
	</linearGradient>
	<ellipse style="opacity:0.5;fill:url(#SVGID_6_);" cx="793.642" cy="605.538" rx="105.923" ry="13.634"/>
	<linearGradient id="SVGID_7_" gradientUnits="userSpaceOnUse" x1="697.9167" y1="535.2816" x2="489.8122" y2="674.0181">
		<stop  offset="0" style="stop-color:#4A50C2;stop-opacity:0.02"/>
		<stop  offset="1" style="stop-color:#444BCC;stop-opacity:0.64"/>
	</linearGradient>
	<ellipse style="opacity:0.5;fill:url(#SVGID_7_);" cx="626.754" cy="582.724" rx="63.273" ry="13.634"/>
	<g>
		<path style="fill:#E0E4ED;" d="M290.269,247.609l39.964,6.481l-19.014-17.363l9.089-10.138l34.566,30.915
			c4.765,5.006,1.365,13.291-5.543,13.507l-48.423,1.513L290.269,247.609z"/>
		<polygon style="fill:#524F63;" points="306.959,350.037 306.163,610.923 292.437,611.903 282.906,390.57 270.16,391.55 
			257.141,609.942 243.414,608.962 245.147,345.315 		"/>
		<path style="fill:#E0E4ED;" d="M290.269,247.609l-46.157-1.942c-4.771-0.201-9.368,1.813-12.455,5.457l13.488,105.687l63.083,1.27
			l-5.761-96.873C302.469,261.208,291.948,247.679,290.269,247.609z"/>
		<path style="fill:#FFFFFF;" d="M311.066,227.364c-2.535,2.011-5.762,3.875-6.271,7.07c-0.441,2.765,1.596,5.52,4.211,6.52
			c2.615,1,5.603,0.52,8.159-0.623c4.118-1.842,7.515-5.575,8.273-10.022c0.556-3.26-0.899-9.526-4.684-10.669
			C316.46,218.345,314.176,224.897,311.066,227.364z"/>
		<polygon style="fill:#424051;" points="243.414,608.962 216.705,616.939 217.685,619.224 256.541,614.98 257.141,609.942 		"/>
		<path style="fill:#EEBCC5;" d="M157.084,248.427l-4.234-7.198l4.657-9.738c0,0,2.54-6.774,2.54-8.891
			c0-2.117-2.117-5.081-4.234-1.27c-2.117,3.81-4.234,6.774-4.234,6.774l-12.554-18.628c-0.357-0.53-0.954-0.847-1.592-0.847l0,0
			c-1.452,0-2.379,1.55-1.692,2.829l2.873,5.345c0.954,1.775-1.12,3.633-2.78,2.491l-0.577-0.397
			c-3.161-2.175-7.481-1.416-9.711,1.706l-0.216,0.303l0.211,6.333c0.135,4.062,2.007,7.867,5.149,10.445
			c7.411,6.083,20.586,16.733,20.89,15.822C152.004,252.237,157.084,248.427,157.084,248.427z"/>
		<path style="fill:#EEBCC5;" d="M300.303,206.85c-1.733-0.857-3.992-0.027-5.078,1.572c-1.087,1.599-1.127,3.746-0.482,5.569
			c1.203,3.401,4.906,5.815,8.474,5.281c3.568-0.534,6.458-4.165,5.932-7.733c-0.378-2.559-2.342-4.742-4.753-5.681
			c-2.411-0.938-5.183-0.716-7.563,0.298"/>
		<path style="fill:#EEBCC5;" d="M299.387,210.858l20.769,16.318c0,0,0.494,8.901-4.451,9.89
			c-1.484,0.989-20.769-19.285-20.769-19.285L299.387,210.858z"/>
		<path style="fill:#424051;" d="M292.437,611.903l0.675,4.383l33.632,5.551c0,0,1.633-2.612,0.653-2.939
			c-0.979-0.326-21.233-7.975-21.233-7.975L292.437,611.903z"/>
		<path style="fill:#EEBCC5;" d="M259.617,225.286l1.06,28.757c0,3.337,2.427,6.177,5.722,6.699l0,0
			c3.766,0.596,7.282-2.029,7.783-5.808l1.458-24.866L259.617,225.286z"/>
		<g>
			
				<rect x="284.675" y="199.761" transform="matrix(0.9831 0.1829 -0.1829 0.9831 44.3183 -49.7856)" style="fill:#524F63;" width="14.834" height="31.272"/>
			
				<rect x="284.689" y="199.611" transform="matrix(0.9831 0.1829 -0.1829 0.9831 44.276 -49.6392)" style="fill:#524F63;" width="13.189" height="31.272"/>
		</g>
		<path style="fill:#FFFFFF;" d="M257.951,249.824c0,0-2.104,1.804-2.255,2.405c-0.15,0.601,8.116,13.527,8.116,13.527l5.561-8.868
			l6.914,8.868l2.856-16.082l-4.659-1.052l-5.26,6.012l-9.319-7.515L257.951,249.824z"/>
		<polygon style="fill:#9092EC;" points="269.374,256.888 265.917,262.6 268.322,266.958 266.969,270.265 268.322,312.65 
			273.131,318.061 277.49,312.95 272.981,270.115 270.426,266.658 273.582,262.299 		"/>
		<path style="fill:#EEBCC5;" d="M247.628,194.526c-2.917,6.739-2.592,14.468-1.057,21.649c1.668,7.803,4.937,15.634,11.118,20.68
			c6.181,5.047,15.771,6.48,22.14,1.672c3.793-2.863,5.936-7.402,7.379-11.93c2.871-9.008,3.456-19.074-0.284-27.757
			C280.066,182.915,255.818,175.603,247.628,194.526z"/>
		<polygon style="fill:#E0E4ED;" points="237.311,281.497 187.76,297.493 151.749,258.261 160.723,250.848 193.918,278.063 
			231.658,251.124 238.091,262.378 		"/>
		<polygon style="fill:#FFFFFF;" points="146.076,255.624 149.887,261.551 166.822,251.814 160.048,245.04 		"/>
		<path style="fill:#EEBCC5;" d="M239.147,207.294c-2.138,0.94-3.19,3.525-2.953,5.848c0.237,2.324,1.509,4.412,2.94,6.258
			c0.793,1.024,1.664,2.018,2.767,2.698c1.069,0.66,2.312,0.995,3.557,1.16c1.53,0.203,3.333,0.041,4.228-1.216
			c0.472-0.663,0.592-1.507,0.69-2.315c0.467-3.832-0.521-5.35-2.738-8.125C245.604,209.056,242.933,205.63,239.147,207.294z"/>
		<path style="fill:#524F63;" d="M253.319,207.553c-0.32,4-2.214,8.093-5.724,10.038c-2.618-3.355-4-7.558-4.466-11.788
			c-0.575-5.229,0.276-10.785,3.332-15.066c3.488-4.886,9.506-7.561,15.493-7.994c5.988-0.434,11.962,1.151,17.516,3.428
			c2.408,0.988,5.496,1.993,7.331,0.147c0.958,1.805,1.471,3.845,1.48,5.889c0.007,1.569-0.299,3.183-1.169,4.489
			c-1.469,2.204-3.85,4.664-6.434,5.242c-19.545,4.367-28.629-6.242-28.718-5.949c-0.32,1.045,0.308,2.349,0.549,3.412
			C253.119,202.071,253.538,204.808,253.319,207.553z"/>
	</g>
	<g>
		<path style="fill:#EAD18C;" d="M540.844,426.821l-5.551-108.168c0,0-27.811-1.667-36.086-1.667c-4.508,0-12.211,2.14-18.29,4.088
			c-5.712,1.831-10.458,1.669-13.232,6.987l-45.61,87.418l28.025,2.669l9.341-10.676l-4.751-7.204l17.038-40.183l-0.276,68.07
			L540.844,426.821z"/>
		<linearGradient id="SVGID_8_" gradientUnits="userSpaceOnUse" x1="440.8885" y1="377.0948" x2="471.7259" y2="377.0948">
			<stop  offset="0" style="stop-color:#EAD18C;stop-opacity:0"/>
			<stop  offset="1" style="stop-color:#524F63;stop-opacity:0.7"/>
		</linearGradient>
		<path style="opacity:0.5;fill:url(#SVGID_8_);" d="M471.122,344.148l-30.233,54.621l9.414,11.027c0,0,3.827,0.771,7.464-0.41
			l1.673-1.912l-4.751-7.204l17.038-40.183L471.122,344.148z"/>
		<path style="fill:#91616A;" d="M495.229,404.951c-1.17-0.39-10.532-5.851-17.552-5.851c-7.021,0-15.602,7.411-15.602,7.411
			s-1.17,3.901,3.51,3.121c4.681-0.78,7.801-1.17,7.801-1.17s-8.191,4.291-2.73,5.071c5.461,0.78,28.474,0,28.474,0L495.229,404.951
			z"/>
		<path style="fill:#5B61D3;" d="M493.504,420.818h-90.112v-6.606h90.112c1.824,0,3.303,1.479,3.303,3.303l0,0
			C496.807,419.339,495.328,420.818,493.504,420.818z"/>
		<path style="fill:#8385E6;" d="M468.781,420.818h-86.896c-3.843,0-7.206-2.586-8.192-6.301l-15.336-57.782
			c-1.427-5.378,2.627-10.649,8.192-10.649h75.878c3.843,0,7.205,2.586,8.191,6.301L468.781,420.818z"/>
		<linearGradient id="SVGID_9_" gradientUnits="userSpaceOnUse" x1="358.0689" y1="382.4987" x2="429.3768" y2="382.4987">
			<stop  offset="0" style="stop-color:#484EC2;stop-opacity:0"/>
			<stop  offset="1" style="stop-color:#444BCC;stop-opacity:0.5018"/>
		</linearGradient>
		<path style="fill:url(#SVGID_9_);" d="M366.549,346.085c-5.564,0-9.619,5.271-8.192,10.649l15.336,57.782
			c0.473,1.782,1.503,3.294,2.86,4.395l52.823-72.826H366.549z"/>
		<path style="fill:#FFFFFF;" d="M417.607,388.568c0.952,3.769-1.42,6.824-5.298,6.824c-3.878,0-7.793-3.055-8.744-6.824
			c-0.952-3.769,1.42-6.824,5.298-6.824S416.656,384.799,417.607,388.568z"/>
		<path style="fill:#91616A;" d="M496.399,303.536c0.78,1.56,6.241,23.013,6.241,23.013s1.95,3.51,6.631,3.121
			c4.681-0.39,6.631-7.021,6.631-7.021l-8.191-26.914L496.399,303.536z"/>
		<path style="fill:#91616A;" d="M525.268,290.324c0,14.778-15.69,31.132-30.468,31.132c-14.778,0-23.048-16.354-23.048-31.132
			c0-14.778,11.98-26.758,26.758-26.758C513.288,263.566,525.268,275.546,525.268,290.324z"/>
		<path style="fill:#FFFFFF;" d="M500.689,319.918l-3.12,8.191l1.95,8.581l6.241-8.971l6.241,10.141l7.021-12.482l-4.681-8.191
			c0,0-2.34,5.461-7.411,6.631C501.86,324.989,500.689,319.918,500.689,319.918z"/>
		<polygon style="fill:#8385E6;" points="505.76,327.719 501.08,333.57 503.42,337.081 499.909,344.492 500.689,393.249 505.37,403 
			512.001,392.079 510.441,345.662 506.93,336.691 509.661,332.79 		"/>
		<linearGradient id="SVGID_10_" gradientUnits="userSpaceOnUse" x1="457.3834" y1="416.4374" x2="609.3761" y2="356.3179">
			<stop  offset="0" style="stop-color:#EAD18C;stop-opacity:0"/>
			<stop  offset="1" style="stop-color:#524F63;stop-opacity:0.7"/>
		</linearGradient>
		<polygon style="fill:url(#SVGID_10_);" points="538.585,341.223 540.278,426.745 500.057,426.322 		"/>
		<path style="fill:#EAD18C;" d="M535.292,318.653l3.71,80.604l-37.251,7.589l5.081,9.738l53.32,3.1l-7.282-79.724
			c-0.751-8.216-5.718-15.452-13.116-19.104L535.292,318.653z"/>
		<polygon style="fill:#FFFFFF;" points="495.229,404.951 502.64,405.731 509.271,416.652 496.807,417.515 		"/>
		<path style="fill:#524F63;" d="M458.088,441.436l-65.93,16.772l33.543,131.859l11.567-5.783l-9.832-113.353l58.99-18.507
			l-34.121,19.663l0.578,107.57h10.41c0,0,28.917-105.256,31.808-105.256c2.892,0,51.471-32.387,51.471-32.387L458.088,441.436z"/>
		<polygon style="fill:#524F63;" points="390.224,600.449 436.073,597.19 437.333,582.746 388.326,593.9 		"/>
		<polygon style="fill:#524F63;" points="427.437,608.574 436.69,609.73 462.715,599.898 463.293,579.657 452.883,579.657 
			448.257,592.38 434.229,600.855 		"/>
		<path style="fill:#4A4549;" d="M470.824,280.811c-1.048,1.922-2.119,4.164-1.339,6.209c0.953,2.498,4.062,3.263,6.718,3.574
			c4.586,0.538,9.206,0.776,13.823,0.714c3.062-0.041,6.141-0.217,9.123-0.915c4.877-1.142,9.315-3.634,13.678-6.095
			c3.109-1.755,6.551-3.966,7.116-7.491c0.56-3.497-1.975-6.655-4.342-9.289c-1.345-1.496-2.702-3.003-4.322-4.194
			c-3.959-2.911-9.212-3.667-14.063-2.886C485.167,262.379,476.448,270.497,470.824,280.811z"/>
		<path style="fill:#4A4549;" d="M514.604,289.471c0.416-1.411,2.183-2.141,3.58-1.679c1.396,0.462,2.343,1.863,2.562,3.318
			c0.219,1.454-0.193,2.941-0.834,4.265c-0.313,0.645-0.683,1.273-0.851,1.969c-0.141,0.585-0.132,1.194-0.122,1.795
			c0.042,2.615,0.085,5.23,0.127,7.844c2.159-0.822,3.419-3.018,4.505-5.056c2.386-4.475,4.84-9.242,4.563-14.306
			c-0.23-4.193-2.315-8.034-4.429-11.662c-0.454-0.78-0.934-1.582-1.673-2.101c-1.048-0.736-2.465-0.77-3.69-0.397
			c-1.225,0.373-2.305,1.105-3.363,1.827c-1.039,0.708-2.077,1.416-3.116,2.124c-1.01,0.689-2.063,1.424-2.61,2.518
			c-0.989,1.978,0.386,2.814,1.542,4.012C511.383,284.551,510.346,297.551,514.604,289.471z"/>
		<g>
			<path style="fill:#EFF2F7;" d="M475.266,311.86c-3.537,0-7.486-3.007-8.8-6.704c-0.699-1.967-0.556-3.868,0.394-5.214
				c0.839-1.189,2.218-1.843,3.886-1.843c3.537,0,7.486,3.008,8.8,6.705c0.699,1.967,0.556,3.867-0.393,5.213
				C478.314,311.205,476.933,311.86,475.266,311.86z M470.746,299.147c-1.316,0-2.392,0.497-3.03,1.399
				c-0.751,1.064-0.847,2.617-0.263,4.257c1.179,3.312,4.683,6.008,7.812,6.008c1.317,0,2.392-0.498,3.029-1.399
				c0.751-1.063,0.847-2.616,0.263-4.256C477.38,301.843,473.876,299.147,470.746,299.147z"/>
		</g>
		<g>
			<path style="fill:#EFF2F7;" d="M493.012,311.86c-3.538,0-7.486-3.007-8.8-6.704c-0.7-1.967-0.556-3.868,0.394-5.214
				c0.839-1.189,2.218-1.843,3.886-1.843c3.537,0,7.486,3.008,8.8,6.705c0.699,1.967,0.556,3.867-0.393,5.213
				C496.059,311.205,494.679,311.86,493.012,311.86z M488.492,299.147c-1.316,0-2.392,0.497-3.029,1.399
				c-0.751,1.064-0.847,2.617-0.263,4.257c1.179,3.312,4.682,6.008,7.812,6.008c1.317,0,2.392-0.498,3.029-1.399
				c0.751-1.063,0.847-2.616,0.263-4.256C495.125,301.843,491.622,299.147,488.492,299.147z"/>
		</g>
	</g>
	<g>
		<path style="fill:#524F63;" d="M590.784,248.526c0.277,4.202,2.581,8.381,1.421,12.43c-0.95,3.317-4.045,5.688-4.999,9.004
			c-1.083,3.764,0.827,7.672,2.679,11.123c1.55,2.887,3.718,6.168,6.995,6.183c1.433,0.007,2.774-0.651,4.055-1.293
			c3.118-1.564,6.237-3.128,9.355-4.691c1.347-0.675,2.715-1.366,3.803-2.408c1.62-1.552,2.463-3.726,3.229-5.836
			c2.398-6.606,4.546-13.527,3.992-20.534c-0.554-7.007-4.384-14.168-10.915-16.768c-3.655-1.455-14.348-2.753-17.487,0.375
			c-1.399,1.394-0.7,2.876-0.877,4.651C591.771,243.43,590.603,245.771,590.784,248.526z"/>
		<path style="fill:#EEBCC5;" d="M598.359,269.515l-3.186,0.871c-13.243,8.62-20.991,20.599-22.661,36.311l-6.748,109.32
			l10.15-4.541L598.359,269.515z"/>
		<path style="fill:#8385E6;" d="M665.325,268.685l-54.075-2.203c-4.57-0.185-12.615,1.441-16.996,2.756l-6.89,3.215l12.133,57.927
			h0c-11.047,18.727-16.564,40.201-15.911,61.935l6.42,78.989h60.613l7.719-83.314c0.654-17.058-2.495-34.047-9.219-49.737
			l-3.298-7.697L665.325,268.685z"/>
		<linearGradient id="SVGID_11_" gradientUnits="userSpaceOnUse" x1="608.1103" y1="320.1898" x2="636.5895" y2="244.8575">
			<stop  offset="0" style="stop-color:#484EC2;stop-opacity:0"/>
			<stop  offset="1" style="stop-color:#444BCC;stop-opacity:0.5018"/>
		</linearGradient>
		<path style="fill:url(#SVGID_11_);" d="M600.368,291.927c1.464,2.76,3.517,5.275,6.206,6.867c3.605,2.135,8.08,2.434,12.18,1.57
			c4.1-0.864,7.892-2.8,11.506-4.919c6.513-3.819,12.708-8.371,17.446-14.249c3.33-4.131,5.915-10.017,3.211-14.583
			c-1.734-2.927-5.156-4.375-8.441-5.257C624.921,256.64,586.958,266.644,600.368,291.927z"/>
		<path style="fill:#EEBCC5;" d="M642.051,240.47c0,14.372-15.325,33.887-29.697,33.887c-14.372,0-22.348-19.514-22.348-33.887
			c0-14.372,11.651-26.023,26.023-26.023C630.4,214.447,642.051,226.098,642.051,240.47z"/>
		<path style="fill:#EEBCC5;" d="M665.325,268.685l37.508,48.89c3.931,5.123,2.556,12.523-2.952,15.894l-43.848,26.826l-5.414-8.456
			l30.08-24.116c2.187-1.753,2.648-4.897,1.057-7.204l-22.812-32.327L665.325,268.685z"/>
		<path style="fill:#EEBCC5;" d="M545.018,420.839h23.549c3.769,0,6.896-2.916,7.159-6.676l0.188-2.686L545.018,420.839z"/>
		<path style="fill:#EEBCC5;" d="M609.018,257.968c-0.348-0.869,6.218,17.173,6.218,17.173s1.48,7.402,7.698,5.626
			c6.218-1.777,2.369-28.128,1.481-28.424C623.526,252.046,609.61,259.448,609.018,257.968z"/>
		<path style="fill:#524F63;" d="M624.454,237.05c-12.045,7.333-24.72,14.871-38.795,15.73c3.165-3.93,2.531-9.548,3.112-14.561
			c0.951-8.205,5.799-15.872,12.805-20.249c7.006-4.376,16.023-5.371,23.814-2.626c2.909,1.025,5.732,2.618,7.528,5.125
			C638.096,227.699,630.048,233.645,624.454,237.05z"/>
		<path style="fill:#524F63;" d="M623.362,265.937c0.804,3.867,3.259,7.295,3.701,11.219c0.286,2.547-0.302,5.102-0.886,7.598
			c-0.706,3.015-1.412,6.031-2.117,9.046c4.19-0.832,8.008-3.024,11.349-5.686c12.055-9.601,18.282-26.007,15.634-41.189
			c-0.756-4.332-2.168-8.522-3.714-12.639c-1.192-3.174-2.498-6.371-4.635-9.004c-2.137-2.633-5.247-4.664-8.637-4.752
			c-4.051-0.104-7.736,2.566-10.111,5.85c-1.62,2.239-2.806,4.904-2.751,7.667c0.055,2.763,1.019,12.165,3.551,13.271
			c3.205-1.942,8.002-0.223,9.243,3.314c1.958,5.58-3.037,6.648-6.369,8.56C623.477,261.571,622.464,261.616,623.362,265.937z"/>
		<path style="fill:#524F63;" d="M651.007,248.971c2.552,1.919,5.465,3.387,7.712,5.655c2.247,2.268,3.742,5.711,2.553,8.674
			c-0.749,1.865-2.395,3.185-3.814,4.609c-1.419,1.424-2.734,3.259-2.506,5.256c0.151,1.322,0.954,2.463,1.688,3.573
			c1.916,2.899,3.569,6.295,3.001,9.724c-0.458,2.763-2.379,5.172-4.833,6.522c-2.454,1.35-5.381,1.699-8.152,1.296
			c-1.609-0.234-3.2-0.713-4.825-0.643c-4.284,0.184-7.656,4.06-11.915,4.56c-2.415,0.284-4.941-0.632-6.614-2.396
			c-1.673-1.764-2.453-4.336-2.041-6.732c0.673-3.923,4.106-6.681,7.265-9.101c3.159-2.42,6.535-5.303,7.002-9.255
			c0.349-2.95-1.042-5.903-0.678-8.851c0.521-4.226,4.447-7.322,5.393-11.473c0.538-2.36-0.323-8.325,3.378-8.249
			C646.446,242.196,648.911,247.394,651.007,248.971z"/>
		<path style="fill:#524F63;" d="M619.93,244.256c-0.763,1.429-1.736,2.733-2.706,4.03c-1.367,1.829-2.734,3.658-4.101,5.486
			c0.988-3.513,1.319-7.21,0.969-10.843c-0.053-0.555-0.122-1.122,0.012-1.663c0.253-1.025,1.163-1.737,2.043-2.321
			c1.256-0.833,4.482-3.52,5.759-1.791C622.908,238.512,620.603,242.994,619.93,244.256z"/>
	</g>
	<g>
		<polygon style="fill:#524F63;" points="651.654,343.887 649.178,346.086 657.784,356.148 		"/>
		<path style="fill:#D98E9D;" d="M834.492,426.821l-5.552-108.168c0,0-27.811-5.862-36.086-5.862c-4.508,0-12.211,2.14-18.29,4.088
			c-5.713,1.831-10.458,5.864-13.233,11.182l-45.61,87.418l28.025,2.669l9.342-10.676l-4.751-7.204l17.037-40.183l-0.276,68.07
			L834.492,426.821z"/>
		<path style="fill:#EEBCC5;" d="M830.771,287.344c0,14.778-11.98,26.758-26.758,26.758c-8.179,0-13.853-8.49-18.761-14.273
			c-3.96-4.666-7.079-5.986-7.079-12.585c0-14.778,11.062-26.658,25.84-26.658C818.791,260.586,830.771,272.566,830.771,287.344z"/>
		<polygon style="fill:#524F63;" points="762.429,420.818 669.013,420.818 649.178,346.086 742.593,346.086 		"/>
		<polygon style="fill:#FFFFFF;" points="762.429,420.818 671.929,420.818 651.654,343.887 743.212,346.086 		"/>
		<rect x="669.771" y="415.402" style="fill:#524F63;" width="64.048" height="5.416"/>
		<linearGradient id="SVGID_12_" gradientUnits="userSpaceOnUse" x1="765.0975" y1="380.7988" x2="832.6596" y2="380.7988">
			<stop  offset="0" style="stop-color:#B6567A;stop-opacity:0"/>
			<stop  offset="1" style="stop-color:#C45771"/>
		</linearGradient>
		<path style="fill:url(#SVGID_12_);" d="M796.866,408.23l35.794-17.102l-2.961-57.687l-6.191,0.375l-46.394,48.69
			c0,0-6.921,18.063-11.962,32.29l-0.054,13.358l48.109-0.925L796.866,408.23z"/>
		<polygon style="fill:#8385E6;" points="737.551,403.541 687.7,403.541 676.532,361.164 726.966,362.375 		"/>
		<path style="fill:#9092EC;" d="M751.737,441.436l-65.93,16.772l33.543,131.859l11.567-5.783l-9.832-113.353l58.99-18.507
			l-34.121,19.663l0.578,107.57h10.41c0,0,28.917-105.256,31.808-105.256c2.891,0,51.471-32.387,51.471-32.387L751.737,441.436z"/>
		<polygon style="fill:#524F63;" points="683.873,600.449 729.722,597.19 730.981,582.746 681.975,593.9 		"/>
		<path style="fill:#EFF2F7;" d="M787.171,324.088c0.413,5.186,1.386,10.328,2.894,15.307c0.332,1.097,0.736,2.252,1.639,2.957
			c1.855,1.448,4.545,0.232,6.475-1.114c3.365-2.347,6.494-5.059,9.109-8.22c1.68-2.031,3.175-4.315,3.691-6.9
			c0.516-2.585-0.111-5.521-2.107-7.243c-3.085-2.662-9.724-2.566-13.607-2.655C789.802,316.093,786.713,318.349,787.171,324.088z"
			/>
		<polygon style="fill:#524F63;" points="721.086,608.574 730.339,609.73 756.364,599.898 756.942,579.657 746.532,579.657 
			741.906,592.38 727.878,600.855 		"/>
		<path style="fill:#EEBCC5;" d="M793.942,300.835l-1.979,22.555c0,0,1.583,9.497,7.123,7.914c5.54-1.583,6.331-5.936,6.331-5.936
			l2.374-26.908L793.942,300.835z"/>
		<path style="fill:#4A4549;" d="M813.974,278.673c4.213-0.169,8.547-0.46,12.346-2.288c3.799-1.829,6.977-5.562,6.908-9.778
			c-0.069-4.215-4.419-8.187-8.429-6.885c-0.915,0.297-1.75,0.826-2.686,1.044c-1.457,0.34-2.969-0.103-4.404-0.526
			c-10.82-3.19-22.924-5.313-33.027-0.295c-1.877,0.933-3.712,2.173-4.699,4.023c-0.769,1.441-0.95,3.113-1.099,4.739
			c-0.4,4.37-0.663,8.753-0.79,13.139c2.924-1.586,5.83-3.47,8.872-4.812c2.971-1.311,4.878-0.015,8.039,0.642
			C801.23,278.97,807.651,278.926,813.974,278.673z"/>
		<path style="opacity:0.7;fill:#4A4549;" d="M788.846,271.519c-2.755-0.505-5.664,0.387-7.814,2.171
			c-2.012,3.378-3.308,7.225-3.66,11.352c0.256,1.454,0.577,2.916,0.539,4.3c-0.024,0.879,0.34,2.225,0.907,3.731
			c1.537,2.317,3.998,3.886,6.435,6.757c0.099,0.117,0.201,0.241,0.3,0.36c2.592-4.475,6.811-14.686,7.6-15.712
			c1.207-1.57,5.097-6.29,4.396-8.382C796.875,274.086,790.765,271.871,788.846,271.519z"/>
		<path style="fill:#EEBCC5;" d="M788.88,282.418c-0.207-0.306-0.432-0.616-0.752-0.8c-0.392-0.227-0.869-0.232-1.322-0.232
			c-1.76,0-3.786,0.126-4.845,1.532c-0.449,0.596-0.647,1.34-0.79,2.072c-0.34,1.746-0.423,3.542-0.244,5.312
			c0.275,2.722,1.585,5.776,4.251,6.392c1.586,0.366,3.286-0.28,4.491-1.375C793.855,291.511,791.619,286.46,788.88,282.418z"/>
		<path style="fill:#4A4549;" d="M822.704,296.403c1.371-0.319,2.804-0.604,4.175-0.282c1.37,0.322,2.659,1.418,2.75,2.823
			c0.044,0.686-0.192,1.354-0.305,2.031c-0.351,2.105,0.489,4.202,1.223,6.206c1.602,4.379,2.66,9.607,0.004,13.439
			c-2.499,3.604-7.415,4.606-11.797,4.405c-12.999-0.595-25.161-9.891-29.147-22.278c-1.39-4.318-1.837-9.066-0.429-13.379
			c0.428-1.311,1.543-2.816,2.845-2.362c0.753,5.021,4.034,9.597,8.547,11.922C808.553,303.042,815.016,298.195,822.704,296.403z"/>
		<g>
			<path style="fill:#524F63;" d="M654.593,346.209l86.864,2.086l18.07,70.273h-85.864L654.593,346.209 M651.654,343.887
				l20.275,76.93h90.499l-19.216-74.732L651.654,343.887L651.654,343.887z"/>
		</g>
		<path style="fill:#FFFFFF;" d="M798.235,420.818H669.771v-5.416h128.464c1.496,0,2.708,1.212,2.708,2.708l0,0
			C800.943,419.605,799.731,420.818,798.235,420.818z"/>
		<path style="fill:#5B61D3;" d="M733.209,420.818h-63.438v-5.416h63.438c1.496,0,2.708,1.212,2.708,2.708l0,0
			C735.917,419.605,734.704,420.818,733.209,420.818z"/>
		<path style="fill:#D98E9D;" d="M828.94,318.653l-23.363,61.767l-59.588,7.932l2.347,11.917l76.254-2.488l20.595-54.308
			c1.015-2.676,1.218-5.63,0.372-8.364c-1.902-6.15-6.257-11.341-12.156-14.254L828.94,318.653z"/>
		<path style="fill:#EEBCC5;" d="M745.989,388.352l-32.137-17.167c0,0-1.727,2.557,0.813,4.675
			c2.541,2.117,10.676,8.134,10.676,8.134v4.677c2.682,8.774,10.97,12.919,20.09,11.917l2.905-0.319L745.989,388.352z"/>
	</g>
	<g>
		<path style="fill:#75454F;" d="M876.915,420.686h-38.378c0,0-1.112-2.781,5.006-3.893c6.118-1.112,23.36-1.669,23.36-1.669
			l4.45-5.006l6.118,1.669L876.915,420.686z"/>
		<path style="fill:#8284E5;" d="M908.424,303.382l-40.898,110.363l10.095,2.524l62.832-107.548c0,0-1.804-6.966-12.48-13.639
			C917.297,288.408,908.424,303.382,908.424,303.382z"/>
		<path style="fill:#91616A;" d="M909.549,252.799c-7.979-12.448-24.538-16.072-36.986-8.094
			c-6.976,4.471-11.448,12.458-12.255,20.638c-0.409,4.146-0.428,5.597,1.252,9.427c1.706,3.889,6.401,9.204,3.71,16.925
			c-0.629,1.806-0.107,4.574,2.003,5.416c2.098,0.837,3.944-1.443,5.978-1.536c3.86-0.176,11.443,5.737,14.204,8.064
			c1.183,0.997,2.458,2.036,3.992,2.232c1.314,0.168,2.626-0.314,3.801-0.924c5.875-3.049,9.454-9.142,12.389-15.074
			c2.747-5.551,5.222-11.427,5.636-17.573C914.529,265.793,913.406,258.818,909.549,252.799z"/>
		<path style="fill:#91616A;" d="M908.536,304.541c1.13,1.161,2.545,2.387,4.149,2.149c0.738-0.109,1.391-0.523,2.004-0.949
			c1.635-1.139,3.159-2.437,4.542-3.872c0.839-0.871,1.67-1.899,1.694-3.108c0.013-0.682-0.237-1.339-0.513-1.962
			c-2.707-6.098-8.258-10.743-10.217-17.12c-0.888-2.89-0.981-5.989-1.974-8.845c-0.992-2.856-3.296-5.615-6.317-5.734
			c-1.785-0.071-3.48,0.796-4.912,1.864c-4.664,3.479-7.35,9.445-6.864,15.243c0.441,5.26,3.46,10.079,7.779,13.05
			C902.033,298.096,904.984,300.893,908.536,304.541z"/>
		<path style="fill:#4A4549;" d="M872.563,244.705c-4.963,3.181-8.626,8.154-10.636,13.698c5.131,2.535,18.223-3.099,21.777-5.249
			c-0.391,8.993,4.5,18.023,12.245,22.61c4.702,2.784,10.248,3.998,14.952,6.703c1.232-3.297,2.139-6.687,2.374-10.168
			c1.253-6.506,0.131-13.481-3.726-19.5C901.571,240.351,885.011,236.727,872.563,244.705z"/>
		<path style="fill:#91616A;" d="M886.914,271.855c-1.506-2.776-0.008-6.6,2.822-8.004c2.829-1.403,6.469-0.539,8.723,1.673
			c2.254,2.212,3.205,5.533,2.983,8.683c-0.281,3.98-3.178,8.276-7.162,8.071c-2.193-0.112-4.133-1.591-5.36-3.412
			c-1.227-1.821-1.86-3.967-2.475-6.076"/>
		<polygon style="fill:#FFFFFF;" points="923.226,290.723 915.597,281.863 903.538,304.013 907.968,318.041 923.964,300.075 		"/>
		<path style="fill:#9092EC;" d="M931.946,291.931l71.604,79.702l-43.847,38.509l-53.705-82.503
			c-5.484-7.901,2.908-25.332,8.391-33.234l0,0C918.402,288.622,926.491,287.482,931.946,291.931z"/>
		<polygon style="fill:#37354C;" points="1001.069,616.035 981.822,507.56 959.703,410.142 1003.55,371.633 1001.042,506.341 
			1011.745,610.697 		"/>
		<polygon style="fill:#524F63;" points="1003.55,371.633 967.455,619.487 956.5,617.71 959.703,410.142 		"/>
		<polygon style="fill:#524F63;" points="936.428,627.371 965.351,626.258 967.019,617.359 958.676,616.247 930.866,624.034 
			931.422,627.927 		"/>
		<polygon style="fill:#37354C;" points="1011.745,610.697 1012.581,619.07 979.123,621.142 978.827,618.478 1008.436,609.003 		"/>
		<path style="fill:#91616A;" d="M862.614,420.686h-38.378c0,0-1.112-2.781,5.006-3.893c6.118-1.112,24.681-1.53,24.681-1.53
			l3.129-5.145l8.371,3.206L862.614,420.686z"/>
		<path style="fill:#9092EC;" d="M917.257,299.053l-29.121,54.964l-34.911,60.988l11.356,0.421l31.125-42.902l41.212-52.673
			c5.312-4.225,6.941-11.592,3.905-17.663l0,0C936.284,293.108,924.013,291.476,917.257,299.053z"/>
		<linearGradient id="SVGID_13_" gradientUnits="userSpaceOnUse" x1="922.3461" y1="377.0478" x2="931.9093" y2="318.1737">
			<stop  offset="0" style="stop-color:#484EC2;stop-opacity:0"/>
			<stop  offset="1" style="stop-color:#444BCC;stop-opacity:0.5018"/>
		</linearGradient>
		<path style="fill:url(#SVGID_13_);" d="M933.869,370.454c-0.805-11.163-4.732-45.89-4.732-45.89l-11.997,20.191L933.869,370.454z"
			/>
	</g>
	<g>
		<path style="fill:#EEBCC5;" d="M616.479,461.886c-1.959,0-17.632,6.53-17.632,6.53l12.246,100.549
			c-2.775,1.308-6.629,2.075-9.235,2.821c-6.014,1.722-11.405,2.34-16.718,5.882c-0.431,0.307-0.562,1.833-0.641,2.356
			c-0.174,1.152,1.393,1.664,2.558,1.715c7.256,0.318,14.523,0.349,21.782,0.095c4.629-0.162,8.409-2.524,12.53-4.64
			c2.394-1.229,3.303-4.868,3.168-6.57C624.496,570.107,618.33,461.886,616.479,461.886z"/>
		<path style="fill:#524F63;" d="M603.013,578.06c6.99-0.642,16.398-3.765,21.847-8.19c0.486,4.638-0.88,9.093-9.709,11.357
			c-10.194,2.614-21.112,5.511-31.202,2.52c-1.078-0.32-2.321-1.001-2.294-2.124c0.012-0.508,0.299-0.966,0.604-1.373
			c1.795-2.394,7.104-6.664,10.258-5.624c1.641,0.541,2.816,2.437,4.682,3.01C599.053,578.206,601.097,578.237,603.013,578.06z"/>
	</g>
	<g>
		<path style="fill:#EEBCC5;" d="M616.423,581.74"/>
		<path style="fill:#EEBCC5;" d="M653.902,570.626c-0.041-0.519-6.207-108.74-8.057-108.74c-1.959,0-17.632,6.53-17.632,6.53
			l12.246,100.549c2.062,5.423,3.828,10.594,6.835,15.555c3.007,4.961,7.029,9.451,12.172,12.135c0.555,0.289,1.255,0.55,1.77,0.195
			c0.297-0.205,0.443-0.565,0.543-0.912c0.866-2.984-0.407-6.125-1.656-8.969C657.846,581.78,654.352,576.276,653.902,570.626z"/>
		<path style="fill:#524F63;" d="M643.667,583.908c3.123,5.793,6.966,11.698,12.964,14.406c1.023,0.462,2.157,0.826,3.255,0.598
			c1.48-0.307,2.578-1.665,2.95-3.13s0.138-3.017-0.246-4.479c-0.579-2.207-1.494-4.326-2.704-6.262
			c-0.288-0.46-0.652-0.951-1.188-1.035c-0.689-0.109-1.255,0.487-1.821,0.895c-1.553,1.118-3.767,0.914-5.435-0.025
			c-1.667-0.939-2.897-2.484-4.022-4.032c-2.276-3.129-4.296-8.877-7.456-10.68C638.983,574.859,641.469,579.832,643.667,583.908z"
			/>
	</g>
	<g>
		<circle style="fill:#524F63;" cx="471.805" cy="600.203" r="7.483"/>
		<circle style="fill:#524F63;" cx="561.87" cy="600.203" r="7.483"/>
		<circle style="fill:#524F63;" cx="514.931" cy="600.203" r="7.483"/>
		<path style="fill:none;stroke:#524F63;stroke-width:2.25;stroke-miterlimit:10;" d="M471.805,600.203v-3.879
			c0-8.662,7.022-15.684,15.685-15.684h29.434v-76.228"/>
		<path style="fill:none;stroke:#524F63;stroke-width:2.25;stroke-miterlimit:10;" d="M561.038,600.203v-3.879
			c0-8.662-7.022-15.684-15.685-15.684H515.92v-76.228"/>
		
			<line style="fill:none;stroke:#524F63;stroke-width:2.25;stroke-miterlimit:10;" x1="514.931" y1="600.203" x2="514.931" y2="580.639"/>
		<rect x="506.961" y="542.12" style="fill:#524F63;" width="16.603" height="37.855"/>
		<rect x="509.618" y="505.075" style="fill:#524F63;" width="10.626" height="43.022"/>
	</g>
	<g>
		<circle style="fill:#524F63;" cx="758.837" cy="600.203" r="7.483"/>
		<circle style="fill:#524F63;" cx="848.902" cy="600.203" r="7.483"/>
		<circle style="fill:#524F63;" cx="801.963" cy="600.203" r="7.483"/>
		<path style="fill:none;stroke:#524F63;stroke-width:2.25;stroke-miterlimit:10;" d="M758.837,600.203v-3.879
			c0-8.662,7.022-15.684,15.684-15.684h29.434v-76.228"/>
		<path style="fill:none;stroke:#524F63;stroke-width:2.25;stroke-miterlimit:10;" d="M848.07,600.203v-3.879
			c0-8.662-7.022-15.684-15.685-15.684h-29.434v-76.228"/>
		
			<line style="fill:none;stroke:#524F63;stroke-width:2.25;stroke-miterlimit:10;" x1="801.963" y1="600.203" x2="801.963" y2="580.639"/>
		<rect x="793.993" y="542.12" style="fill:#524F63;" width="16.603" height="37.855"/>
		<rect x="796.65" y="505.075" style="fill:#524F63;" width="10.626" height="43.022"/>
	</g>
	<g>
		<rect x="351.347" y="428.825" style="fill:#BCBACE;" width="513.783" height="81.405"/>
		<rect x="352.083" y="429.465" style="fill:#524F63;" width="8.648" height="207.542"/>
		<rect x="862.29" y="429.465" style="fill:#524F63;" width="8.647" height="207.542"/>
		<linearGradient id="SVGID_14_" gradientUnits="userSpaceOnUse" x1="608.0905" y1="465.6751" x2="644.447" y2="297.8757">
			<stop  offset="0" style="stop-color:#676475;stop-opacity:0"/>
			<stop  offset="1" style="stop-color:#524F63;stop-opacity:0.7"/>
		</linearGradient>
		<polygon style="fill:url(#SVGID_14_);" points="870.9,476.892 350.722,429.349 870.9,429.349 		"/>
		<rect x="331.329" y="420.818" style="fill:#E0E4ED;" width="558.633" height="13.836"/>
	</g>
</g>
</svg>
