<?xml version="1.0" encoding="iso-8859-1"?>
<!-- Generator: Adobe Illustrator 21.0.2, SVG Export Plug-In . SVG Version: 6.00 Build 0)  -->
<svg version="1.1" xmlns="http://www.w3.org/2000/svg" xmlns:xlink="http://www.w3.org/1999/xlink" x="0px" y="0px"
	 viewBox="0 0 500 500" style="enable-background:new 0 0 500 500;" xml:space="preserve">
<g id="Background" style="display:none;">
</g>
<g id="Objects">
	<g>
		<g>
			<linearGradient id="SVGID_1_" gradientUnits="userSpaceOnUse" x1="239.3984" y1="427.5482" x2="242.4323" y2="168.0336">
				<stop  offset="0.3765" style="stop-color:#C7D0D1"/>
				<stop  offset="0.6434" style="stop-color:#C5CECF"/>
				<stop  offset="0.7401" style="stop-color:#BEC9CA"/>
				<stop  offset="0.7712" style="stop-color:#BAC5C6"/>
			</linearGradient>
			<polygon style="fill:url(#SVGID_1_);" points="242.013,190.572 239.661,190.572 96.02,190.572 96.02,418.308 239.661,418.308 
				242.013,418.308 385.655,418.308 385.655,190.572 			"/>
			<g>
				<g>
					<linearGradient id="SVGID_2_" gradientUnits="userSpaceOnUse" x1="226.3694" y1="242.2533" x2="261.3353" y2="242.2533">
						<stop  offset="0" style="stop-color:#E6E6E6"/>
						<stop  offset="0.6168" style="stop-color:#EBEBEB"/>
						<stop  offset="1" style="stop-color:#F2F2F2"/>
					</linearGradient>
					<rect x="226.369" y="219.133" style="fill:url(#SVGID_2_);" width="34.966" height="46.24"/>
					<path style="fill:#F9F9F9;" d="M225.372,218.136v48.234h36.96v-48.234H225.372z M260.337,241.256H244.85v-21.125h15.487
						V241.256z M242.855,220.131v21.125h-15.488v-21.125H242.855z M227.367,243.251h15.488v21.124h-15.488V243.251z M244.85,264.375
						v-21.124h15.487v21.124H244.85z"/>
				</g>
				<g>
					<linearGradient id="SVGID_3_" gradientUnits="userSpaceOnUse" x1="310.9028" y1="242.2533" x2="345.869" y2="242.2533">
						<stop  offset="0" style="stop-color:#E6E6E6"/>
						<stop  offset="0.6168" style="stop-color:#EBEBEB"/>
						<stop  offset="1" style="stop-color:#F2F2F2"/>
					</linearGradient>
					<rect x="310.903" y="219.133" style="fill:url(#SVGID_3_);" width="34.966" height="46.24"/>
					<path style="fill:#F9F9F9;" d="M309.906,218.136v48.234h36.96v-48.234H309.906z M344.871,241.256h-15.488v-21.125h15.488
						V241.256z M327.388,220.131v21.125h-15.486v-21.125H327.388z M311.901,243.251h15.486v21.124h-15.486V243.251z
						 M329.383,264.375v-21.124h15.488v21.124H329.383z"/>
				</g>
				<g>
					<linearGradient id="SVGID_4_" gradientUnits="userSpaceOnUse" x1="143.9014" y1="256.1774" x2="172.0145" y2="224.5085">
						<stop  offset="0" style="stop-color:#E6E6E6"/>
						<stop  offset="0.6168" style="stop-color:#EBEBEB"/>
						<stop  offset="1" style="stop-color:#F2F2F2"/>
					</linearGradient>
					<rect x="138.779" y="219.133" style="fill:url(#SVGID_4_);" width="34.965" height="46.24"/>
					<path style="fill:#F9F9F9;" d="M137.782,218.136v48.234h36.961v-48.234H137.782z M172.747,241.256h-15.488v-21.125h15.488
						V241.256z M155.264,220.131v21.125h-15.487v-21.125H155.264z M139.777,264.375v-21.124h15.487v21.124H139.777z
						 M157.259,264.375v-21.124h15.488v21.124H157.259z"/>
				</g>
			</g>
			<path style="fill:#779683;" d="M197.599,406.072"/>
			<path style="fill:#779683;" d="M322.518,406.072"/>
			<path style="fill:#779683;" d="M390.339,406.072"/>
			<line style="fill:#9FCEB3;" x1="218.807" y1="413.036" x2="242.013" y2="413.036"/>
			<g>
				<polygon style="fill:#F2F2F2;" points="395.917,423.583 395.917,413.036 242.013,413.036 88.109,413.036 88.109,423.583 
					59.312,423.583 59.312,434.131 242.013,434.131 424.715,434.131 424.715,423.583 				"/>
				<g>
					<rect x="59.312" y="431.276" style="fill:#E6E8E8;" width="182.701" height="2.855"/>
					<rect x="242.014" y="420.728" style="fill:#E6E8E8;" width="153.903" height="2.855"/>
					<rect x="242.014" y="431.276" style="fill:#E6E8E8;" width="182.701" height="2.855"/>
					<rect x="88.11" y="420.728" style="fill:#E6E8E8;" width="153.904" height="2.855"/>
				</g>
			</g>
			<g>
				<g>
					<g style="opacity:0.1;">
						<polygon points="241.236,55.651 41.236,166.878 63.177,166.878 241.236,71.857 419.294,166.878 441.236,166.878 						"/>
					</g>
					<g>
						<polygon style="fill:#F2F2F2;" points="241.236,53.315 41.236,164.542 63.177,164.542 241.236,69.521 419.294,164.542 
							441.236,164.542 						"/>
					</g>
				</g>
				<linearGradient id="SVGID_5_" gradientUnits="userSpaceOnUse" x1="240.1776" y1="59.7086" x2="241.247" y2="162.0818">
					<stop  offset="0.0538" style="stop-color:#C7D0D1"/>
					<stop  offset="0.6937" style="stop-color:#C5CECF"/>
					<stop  offset="0.9256" style="stop-color:#BEC9CA"/>
					<stop  offset="1" style="stop-color:#BAC5C6"/>
				</linearGradient>
				<polygon style="fill:url(#SVGID_5_);" points="241.236,69.521 69.734,161.042 241.236,161.042 412.738,161.042 				"/>
			</g>
			<path style="fill:#779683;" d="M129.777,406.072"/>
			<g>
				<g>
					<g>
						<g style="opacity:0.1;">
							<rect x="94.433" y="192.828" width="30.752" height="207.497"/>
						</g>
						<g>
							<rect x="96.02" y="192.035" style="fill:#E6E6E6;" width="30.752" height="207.497"/>
						</g>
					</g>
					<g>
						<g>
							<rect x="98.449" y="204.446" style="fill:#B9BABA;" width="0.794" height="195.086"/>
						</g>
						<g>
							<rect x="100.987" y="204.446" style="fill:#B9BABA;" width="0.794" height="195.086"/>
						</g>
						<g>
							<rect x="103.526" y="204.446" style="fill:#B9BABA;" width="0.794" height="195.086"/>
						</g>
						<g>
							<rect x="106.065" y="204.446" style="fill:#B9BABA;" width="0.794" height="195.086"/>
						</g>
						<g>
							<rect x="108.604" y="204.446" style="fill:#B9BABA;" width="0.794" height="195.086"/>
						</g>
						<g>
							<rect x="111.143" y="204.446" style="fill:#B9BABA;" width="0.794" height="195.086"/>
						</g>
						<g>
							<rect x="113.682" y="204.446" style="fill:#B9BABA;" width="0.794" height="195.086"/>
						</g>
						<g>
							<rect x="116.221" y="204.446" style="fill:#B9BABA;" width="0.794" height="195.086"/>
						</g>
						<g>
							<rect x="118.759" y="204.446" style="fill:#B9BABA;" width="0.794" height="195.086"/>
						</g>
						<g>
							<rect x="121.298" y="204.446" style="fill:#B9BABA;" width="0.794" height="195.086"/>
						</g>
						<g>
							<rect x="123.837" y="204.446" style="fill:#B9BABA;" width="0.794" height="195.086"/>
						</g>
					</g>
					<path style="fill:#F2F2F2;" d="M128.472,399.532h-16.574H95.323c-3.803,0-6.883,3.403-6.883,7.594v5.909h23.458h23.457v-5.909
						C135.355,402.935,132.275,399.532,128.472,399.532z"/>
					<g>
						<g style="opacity:0.1;">
							<path d="M88.441,192.16v5.909c0,4.192,3.08,7.594,6.883,7.594h16.574h16.574c3.803,0,6.883-3.403,6.883-7.594v-5.909h-23.458
								H88.441z"/>
						</g>
						<g>
							<path style="fill:#F2F2F2;" d="M88.441,190.572v5.909c0,4.192,3.08,7.594,6.883,7.594h16.574h16.574
								c3.803,0,6.883-3.403,6.883-7.594v-5.909h-23.458H88.441z"/>
						</g>
					</g>
					<g>
						<g style="opacity:0.05;">
							<path d="M128.472,394.657c0,1.815-1.472,3.288-3.289,3.288H97.372c-1.817,0-3.289-1.473-3.289-3.288l0,0
								c0-1.817,1.472-3.29,3.289-3.29h27.811C126.999,391.367,128.472,392.84,128.472,394.657L128.472,394.657z"/>
						</g>
						<g>
							<path style="fill:#F2F2F2;" d="M128.472,396.244c0,1.815-1.472,3.288-3.289,3.288H97.372c-1.817,0-3.289-1.473-3.289-3.288
								l0,0c0-1.817,1.472-3.29,3.289-3.29h27.811C126.999,392.954,128.472,394.427,128.472,396.244L128.472,396.244z"/>
						</g>
					</g>
				</g>
				<g>
					<g>
						<g>
							<g style="opacity:0.1;">
								<rect x="162.255" y="192.828" width="30.752" height="207.497"/>
							</g>
							<g>
								<rect x="163.842" y="192.035" style="fill:#E6E6E6;" width="30.752" height="207.497"/>
							</g>
						</g>
						<g>
							<g>
								<rect x="166.27" y="204.446" style="fill:#B9BABA;" width="0.794" height="195.086"/>
							</g>
							<g>
								<rect x="168.809" y="204.446" style="fill:#B9BABA;" width="0.794" height="195.086"/>
							</g>
							<g>
								<rect x="171.348" y="204.446" style="fill:#B9BABA;" width="0.794" height="195.086"/>
							</g>
							<g>
								<rect x="173.887" y="204.446" style="fill:#B9BABA;" width="0.794" height="195.086"/>
							</g>
							<g>
								<rect x="176.426" y="204.446" style="fill:#B9BABA;" width="0.794" height="195.086"/>
							</g>
							<g>
								<rect x="178.965" y="204.446" style="fill:#B9BABA;" width="0.794" height="195.086"/>
							</g>
							<g>
								<rect x="181.504" y="204.446" style="fill:#B9BABA;" width="0.794" height="195.086"/>
							</g>
							<g>
								<rect x="184.042" y="204.446" style="fill:#B9BABA;" width="0.794" height="195.086"/>
							</g>
							<g>
								<rect x="186.581" y="204.446" style="fill:#B9BABA;" width="0.794" height="195.086"/>
							</g>
							<g>
								<rect x="189.12" y="204.446" style="fill:#B9BABA;" width="0.794" height="195.086"/>
							</g>
							<g>
								<rect x="191.659" y="204.446" style="fill:#B9BABA;" width="0.794" height="195.086"/>
							</g>
						</g>
					</g>
					<path style="fill:#F2F2F2;" d="M196.294,399.532H179.72h-16.574c-3.803,0-6.883,3.403-6.883,7.594v5.909h23.458h23.457v-5.909
						C203.176,402.935,200.097,399.532,196.294,399.532z"/>
					<g>
						<g style="opacity:0.1;">
							<path d="M156.262,192.16v5.909c0,4.192,3.08,7.594,6.883,7.594h16.574h16.574c3.803,0,6.883-3.403,6.883-7.594v-5.909
								h-23.458H156.262z"/>
						</g>
						<g>
							<path style="fill:#F2F2F2;" d="M156.262,190.572v5.909c0,4.192,3.08,7.594,6.883,7.594h16.574h16.574
								c3.803,0,6.883-3.403,6.883-7.594v-5.909h-23.458H156.262z"/>
						</g>
					</g>
					<g>
						<g style="opacity:0.05;">
							<path d="M196.914,394.657c0,1.815-1.472,3.288-3.289,3.288h-27.811c-1.816,0-3.289-1.473-3.289-3.288l0,0
								c0-1.817,1.472-3.29,3.289-3.29h27.811C195.442,391.367,196.914,392.84,196.914,394.657L196.914,394.657z"/>
						</g>
						<g>
							<path style="fill:#F2F2F2;" d="M196.914,396.244c0,1.815-1.472,3.288-3.289,3.288h-27.811c-1.816,0-3.289-1.473-3.289-3.288
								l0,0c0-1.817,1.472-3.29,3.289-3.29h27.811C195.442,392.954,196.914,394.427,196.914,396.244L196.914,396.244z"/>
						</g>
					</g>
				</g>
				<g>
					<g>
						<g>
							<g style="opacity:0.1;">
								<rect x="287.174" y="192.828" width="30.753" height="207.497"/>
							</g>
							<g>
								<rect x="288.761" y="192.035" style="fill:#E6E6E6;" width="30.753" height="207.497"/>
							</g>
						</g>
						<g>
							<g>
								<rect x="291.189" y="204.446" style="fill:#B9BABA;" width="0.794" height="195.086"/>
							</g>
							<g>
								<rect x="293.728" y="204.446" style="fill:#B9BABA;" width="0.794" height="195.086"/>
							</g>
							<g>
								<rect x="296.267" y="204.446" style="fill:#B9BABA;" width="0.794" height="195.086"/>
							</g>
							<g>
								<rect x="298.807" y="204.446" style="fill:#B9BABA;" width="0.794" height="195.086"/>
							</g>
							<g>
								<rect x="301.344" y="204.446" style="fill:#B9BABA;" width="0.794" height="195.086"/>
							</g>
							<g>
								<rect x="303.883" y="204.446" style="fill:#B9BABA;" width="0.794" height="195.086"/>
							</g>
							<g>
								<rect x="306.423" y="204.446" style="fill:#B9BABA;" width="0.794" height="195.086"/>
							</g>
							<g>
								<rect x="308.962" y="204.446" style="fill:#B9BABA;" width="0.794" height="195.086"/>
							</g>
							<g>
								<rect x="311.5" y="204.446" style="fill:#B9BABA;" width="0.794" height="195.086"/>
							</g>
							<g>
								<rect x="314.039" y="204.446" style="fill:#B9BABA;" width="0.794" height="195.086"/>
							</g>
							<g>
								<rect x="316.578" y="204.446" style="fill:#B9BABA;" width="0.794" height="195.086"/>
							</g>
						</g>
					</g>
					<path style="fill:#F2F2F2;" d="M321.213,399.532h-16.575h-16.575c-3.803,0-6.883,3.403-6.883,7.594v5.909h23.458h23.458v-5.909
						C328.096,402.935,325.016,399.532,321.213,399.532z"/>
					<g>
						<g style="opacity:0.1;">
							<path d="M281.181,192.16v5.909c0,4.192,3.08,7.594,6.883,7.594h16.575h16.575c3.803,0,6.883-3.403,6.883-7.594v-5.909
								h-23.458H281.181z"/>
						</g>
						<g>
							<path style="fill:#F2F2F2;" d="M281.181,190.572v5.909c0,4.192,3.08,7.594,6.883,7.594h16.575h16.575
								c3.803,0,6.883-3.403,6.883-7.594v-5.909h-23.458H281.181z"/>
						</g>
					</g>
					<g>
						<g style="opacity:0.05;">
							<path d="M321.331,394.657c0,1.815-1.471,3.288-3.288,3.288h-27.812c-1.815,0-3.288-1.473-3.288-3.288l0,0
								c0-1.817,1.473-3.29,3.288-3.29h27.812C319.86,391.367,321.331,392.84,321.331,394.657L321.331,394.657z"/>
						</g>
						<g>
							<path style="fill:#F2F2F2;" d="M321.331,396.244c0,1.815-1.471,3.288-3.288,3.288h-27.812c-1.815,0-3.288-1.473-3.288-3.288
								l0,0c0-1.817,1.473-3.29,3.288-3.29h27.812C319.86,392.954,321.331,394.427,321.331,396.244L321.331,396.244z"/>
						</g>
					</g>
				</g>
				<g>
					<g>
						<g>
							<g style="opacity:0.1;">
								<rect x="354.995" y="192.828" width="30.753" height="207.497"/>
							</g>
							<g>
								<rect x="356.582" y="192.035" style="fill:#E6E6E6;" width="30.753" height="207.497"/>
							</g>
						</g>
						<g>
							<g>
								<rect x="359.012" y="204.446" style="fill:#B9BABA;" width="0.794" height="195.086"/>
							</g>
							<g>
								<rect x="361.551" y="204.446" style="fill:#B9BABA;" width="0.794" height="195.086"/>
							</g>
							<g>
								<rect x="364.089" y="204.446" style="fill:#B9BABA;" width="0.794" height="195.086"/>
							</g>
							<g>
								<rect x="366.628" y="204.446" style="fill:#B9BABA;" width="0.794" height="195.086"/>
							</g>
							<g>
								<rect x="369.167" y="204.446" style="fill:#B9BABA;" width="0.794" height="195.086"/>
							</g>
							<g>
								<rect x="371.706" y="204.446" style="fill:#B9BABA;" width="0.794" height="195.086"/>
							</g>
							<g>
								<rect x="374.244" y="204.446" style="fill:#B9BABA;" width="0.794" height="195.086"/>
							</g>
							<g>
								<rect x="376.783" y="204.446" style="fill:#B9BABA;" width="0.794" height="195.086"/>
							</g>
							<g>
								<rect x="379.322" y="204.446" style="fill:#B9BABA;" width="0.794" height="195.086"/>
							</g>
							<g>
								<rect x="381.861" y="204.446" style="fill:#B9BABA;" width="0.794" height="195.086"/>
							</g>
							<g>
								<rect x="384.399" y="204.446" style="fill:#B9BABA;" width="0.794" height="195.086"/>
							</g>
						</g>
					</g>
					<path style="fill:#F2F2F2;" d="M389.034,399.532h-16.573h-16.575c-3.803,0-6.883,3.403-6.883,7.594v5.909h23.458h23.456v-5.909
						C395.917,402.935,392.837,399.532,389.034,399.532z"/>
					<g>
						<g style="opacity:0.1;">
							<path d="M372.46,192.16h-23.456v5.909c0,4.192,3.08,7.594,6.883,7.594h16.573h16.575c3.803,0,6.883-3.403,6.883-7.594v-5.909
								H372.46z"/>
						</g>
						<g>
							<path style="fill:#F2F2F2;" d="M372.46,190.572h-23.456v5.909c0,4.192,3.08,7.594,6.883,7.594h16.573h16.575
								c3.803,0,6.883-3.403,6.883-7.594v-5.909H372.46z"/>
						</g>
					</g>
					<g>
						<g style="opacity:0.05;">
							<path d="M389.154,394.657c0,1.815-1.473,3.288-3.289,3.288h-27.811c-1.817,0-3.289-1.473-3.289-3.288l0,0
								c0-1.817,1.473-3.29,3.289-3.29h27.811C387.681,391.367,389.154,392.84,389.154,394.657L389.154,394.657z"/>
						</g>
						<g>
							<path style="fill:#F2F2F2;" d="M389.154,396.244c0,1.815-1.473,3.288-3.289,3.288h-27.811c-1.817,0-3.289-1.473-3.289-3.288
								l0,0c0-1.817,1.473-3.29,3.289-3.29h27.811C387.681,392.954,389.154,394.427,389.154,396.244L389.154,396.244z"/>
						</g>
					</g>
				</g>
			</g>
			<g>
				<g>
					<rect x="240.477" y="13.769" style="fill:#E6E8E8;" width="1.587" height="40.418"/>
				</g>
				<path style="fill:#CE4A30;" d="M241.961,34.725c0,0,2.84,1.613,8.112-1.111c2.197-1.134,4.734-2.296,7.066-2.576
					c2.703-0.324,6.173-0.376,10.69,3.3c3.796,3.09,9.65,0.386,9.65,0.386V30.9V14.419c0,0-5.144,3.115-9.65-0.386
					c-4.598-3.573-7.987-3.624-10.69-3.3c-2.331,0.279-4.869,1.441-7.066,2.576c-5.272,2.723-8.112,1.111-8.112,1.111V29.95"/>
				<circle style="fill:#E6E8E8;" cx="241.271" cy="12.38" r="1.786"/>
			</g>
			<g>
				<g>
					<g style="opacity:0.15;">
						<polygon points="246.333,162.292 246.333,162.292 72.387,161.495 72.387,175.419 244.509,175.419 244.509,176.216 
							416.012,176.216 416.012,162.292 						"/>
					</g>
					<g>
						<polygon style="fill:#E6E6E6;" points="244.458,161.042 244.458,161.042 70.511,160.245 70.511,174.169 242.634,174.169 
							242.634,174.966 414.137,174.966 414.137,161.042 						"/>
					</g>
				</g>
				<g>
					<g>
						<rect x="72.768" y="161.042" style="fill:#D8D8D8;" width="1.542" height="13.127"/>
					</g>
					<g>
						<rect x="77.266" y="161.042" style="fill:#D8D8D8;" width="1.542" height="13.127"/>
					</g>
					<g>
						<rect x="81.763" y="161.042" style="fill:#D8D8D8;" width="1.542" height="13.127"/>
					</g>
					<g>
						<rect x="86.261" y="161.042" style="fill:#D8D8D8;" width="1.542" height="13.127"/>
					</g>
					<g>
						<rect x="90.759" y="161.042" style="fill:#D8D8D8;" width="1.542" height="13.127"/>
					</g>
					<g>
						<rect x="95.257" y="161.042" style="fill:#D8D8D8;" width="1.542" height="13.127"/>
					</g>
					<g>
						<rect x="99.755" y="161.042" style="fill:#D8D8D8;" width="1.542" height="13.127"/>
					</g>
					<g>
						<rect x="104.253" y="161.042" style="fill:#D8D8D8;" width="1.542" height="13.127"/>
					</g>
					<g>
						<rect x="108.751" y="161.042" style="fill:#D8D8D8;" width="1.542" height="13.127"/>
					</g>
					<g>
						<rect x="113.249" y="161.042" style="fill:#D8D8D8;" width="1.542" height="13.127"/>
					</g>
					<g>
						<rect x="117.747" y="161.042" style="fill:#D8D8D8;" width="1.542" height="13.127"/>
					</g>
					<g>
						<rect x="122.245" y="161.042" style="fill:#D8D8D8;" width="1.542" height="13.127"/>
					</g>
					<g>
						<rect x="126.742" y="161.042" style="fill:#D8D8D8;" width="1.542" height="13.127"/>
					</g>
					<g>
						<rect x="131.24" y="161.042" style="fill:#D8D8D8;" width="1.542" height="13.127"/>
					</g>
					<g>
						<rect x="135.738" y="161.042" style="fill:#D8D8D8;" width="1.542" height="13.127"/>
					</g>
					<g>
						<rect x="140.236" y="161.042" style="fill:#D8D8D8;" width="1.542" height="13.127"/>
					</g>
					<g>
						<rect x="144.734" y="161.042" style="fill:#D8D8D8;" width="1.542" height="13.127"/>
					</g>
					<g>
						<rect x="149.232" y="161.042" style="fill:#D8D8D8;" width="1.542" height="13.127"/>
					</g>
					<g>
						<rect x="153.73" y="161.042" style="fill:#D8D8D8;" width="1.542" height="13.127"/>
					</g>
					<g>
						<rect x="158.228" y="161.042" style="fill:#D8D8D8;" width="1.542" height="13.127"/>
					</g>
					<g>
						<rect x="162.726" y="161.042" style="fill:#D8D8D8;" width="1.542" height="13.127"/>
					</g>
					<g>
						<rect x="167.223" y="161.042" style="fill:#D8D8D8;" width="1.542" height="13.127"/>
					</g>
					<g>
						<rect x="171.721" y="161.042" style="fill:#D8D8D8;" width="1.542" height="13.127"/>
					</g>
					<g>
						<rect x="176.219" y="161.042" style="fill:#D8D8D8;" width="1.542" height="13.127"/>
					</g>
					<g>
						<rect x="180.717" y="161.042" style="fill:#D8D8D8;" width="1.542" height="13.127"/>
					</g>
					<g>
						<rect x="185.215" y="161.042" style="fill:#D8D8D8;" width="1.542" height="13.127"/>
					</g>
					<g>
						<rect x="189.713" y="161.042" style="fill:#D8D8D8;" width="1.542" height="13.127"/>
					</g>
					<g>
						<rect x="194.211" y="161.042" style="fill:#D8D8D8;" width="1.542" height="13.127"/>
					</g>
					<g>
						<rect x="198.709" y="161.042" style="fill:#D8D8D8;" width="1.542" height="13.127"/>
					</g>
					<g>
						<rect x="203.207" y="161.042" style="fill:#D8D8D8;" width="1.542" height="13.127"/>
					</g>
					<g>
						<rect x="207.705" y="161.042" style="fill:#D8D8D8;" width="1.542" height="13.127"/>
					</g>
					<g>
						<rect x="212.203" y="161.042" style="fill:#D8D8D8;" width="1.542" height="13.127"/>
					</g>
					<g>
						<rect x="216.7" y="161.042" style="fill:#D8D8D8;" width="1.542" height="13.127"/>
					</g>
					<g>
						<rect x="221.198" y="161.042" style="fill:#D8D8D8;" width="1.542" height="13.127"/>
					</g>
					<g>
						<rect x="225.696" y="161.042" style="fill:#D8D8D8;" width="1.542" height="13.127"/>
					</g>
					<g>
						<rect x="230.194" y="161.042" style="fill:#D8D8D8;" width="1.542" height="13.127"/>
					</g>
					<g>
						<rect x="234.692" y="161.042" style="fill:#D8D8D8;" width="1.542" height="13.127"/>
					</g>
					<g>
						<rect x="239.19" y="161.042" style="fill:#D8D8D8;" width="1.542" height="13.127"/>
					</g>
					<g>
						<rect x="243.688" y="161.042" style="fill:#D8D8D8;" width="1.542" height="13.127"/>
					</g>
					<g>
						<rect x="248.186" y="161.042" style="fill:#D8D8D8;" width="1.541" height="13.127"/>
					</g>
					<g>
						<rect x="252.684" y="161.042" style="fill:#D8D8D8;" width="1.541" height="13.127"/>
					</g>
					<g>
						<rect x="257.182" y="161.042" style="fill:#D8D8D8;" width="1.541" height="13.127"/>
					</g>
					<g>
						<rect x="261.679" y="161.042" style="fill:#D8D8D8;" width="1.541" height="13.127"/>
					</g>
					<g>
						<rect x="266.178" y="161.042" style="fill:#D8D8D8;" width="1.541" height="13.127"/>
					</g>
					<g>
						<rect x="270.675" y="161.042" style="fill:#D8D8D8;" width="1.541" height="13.127"/>
					</g>
					<g>
						<rect x="275.174" y="161.042" style="fill:#D8D8D8;" width="1.541" height="13.127"/>
					</g>
					<g>
						<rect x="279.671" y="161.042" style="fill:#D8D8D8;" width="1.541" height="13.127"/>
					</g>
					<g>
						<rect x="284.17" y="161.042" style="fill:#D8D8D8;" width="1.541" height="13.127"/>
					</g>
					<g>
						<rect x="288.667" y="161.042" style="fill:#D8D8D8;" width="1.541" height="13.127"/>
					</g>
					<g>
						<rect x="293.165" y="161.042" style="fill:#D8D8D8;" width="1.541" height="13.127"/>
					</g>
					<g>
						<rect x="297.663" y="161.042" style="fill:#D8D8D8;" width="1.541" height="13.127"/>
					</g>
					<g>
						<rect x="302.161" y="161.042" style="fill:#D8D8D8;" width="1.541" height="13.127"/>
					</g>
					<g>
						<rect x="306.658" y="161.042" style="fill:#D8D8D8;" width="1.541" height="13.127"/>
					</g>
					<g>
						<rect x="311.157" y="161.042" style="fill:#D8D8D8;" width="1.541" height="13.127"/>
					</g>
					<g>
						<rect x="315.654" y="161.042" style="fill:#D8D8D8;" width="1.541" height="13.127"/>
					</g>
					<g>
						<rect x="320.153" y="161.042" style="fill:#D8D8D8;" width="1.541" height="13.127"/>
					</g>
					<g>
						<rect x="324.65" y="161.042" style="fill:#D8D8D8;" width="1.541" height="13.127"/>
					</g>
					<g>
						<rect x="329.149" y="161.042" style="fill:#D8D8D8;" width="1.541" height="13.127"/>
					</g>
					<g>
						<rect x="333.646" y="161.042" style="fill:#D8D8D8;" width="1.541" height="13.127"/>
					</g>
					<g>
						<rect x="338.144" y="161.042" style="fill:#D8D8D8;" width="1.541" height="13.127"/>
					</g>
					<g>
						<rect x="342.641" y="161.042" style="fill:#D8D8D8;" width="1.541" height="13.127"/>
					</g>
					<g>
						<rect x="347.14" y="161.042" style="fill:#D8D8D8;" width="1.541" height="13.127"/>
					</g>
					<g>
						<rect x="351.637" y="161.042" style="fill:#D8D8D8;" width="1.541" height="13.127"/>
					</g>
					<g>
						<rect x="356.136" y="161.042" style="fill:#D8D8D8;" width="1.541" height="13.127"/>
					</g>
					<g>
						<rect x="360.633" y="161.042" style="fill:#D8D8D8;" width="1.541" height="13.127"/>
					</g>
					<g>
						<rect x="365.132" y="161.042" style="fill:#D8D8D8;" width="1.541" height="13.127"/>
					</g>
					<g>
						<rect x="369.629" y="161.042" style="fill:#D8D8D8;" width="1.541" height="13.127"/>
					</g>
					<g>
						<rect x="374.127" y="161.042" style="fill:#D8D8D8;" width="1.541" height="13.127"/>
					</g>
					<g>
						<rect x="378.625" y="161.042" style="fill:#D8D8D8;" width="1.541" height="13.127"/>
					</g>
					<g>
						<rect x="383.123" y="161.042" style="fill:#D8D8D8;" width="1.541" height="13.127"/>
					</g>
					<g>
						<rect x="387.62" y="161.042" style="fill:#D8D8D8;" width="1.541" height="13.127"/>
					</g>
					<g>
						<rect x="392.119" y="161.042" style="fill:#D8D8D8;" width="1.541" height="13.127"/>
					</g>
					<g>
						<rect x="396.616" y="161.042" style="fill:#D8D8D8;" width="1.541" height="13.127"/>
					</g>
					<g>
						<rect x="401.115" y="161.042" style="fill:#D8D8D8;" width="1.541" height="13.127"/>
					</g>
					<g>
						<rect x="405.612" y="161.042" style="fill:#D8D8D8;" width="1.541" height="13.127"/>
					</g>
					<g>
						<rect x="410.111" y="161.042" style="fill:#D8D8D8;" width="1.541" height="13.127"/>
					</g>
				</g>
			</g>
			<g>
				<g>
					<linearGradient id="SVGID_6_" gradientUnits="userSpaceOnUse" x1="242.049" y1="194.6907" x2="241.9532" y2="163.8943">
						<stop  offset="0" style="stop-color:#C7D0D1"/>
						<stop  offset="0.2875" style="stop-color:#CCD4D5"/>
						<stop  offset="0.6455" style="stop-color:#DCE0E1"/>
						<stop  offset="1" style="stop-color:#F2F2F2"/>
					</linearGradient>
					<rect x="70.484" y="176.286" style="fill:url(#SVGID_6_);" width="343.059" height="13.924"/>
				</g>
				<g>
					<g style="opacity:0.1;">
						<path d="M419.765,176.815c0,0.584-0.474,1.058-1.059,1.058H70.537c-0.584,0-1.058-0.474-1.058-1.058l0,0
							c0-0.585,0.474-1.058,1.058-1.058h348.17C419.291,175.757,419.765,176.23,419.765,176.815L419.765,176.815z"/>
					</g>
					<g>
						<path style="fill:#E6E8E8;" d="M418.178,175.227c0,0.584-0.474,1.058-1.059,1.058H68.949c-0.584,0-1.058-0.474-1.058-1.058
							l0,0c0-0.584,0.474-1.058,1.058-1.058h348.17C417.704,174.169,418.178,174.643,418.178,175.227L418.178,175.227z"/>
					</g>
				</g>
				<g>
					<g style="opacity:0.1;">
						<path d="M419.765,191.797c0,0.585-0.474,1.058-1.059,1.058H70.537c-0.584,0-1.058-0.474-1.058-1.058l0,0
							c0-0.584,0.474-1.058,1.058-1.058h348.17C419.291,190.739,419.765,191.213,419.765,191.797L419.765,191.797z"/>
					</g>
					<g>
						<path style="fill:#E6E8E8;" d="M418.178,190.21c0,0.585-0.474,1.058-1.059,1.058H68.949c-0.584,0-1.058-0.474-1.058-1.058l0,0
							c0-0.584,0.474-1.058,1.058-1.058h348.17C417.704,189.151,418.178,189.625,418.178,190.21L418.178,190.21z"/>
					</g>
				</g>
			</g>
			
				<rect x="221.969" y="346.914" style="fill:#E3E5E4;stroke:#F9F9F9;stroke-width:3.4673;stroke-miterlimit:10;" width="16.832" height="24.14"/>
			
				<rect x="245.038" y="346.914" style="fill:#E3E5E4;stroke:#F9F9F9;stroke-width:3.4673;stroke-miterlimit:10;" width="16.832" height="24.14"/>
			<g>
				<g>
					<g>
						<g style="opacity:0.15;">
							<path d="M244.124,284.315c0.261,0,0.519,0.012,0.779,0.019c0.26-0.006,0.517-0.019,0.779-0.019H244.124z"/>
							<path style="fill:none;stroke:#000000;stroke-width:3.1748;stroke-miterlimit:10;" d="M244.124,284.315
								c0.261,0,0.519,0.012,0.779,0.019c0.26-0.006,0.517-0.019,0.779-0.019H244.124z"/>
						</g>
						<g>
							<path style="fill:#87CCA3;" d="M242.163,284.315c0.261,0,0.519,0.012,0.779,0.019c0.26-0.006,0.517-0.019,0.779-0.019
								H242.163z"/>
							<path style="fill:none;stroke:#F9F9F9;stroke-width:3.1748;stroke-miterlimit:10;" d="M242.163,284.315
								c0.261,0,0.519,0.012,0.779,0.019c0.26-0.006,0.517-0.019,0.779-0.019H242.163z"/>
						</g>
					</g>
					<g>
						<g style="opacity:0.15;">
							<path d="M244.903,284.334c-14.873,0.378-26.804,11.509-26.804,25.192V412.44h25.389h28.22V309.526
								C271.708,295.842,259.776,284.712,244.903,284.334z"/>
							<path style="fill:none;stroke:#000000;stroke-width:3.1748;stroke-miterlimit:10;" d="M244.903,284.334
								c-14.873,0.378-26.804,11.509-26.804,25.192V412.44h25.389h28.22V309.526C271.708,295.842,259.776,284.712,244.903,284.334z"
								/>
						</g>
						<linearGradient id="SVGID_7_" gradientUnits="userSpaceOnUse" x1="216.1373" y1="348.3871" x2="269.7451" y2="348.3871">
							<stop  offset="0" style="stop-color:#E6E6E6"/>
							<stop  offset="0.6168" style="stop-color:#EBEBEB"/>
							<stop  offset="1" style="stop-color:#F2F2F2"/>
						</linearGradient>
						<path style="fill:url(#SVGID_7_);" d="M242.941,284.334c-14.873,0.378-26.804,11.509-26.804,25.192V412.44h25.39h28.218
							V309.526C269.745,295.842,257.813,284.712,242.941,284.334z"/>
					</g>
				</g>
				<g>
					<g style="opacity:0.15;">
						<path d="M244.392,282.591l-0.04-0.002l-0.04,0.002c-15.898,0.405-28.351,12.168-28.351,26.78v104.502h56.783V309.371
							C272.743,294.759,260.29,282.996,244.392,282.591z M245.939,285.856c5.27,0.426,10.054,2.246,13.918,5.054l-13.919,12.727
							L245.939,285.856z M262.329,292.951c3.607,3.401,6.081,7.793,6.922,12.701h-20.811L262.329,292.951z M242.765,285.856
							l-0.001,17.041l-11.456-13.573C234.671,287.419,238.564,286.196,242.765,285.856z M228.628,291.071l12.306,14.581h-21.48
							C220.458,299.78,223.807,294.652,228.628,291.071z M269.568,410.698h-50.433V309.371c0-0.183,0.01-0.363,0.015-0.544h25.2
							h0.001l0,0h25.203c0.005,0.181,0.014,0.361,0.014,0.544V410.698z"/>
					</g>
					<g>
						<path style="fill:#F9F9F9;" d="M243.599,281.798l-0.04-0.002l-0.04,0.002c-15.898,0.405-28.351,12.168-28.351,26.78v104.502
							h56.783V308.577C271.949,293.965,259.497,282.202,243.599,281.798z M245.146,285.062c5.27,0.426,10.054,2.246,13.918,5.054
							l-13.919,12.727L245.146,285.062z M261.535,292.158c3.607,3.401,6.081,7.793,6.922,12.701h-20.811L261.535,292.158z
							 M241.971,285.062l-0.001,17.041l-11.456-13.573C233.878,286.625,237.77,285.402,241.971,285.062z M227.834,290.277
							l12.306,14.581h-21.48C219.664,298.986,223.013,293.858,227.834,290.277z M268.775,409.904h-50.433V308.577
							c0-0.183,0.01-0.363,0.015-0.544h25.2h0.001l0,0h25.203c0.005,0.181,0.014,0.361,0.014,0.544V409.904z"/>
					</g>
				</g>
				<g>
					<g>
						<g style="opacity:0.05;">
							<rect x="224.307" y="314.025" width="16.832" height="24.14"/>
						</g>
						<g>
							<rect x="223.513" y="313.231" style="fill:#FFFFFF;" width="16.832" height="24.14"/>
						</g>
					</g>
					<g>
						<g style="opacity:0.05;">
							<rect x="247.376" y="314.025" width="16.832" height="24.14"/>
						</g>
						<g>
							<rect x="246.582" y="313.231" style="fill:#FFFFFF;" width="16.832" height="24.14"/>
						</g>
					</g>
					<g>
						<g style="opacity:0.05;">
							<rect x="224.307" y="378.304" width="16.832" height="24.14"/>
						</g>
						<g>
							<rect x="223.513" y="377.51" style="fill:#FFFFFF;" width="16.832" height="24.14"/>
						</g>
					</g>
					<g>
						<g style="opacity:0.05;">
							<rect x="247.376" y="378.304" width="16.832" height="24.14"/>
						</g>
						<g>
							<rect x="246.582" y="377.51" style="fill:#FFFFFF;" width="16.832" height="24.14"/>
						</g>
					</g>
				</g>
			</g>
			<path style="fill:#BAC5C6;" d="M262.878,354.975c0,0.811-0.659,1.47-1.47,1.47l0,0c-0.812,0-1.471-0.659-1.471-1.47v-7.379
				c0-0.812,0.659-1.47,1.471-1.47l0,0c0.811,0,1.47,0.657,1.47,1.47V354.975z"/>
			<path style="fill:#BAC5C6;" d="M267.64,351.285c0,0.307-0.25,0.555-0.556,0.555h-5.12c-0.307,0-0.555-0.248-0.555-0.555l0,0
				c0-0.307,0.248-0.557,0.555-0.557h5.12C267.39,350.729,267.64,350.978,267.64,351.285L267.64,351.285z"/>
			<g style="opacity:0.5;">
				<polygon style="fill:#8D9899;" points="63.177,164.542 107.51,140.446 151.92,116.495 240.862,68.821 241.236,68.621 
					241.609,68.821 330.552,116.493 374.962,140.444 419.294,164.542 374.597,141.129 329.977,117.57 240.863,70.22 241.609,70.22 
					152.492,117.567 107.873,141.127 				"/>
			</g>
		</g>
	</g>
</g>
</svg>
