<?xml version="1.0" encoding="iso-8859-1"?>
<!-- Generator: Adobe Illustrator 21.0.2, SVG Export Plug-In . SVG Version: 6.00 Build 0)  -->
<svg version="1.1" xmlns="http://www.w3.org/2000/svg" xmlns:xlink="http://www.w3.org/1999/xlink" x="0px" y="0px"
	 viewBox="0 0 500 500" style="enable-background:new 0 0 500 500;" xml:space="preserve">
<g id="BACKGROUND">
</g>
<g id="OBJECTS">
	<g>
		<circle style="fill:#FFF5EC;" cx="247.489" cy="246.304" r="180.041"/>
		<g>
			<g>
				<path style="fill:#FFFFFF;" d="M365.59,99.77h-47.21c-1.787,0-3.235-1.448-3.235-3.235v-0.645c0-1.787,1.448-3.235,3.235-3.235
					h47.21c1.786,0,3.235,1.448,3.235,3.235v0.645C368.825,98.322,367.376,99.77,365.59,99.77z"/>
				<path style="fill:#FFFFFF;" d="M365.59,114.052h-47.21c-1.787,0-3.235-1.448-3.235-3.235v-0.645
					c0-1.787,1.448-3.235,3.235-3.235h47.21c1.786,0,3.235,1.448,3.235,3.235v0.645C368.825,112.604,367.376,114.052,365.59,114.052
					z"/>
				<path style="fill:#FFFFFF;" d="M399.115,127.433h-47.21c-1.787,0-3.235-1.448-3.235-3.235v-0.645
					c0-1.786,1.448-3.235,3.235-3.235h47.21c1.787,0,3.235,1.448,3.235,3.235v0.645C402.35,125.984,400.902,127.433,399.115,127.433
					z"/>
				<path style="fill:#FFFFFF;" d="M399.115,141.715h-47.21c-1.787,0-3.235-1.448-3.235-3.235v-0.645
					c0-1.787,1.448-3.235,3.235-3.235h47.21c1.787,0,3.235,1.448,3.235,3.235v0.645C402.35,140.266,400.902,141.715,399.115,141.715
					z"/>
			</g>
			<g>
				<path style="fill:#FFFFFF;" d="M120.793,137.692H81.198c-1.498,0-2.713-1.215-2.713-2.713v-0.541
					c0-1.498,1.215-2.713,2.713-2.713h39.595c1.498,0,2.713,1.215,2.713,2.713v0.541
					C123.506,136.477,122.291,137.692,120.793,137.692z"/>
				<path style="fill:#FFFFFF;" d="M120.793,149.67H81.198c-1.498,0-2.713-1.215-2.713-2.713v-0.541
					c0-1.498,1.215-2.713,2.713-2.713h39.595c1.498,0,2.713,1.215,2.713,2.713v0.541C123.506,148.456,122.291,149.67,120.793,149.67
					z"/>
				<path style="fill:#FFFFFF;" d="M148.911,160.892h-39.595c-1.498,0-2.713-1.215-2.713-2.713v-0.541
					c0-1.498,1.215-2.713,2.713-2.713h39.595c1.498,0,2.713,1.215,2.713,2.713v0.541
					C151.623,159.677,150.409,160.892,148.911,160.892z"/>
				<path style="fill:#FFFFFF;" d="M148.911,172.87h-39.595c-1.498,0-2.713-1.215-2.713-2.713v-0.541
					c0-1.498,1.215-2.713,2.713-2.713h39.595c1.498,0,2.713,1.215,2.713,2.713v0.541C151.623,171.656,150.409,172.87,148.911,172.87
					z"/>
			</g>
			<g>
				<path style="fill:#FFFFFF;" d="M390.684,304.963h-39.595c-1.498,0-2.713-1.215-2.713-2.713v-0.541
					c0-1.498,1.215-2.713,2.713-2.713h39.595c1.498,0,2.713,1.215,2.713,2.713v0.541
					C393.397,303.748,392.183,304.963,390.684,304.963z"/>
				<path style="fill:#FFFFFF;" d="M390.684,316.941h-39.595c-1.498,0-2.713-1.215-2.713-2.713v-0.541
					c0-1.498,1.215-2.713,2.713-2.713h39.595c1.498,0,2.713,1.215,2.713,2.713v0.541
					C393.397,315.727,392.183,316.941,390.684,316.941z"/>
				<path style="fill:#FFFFFF;" d="M418.802,328.163h-39.595c-1.498,0-2.713-1.215-2.713-2.713v-0.541
					c0-1.498,1.215-2.713,2.713-2.713h39.595c1.498,0,2.713,1.215,2.713,2.713v0.541C421.515,326.948,420.3,328.163,418.802,328.163
					z"/>
				<path style="fill:#FFFFFF;" d="M418.802,340.141h-39.595c-1.498,0-2.713-1.215-2.713-2.713v-0.541
					c0-1.498,1.215-2.713,2.713-2.713h39.595c1.498,0,2.713,1.215,2.713,2.713v0.541C421.515,338.927,420.3,340.141,418.802,340.141
					z"/>
			</g>
		</g>
		<g style="opacity:0.54;">
			<g>
				<g>
					<path style="fill:#FFBE13;" d="M153.817,129.294c-3.329,0-6.905-1.094-9.537-4.435c-2.902-3.682-4.034-9.273-2.884-14.241
						c0.867-3.746,2.909-6.563,5.751-7.931l0,0c12.618-6.076,18.633,2.849,20.633,6.968c3.566,7.341-2.877,15.617-5.928,17.524
						C160.202,128.209,157.132,129.294,153.817,129.294z M148.495,105.488c-1.975,0.951-3.42,3.022-4.07,5.831
						c-0.931,4.023-0.008,8.691,2.297,11.616c1.708,2.168,4.098,3.267,7.105,3.267c0.031,0,0.063,0,0.094,0
						c2.536-0.019,4.982-0.848,6.282-1.66c1.223-0.764,3.093-2.877,4.304-5.436c0.991-2.097,1.879-5.203,0.475-8.093
						C162.565,106.035,157.742,101.035,148.495,105.488L148.495,105.488z"/>
				</g>
				<g>
					<path style="fill:#FFBE13;" d="M158.529,125.86c0,0,1.369,5.13,2.855,5.711c1.648,0.644,6.989-3.365,6.275-4.793
						c-0.714-1.428-4.134-4.844-4.134-4.844L158.529,125.86z"/>
				</g>
				<g>
					<path style="fill:#FFBE13;" d="M161.127,125.957c-0.514,0-1.017-0.255-1.313-0.72l-6.238-9.802
						c-0.461-0.725-0.247-1.685,0.477-2.146c0.725-0.462,1.686-0.247,2.146,0.477l6.238,9.802c0.461,0.725,0.247,1.685-0.477,2.146
						C161.701,125.878,161.412,125.957,161.127,125.957z"/>
				</g>
				<g>
					
						<ellipse transform="matrix(0.7071 -0.7071 0.7071 0.7071 -35.6653 142.8004)" style="fill:#FFBE13;" cx="154.541" cy="114.452" rx="4.3" ry="4.3"/>
				</g>
			</g>
			<g>
				<path style="fill:#FFBE13;" d="M295.296,156.501c-0.88,0-1.763-0.115-2.642-0.347c-4.066-1.073-7.425-4.614-8.559-9.02
					c-1.011-3.928-0.145-8.339,2.318-11.801c2.426-3.41,6.122-5.483,10.408-5.836c4.695-0.382,8.135,3.05,9.103,6.645
					c0.998,3.708-0.527,7.135-3.886,8.732c-0.636,0.303-1.248,0.434-1.821,0.398c-0.239,1.575-0.933,3.026-2.517,3.719
					c-1.965,0.859-3.833,0.637-5.129-0.612c-1.945-1.876-1.961-5.389-0.971-7.891c1.034-2.617,3.106-4.2,5.543-4.235
					c0.009,0,0.017,0,0.026,0c0.944,0,1.717,0.759,1.731,1.706c0.001,0.129-0.011,0.255-0.035,0.376
					c0.302,0.177,0.553,0.447,0.705,0.79c0.209,0.469,0.388,0.928,0.556,1.357c0.156,0.399,0.353,0.905,0.515,1.221
					c2.611-1.304,2.146-3.891,1.939-4.661c-0.595-2.209-2.665-4.334-5.475-4.094c-4.167,0.343-6.58,2.578-7.871,4.392
					c-1.85,2.601-2.534,6.022-1.786,8.93c0.827,3.211,3.217,5.776,6.09,6.535c2.77,0.73,5.576-0.277,8.122-2.912
					c0.664-0.687,1.761-0.706,2.448-0.042c0.688,0.664,0.706,1.76,0.042,2.448C301.483,155.061,298.412,156.501,295.296,156.501z
					 M296.26,139.951c-0.774,0.407-1.219,1.25-1.441,1.811c-0.651,1.647-0.455,3.536,0.156,4.125
					c0.244,0.236,0.694,0.213,1.337-0.068c0.791-0.346,0.67-3.31,0.017-5.493C296.292,140.201,296.269,140.076,296.26,139.951z"/>
			</g>
			<g>
				<g>
					<path style="fill:#FFBE13;" d="M375.031,209.842c-0.222-0.051-0.445-0.112-0.672-0.185c-3.762-1.213-6.967-5.567-5.812-11.54
						c0.911-4.702,3.422-8.447,6.719-10.017c2.258-1.075,4.712-1.022,6.912,0.153c0.826,0.441,1.138,1.469,0.696,2.295
						c-0.442,0.827-1.471,1.138-2.296,0.697c-1.26-0.674-2.556-0.7-3.853-0.083c-2.295,1.092-4.152,4.004-4.848,7.599
						c-0.781,4.036,1.181,6.912,3.522,7.667c1.995,0.641,3.812-0.318,4.855-2.573c0.393-0.851,1.402-1.22,2.252-0.828
						c0.85,0.393,1.221,1.401,0.828,2.251C381.957,208.258,378.895,210.723,375.031,209.842z"/>
				</g>
				<g>
					<path style="fill:#FFBE13;" d="M391.928,187.136c-0.309,0.081-0.621,0.167-0.932,0.258c-0.125,0.034-0.249,0.069-0.374,0.103
						c-0.143-0.438-0.287-0.877-0.43-1.315c-0.439-1.288-2.449-0.667-2.023,0.636c0.142,0.416,0.261,0.834,0.382,1.252
						c-0.567,0.157-1.134,0.314-1.701,0.471c-1.499,0.415-1.116,2.974,0.484,2.744c0.618-0.089,1.236-0.178,1.854-0.267
						c0.119,0.39,0.249,0.781,0.406,1.174c0.282,0.707,1.221,0.845,1.701,0.437c0.133-0.063,0.252-0.152,0.315-0.289
						c0.262-0.572,0.206-1.126,0.053-1.679c0.299-0.041,0.592-0.083,0.864-0.125C395.015,190.179,394.378,186.495,391.928,187.136z"
						/>
				</g>
				<g>
					<path style="fill:#FFBE13;" d="M402.148,185.193c-0.309,0.081-0.621,0.167-0.932,0.258c-0.125,0.034-0.249,0.069-0.374,0.103
						c-0.143-0.438-0.287-0.877-0.43-1.315c-0.439-1.288-2.449-0.667-2.023,0.636c0.142,0.415,0.261,0.834,0.382,1.252
						c-0.567,0.157-1.134,0.314-1.701,0.471c-1.499,0.415-1.116,2.974,0.484,2.744c0.618-0.089,1.236-0.178,1.854-0.267
						c0.119,0.39,0.249,0.781,0.406,1.174c0.282,0.707,1.221,0.845,1.701,0.437c0.133-0.063,0.252-0.152,0.314-0.289
						c0.262-0.572,0.206-1.126,0.053-1.679c0.299-0.041,0.592-0.083,0.864-0.125C405.235,188.235,404.598,184.551,402.148,185.193z"
						/>
				</g>
			</g>
			<g>
				<g>
					<path style="fill:#FFBE13;" d="M335.415,346.654c-0.235,0-0.473-0.055-0.695-0.17c-0.744-0.385-1.035-1.3-0.65-2.044
						l9.933-19.204c0.385-0.745,1.3-1.034,2.044-0.65c0.744,0.385,1.035,1.3,0.65,2.044l-9.933,19.204
						C336.494,346.355,335.964,346.654,335.415,346.654z"/>
				</g>
				<g>
					<path style="fill:#FFBE13;" d="M330.119,342.681c-0.546,0-1.074-0.296-1.345-0.814l-5.629-10.761
						c-0.374-0.714-0.124-1.596,0.569-2.007l10.596-6.292c0.719-0.428,1.651-0.191,2.078,0.53c0.428,0.72,0.191,1.65-0.53,2.078
						l-9.36,5.558l4.962,9.487c0.389,0.742,0.101,1.659-0.64,2.047C330.597,342.625,330.356,342.681,330.119,342.681z"/>
				</g>
				<g>
					<path style="fill:#FFBE13;" d="M343.86,347.979c-0.593,0-1.156-0.35-1.399-0.931c-0.323-0.772,0.04-1.661,0.813-1.984
						l10.928-4.578l-3.99-11.23c-0.281-0.789,0.132-1.656,0.921-1.936c0.789-0.282,1.657,0.132,1.936,0.921l4.47,12.582
						c0.27,0.758-0.101,1.595-0.843,1.906l-12.251,5.132C344.254,347.941,344.056,347.979,343.86,347.979z"/>
				</g>
			</g>
			<g>
				<path style="fill:#FFBE13;" d="M107.108,293.218c-0.971-1.739-2.166-3.353-3.547-4.788c-1.076,0.962-2.152,1.923-3.228,2.885
					c-1.574-0.987-3.652-1.656-5.897-1.6c-0.06-1.422-0.247-2.839-0.572-4.225c-2.486-0.035-4.975,0.869-6.858,2.492
					c0.441,1.057,1.046,2.045,1.787,2.918c0.115,0.136,0.235,0.271,0.353,0.408c-0.082,0.05-0.164,0.096-0.245,0.149
					c-3.012,1.95-4.505,4.048-5.119,6.078c-0.914-0.161-1.827-0.327-2.744-0.47c-0.214-0.033-0.441-0.065-0.643,0.014
					c-0.201,0.078-0.348,0.256-0.448,0.448c-0.342,0.66-0.19,1.456-0.031,2.181c0.224,1.021,0.449,2.042,0.674,3.063
					c0.119,0.542,0.321,1.177,0.854,1.332c0.391,0.114,0.797-0.088,1.159-0.278c0.441-0.231,0.893-0.439,1.345-0.648
					c0.209,0.678,0.458,1.311,0.708,1.883c0.669,1.529,1.985,3.4,3.866,4.71c-0.77,0.64-1.54,1.28-2.311,1.92
					c0.55,0.286,1.099,0.571,1.649,0.857c1.821,0.946,3.739,1.916,5.79,1.883c0.36-1.008,0.632-2.047,0.815-3.102
					c1.052-0.112,2.174-0.409,3.364-0.951c1.645-0.747,2.876-1.871,3.785-3.19c0.704,0.427,1.362,0.928,1.949,1.505
					c0.074,0.073,0.166,0.153,0.268,0.133c0.087-0.017,0.143-0.1,0.188-0.176c0.441-0.733,0.882-1.465,1.324-2.198
					c0.729-1.211,1.131-2.208,1.478-3.578c-1.09-0.287-2.103-0.657-3.196-1.02c0.357-2.293,0.214-4.554-0.164-6.216
					c1.268-0.52,2.474-1.189,3.581-1.997c0.052-0.038,0.107-0.08,0.13-0.141C107.206,293.406,107.157,293.304,107.108,293.218z
					 M95.467,304.855c-3.072,1.398-5.124-0.834-5.779-2.328c-0.654-1.494-1.302-3.919,1.866-5.965
					c2.591-1.68,5.496-0.282,6.151,1.116C98.36,299.076,98.546,303.457,95.467,304.855z"/>
				<path style="fill:#FFBE13;" d="M125.428,300.996c-0.499-0.895-1.114-1.725-1.825-2.463c-0.554,0.495-1.107,0.989-1.66,1.484
					c-0.81-0.508-1.879-0.852-3.033-0.823c-0.031-0.732-0.127-1.46-0.294-2.173c-1.279-0.018-2.559,0.447-3.528,1.282
					c0.227,0.544,0.538,1.052,0.919,1.501c0.059,0.07,0.121,0.139,0.182,0.21c-0.042,0.026-0.084,0.05-0.126,0.077
					c-1.549,1.003-2.317,2.082-2.633,3.126c-0.47-0.083-0.94-0.168-1.411-0.242c-0.11-0.017-0.227-0.033-0.331,0.007
					c-0.103,0.04-0.179,0.132-0.23,0.23c-0.176,0.339-0.098,0.749-0.016,1.122c0.115,0.525,0.231,1.05,0.346,1.575
					c0.061,0.279,0.165,0.605,0.439,0.685c0.201,0.059,0.41-0.046,0.596-0.143c0.227-0.119,0.459-0.226,0.692-0.333
					c0.107,0.349,0.235,0.674,0.364,0.968c0.344,0.786,1.021,1.749,1.988,2.423c-0.396,0.329-0.792,0.658-1.189,0.988
					c0.283,0.147,0.566,0.294,0.848,0.441c0.937,0.487,1.923,0.986,2.978,0.969c0.186-0.518,0.325-1.053,0.419-1.596
					c0.541-0.058,1.118-0.211,1.73-0.489c0.846-0.384,1.479-0.962,1.947-1.641c0.362,0.22,0.701,0.477,1.003,0.774
					c0.038,0.038,0.085,0.079,0.138,0.069c0.045-0.009,0.073-0.051,0.097-0.09c0.227-0.377,0.454-0.754,0.681-1.131
					c0.375-0.623,0.582-1.136,0.76-1.841c-0.561-0.148-1.082-0.338-1.644-0.525c0.184-1.179,0.11-2.343-0.084-3.197
					c0.652-0.268,1.273-0.611,1.842-1.027c0.027-0.02,0.055-0.041,0.067-0.072C125.479,301.093,125.453,301.041,125.428,300.996z
					 M119.441,306.982c-1.58,0.719-2.636-0.429-2.972-1.198c-0.336-0.769-0.67-2.016,0.96-3.068
					c1.333-0.864,2.827-0.145,3.164,0.574C120.928,304.01,121.024,306.263,119.441,306.982z"/>
			</g>
			<g>
				<path style="fill:#FFBE13;" d="M408.996,250.208c-0.971-1.739-2.166-3.353-3.547-4.788c-1.076,0.962-2.152,1.923-3.228,2.885
					c-1.574-0.987-3.653-1.656-5.897-1.6c-0.06-1.422-0.247-2.839-0.572-4.225c-2.486-0.035-4.975,0.869-6.858,2.492
					c0.441,1.057,1.046,2.045,1.787,2.918c0.115,0.136,0.235,0.271,0.353,0.408c-0.082,0.05-0.164,0.096-0.245,0.149
					c-3.012,1.95-4.505,4.048-5.119,6.078c-0.914-0.161-1.827-0.327-2.744-0.47c-0.214-0.033-0.441-0.065-0.643,0.014
					c-0.201,0.078-0.348,0.256-0.448,0.448c-0.342,0.66-0.19,1.456-0.031,2.181c0.224,1.021,0.449,2.042,0.674,3.063
					c0.119,0.542,0.32,1.177,0.854,1.332c0.391,0.114,0.797-0.089,1.158-0.278c0.441-0.231,0.893-0.439,1.345-0.648
					c0.209,0.678,0.458,1.311,0.708,1.883c0.669,1.529,1.985,3.4,3.866,4.71c-0.77,0.64-1.54,1.28-2.311,1.92
					c0.55,0.286,1.099,0.571,1.649,0.857c1.821,0.946,3.739,1.916,5.79,1.883c0.361-1.008,0.632-2.047,0.815-3.102
					c1.052-0.112,2.174-0.409,3.364-0.951c1.645-0.747,2.876-1.871,3.785-3.19c0.703,0.427,1.362,0.928,1.949,1.505
					c0.074,0.073,0.166,0.153,0.268,0.133c0.087-0.017,0.143-0.1,0.188-0.176c0.441-0.733,0.882-1.465,1.324-2.198
					c0.729-1.211,1.131-2.208,1.478-3.578c-1.09-0.287-2.103-0.657-3.196-1.02c0.357-2.293,0.214-4.554-0.164-6.216
					c1.268-0.52,2.474-1.189,3.581-1.997c0.052-0.038,0.107-0.08,0.13-0.141C409.094,250.397,409.045,250.295,408.996,250.208z
					 M397.355,261.845c-3.072,1.398-5.124-0.834-5.779-2.328c-0.654-1.494-1.302-3.919,1.866-5.965
					c2.591-1.68,5.496-0.282,6.151,1.116C400.248,256.067,400.434,260.447,397.355,261.845z"/>
				<path style="fill:#FFBE13;" d="M427.316,257.987c-0.499-0.895-1.114-1.724-1.825-2.463c-0.554,0.495-1.107,0.989-1.66,1.484
					c-0.81-0.508-1.879-0.852-3.033-0.823c-0.031-0.731-0.127-1.46-0.294-2.173c-1.279-0.018-2.559,0.447-3.528,1.282
					c0.227,0.544,0.538,1.052,0.919,1.501c0.059,0.07,0.121,0.139,0.182,0.21c-0.042,0.026-0.084,0.05-0.126,0.077
					c-1.549,1.003-2.317,2.082-2.633,3.126c-0.47-0.083-0.94-0.168-1.411-0.242c-0.11-0.017-0.227-0.033-0.331,0.007
					c-0.103,0.04-0.179,0.132-0.23,0.23c-0.176,0.339-0.098,0.749-0.016,1.122c0.115,0.525,0.231,1.05,0.346,1.575
					c0.061,0.279,0.165,0.605,0.439,0.685c0.201,0.059,0.41-0.045,0.596-0.143c0.227-0.119,0.459-0.226,0.692-0.333
					c0.107,0.349,0.236,0.674,0.364,0.968c0.344,0.786,1.021,1.749,1.988,2.422c-0.396,0.329-0.792,0.658-1.189,0.988
					c0.283,0.147,0.566,0.294,0.848,0.441c0.937,0.487,1.923,0.986,2.978,0.969c0.185-0.518,0.325-1.053,0.419-1.596
					c0.541-0.058,1.118-0.211,1.73-0.489c0.846-0.384,1.479-0.962,1.947-1.641c0.362,0.22,0.701,0.477,1.003,0.774
					c0.038,0.038,0.085,0.079,0.138,0.069c0.045-0.009,0.073-0.051,0.097-0.09c0.227-0.377,0.454-0.754,0.681-1.131
					c0.375-0.623,0.582-1.136,0.76-1.841c-0.561-0.148-1.082-0.338-1.644-0.525c0.184-1.179,0.11-2.343-0.084-3.197
					c0.652-0.268,1.273-0.611,1.842-1.027c0.027-0.02,0.055-0.041,0.067-0.072C427.367,258.084,427.341,258.032,427.316,257.987z
					 M421.329,263.973c-1.58,0.719-2.636-0.429-2.972-1.198c-0.336-0.769-0.67-2.016,0.96-3.068
					c1.333-0.864,2.827-0.145,3.164,0.574C422.816,261,422.912,263.254,421.329,263.973z"/>
			</g>
			<g>
				<g>
					<g>
						<path style="fill:#FFBE13;" d="M79.729,239.176c-0.18,0-0.364-0.008-0.552-0.025c-3.12-0.274-6.363-3.072-6.524-7.888
							c-0.126-3.793,1.153-7.128,3.424-8.923c1.555-1.229,3.462-1.619,5.365-1.1c0.716,0.195,1.138,0.934,0.943,1.65
							c-0.195,0.716-0.934,1.138-1.65,0.943c-1.091-0.297-2.098-0.091-2.992,0.616c-1.58,1.249-2.501,3.826-2.404,6.725
							c0.109,3.255,2.131,5.131,4.073,5.301c1.657,0.145,2.889-0.918,3.296-2.844c0.153-0.726,0.864-1.191,1.593-1.037
							c0.726,0.154,1.19,0.867,1.036,1.593C84.8,236.731,82.869,239.175,79.729,239.176z"/>
					</g>
					<g>
						<path style="fill:#FFBE13;" d="M89.122,221.726c-1.417-0.246-2.628,0.906-2.386,2.341c0.221,1.311,1.898,1.918,3.008,1.333
							c0.189-0.099,0.358-0.246,0.495-0.417c0.255-0.18,0.457-0.44,0.56-0.761C91.158,223.109,90.212,221.916,89.122,221.726z"/>
					</g>
					<g>
						<g>
							<polygon style="fill:#FFBE13;" points="90.582,230.363 90.581,230.357 90.578,230.36 							"/>
						</g>
						<g>
							<path style="fill:#FFBE13;" d="M92.52,230.412c-0.073-0.218-0.183-0.399-0.329-0.548c-0.261-0.587-0.819-0.994-1.454-1.08
								c-0.719-0.097-1.447,0.207-1.826,0.846c-0.342,0.578-0.373,1.269-0.114,1.881c0.358,0.848,1.224,1.286,2.119,1.166
								C91.879,232.548,92.857,231.413,92.52,230.412z"/>
						</g>
					</g>
				</g>
				<g>
					<path style="fill:#FFBE13;" d="M97.953,234.665c-0.687,0-1.272-0.523-1.336-1.22l-1.713-18.579
						c-0.068-0.739,0.476-1.393,1.215-1.461c0.743-0.071,1.393,0.476,1.461,1.215l1.713,18.579c0.068,0.739-0.476,1.393-1.215,1.461
						C98.036,234.664,97.994,234.665,97.953,234.665z"/>
				</g>
			</g>
		</g>
		<g>
			<g>
				<g>
					<path style="fill:#D2D2D2;" d="M93.11,336.33c-1.37,0-2.505-1.11-2.505-2.48c0-1.37,1.086-2.48,2.455-2.48h0.05
						c1.37,0,2.48,1.11,2.48,2.48C95.59,335.22,94.48,336.33,93.11,336.33z"/>
				</g>
				<g>
					<path style="fill:#D2D2D2;" d="M151.619,336.33c-1.37,0-2.528-1.11-2.528-2.48c0-1.37,1.062-2.48,2.432-2.48h0.097
						c1.37,0,2.48,1.11,2.48,2.48C154.099,335.22,152.989,336.33,151.619,336.33z M141.868,336.33c-1.37,0-2.528-1.11-2.528-2.48
						c0-1.37,1.062-2.48,2.432-2.48h0.096c1.37,0,2.48,1.11,2.48,2.48C144.348,335.22,143.237,336.33,141.868,336.33z
						 M132.116,336.33c-1.37,0-2.528-1.11-2.528-2.48c0-1.37,1.062-2.48,2.432-2.48h0.096c1.37,0,2.48,1.11,2.48,2.48
						C134.596,335.22,133.486,336.33,132.116,336.33z M122.365,336.33c-1.37,0-2.528-1.11-2.528-2.48c0-1.37,1.062-2.48,2.432-2.48
						h0.097c1.37,0,2.48,1.11,2.48,2.48C124.844,335.22,123.734,336.33,122.365,336.33z M112.613,336.33
						c-1.37,0-2.528-1.11-2.528-2.48c0-1.37,1.062-2.48,2.432-2.48h0.096c1.37,0,2.48,1.11,2.48,2.48
						C115.093,335.22,113.983,336.33,112.613,336.33z M102.861,336.33c-1.37,0-2.528-1.11-2.528-2.48c0-1.37,1.062-2.48,2.432-2.48
						h0.096c1.37,0,2.48,1.11,2.48,2.48C105.341,335.22,104.231,336.33,102.861,336.33z"/>
				</g>
				<g>
					<path style="fill:#D2D2D2;" d="M161.324,336.33c-1.37,0-2.505-1.11-2.505-2.48c0-1.37,1.085-2.48,2.455-2.48h0.049
						c1.37,0,2.48,1.11,2.48,2.48C163.803,335.22,162.693,336.33,161.324,336.33z"/>
				</g>
			</g>
			<g>
				<g>
					<path style="fill:#D2D2D2;" d="M379.307,169.375c-1.37,0-2.505-1.11-2.505-2.48c0-1.37,1.085-2.48,2.455-2.48h0.05
						c1.37,0,2.48,1.11,2.48,2.48C381.787,168.265,380.677,169.375,379.307,169.375z"/>
				</g>
				<g>
					<path style="fill:#D2D2D2;" d="M437.815,169.375c-1.37,0-2.528-1.11-2.528-2.48c0-1.37,1.063-2.48,2.432-2.48h0.096
						c1.37,0,2.48,1.11,2.48,2.48C440.295,168.265,439.185,169.375,437.815,169.375z M428.064,169.375
						c-1.37,0-2.528-1.11-2.528-2.48c0-1.37,1.062-2.48,2.432-2.48h0.097c1.37,0,2.48,1.11,2.48,2.48
						C430.544,168.265,429.434,169.375,428.064,169.375z M418.313,169.375c-1.37,0-2.528-1.11-2.528-2.48
						c0-1.37,1.062-2.48,2.432-2.48h0.097c1.37,0,2.48,1.11,2.48,2.48C420.793,168.265,419.683,169.375,418.313,169.375z
						 M408.561,169.375c-1.37,0-2.528-1.11-2.528-2.48c0-1.37,1.063-2.48,2.433-2.48h0.096c1.37,0,2.48,1.11,2.48,2.48
						C411.041,168.265,409.93,169.375,408.561,169.375z M398.809,169.375c-1.37,0-2.528-1.11-2.528-2.48
						c0-1.37,1.062-2.48,2.431-2.48h0.097c1.37,0,2.48,1.11,2.48,2.48C401.289,168.265,400.179,169.375,398.809,169.375z
						 M389.058,169.375c-1.37,0-2.528-1.11-2.528-2.48c0-1.37,1.062-2.48,2.432-2.48h0.097c1.37,0,2.48,1.11,2.48,2.48
						C391.538,168.265,390.428,169.375,389.058,169.375z"/>
				</g>
				<g>
					<path style="fill:#D2D2D2;" d="M447.52,169.375c-1.37,0-2.505-1.11-2.505-2.48c0-1.37,1.086-2.48,2.456-2.48h0.049
						c1.37,0,2.48,1.11,2.48,2.48C450,168.265,448.89,169.375,447.52,169.375z"/>
				</g>
			</g>
			<g>
				<g>
					<path style="fill:#D2D2D2;" d="M52.505,186.245c-1.37,0-2.505-1.11-2.505-2.48c0-1.37,1.086-2.48,2.455-2.48h0.049
						c1.37,0,2.48,1.11,2.48,2.48C54.985,185.135,53.874,186.245,52.505,186.245z"/>
				</g>
				<g>
					<path style="fill:#D2D2D2;" d="M111.014,186.245c-1.37,0-2.528-1.11-2.528-2.48c0-1.37,1.062-2.48,2.432-2.48h0.097
						c1.37,0,2.48,1.11,2.48,2.48C113.494,185.135,112.384,186.245,111.014,186.245z M101.262,186.245
						c-1.37,0-2.528-1.11-2.528-2.48c0-1.37,1.062-2.48,2.432-2.48h0.096c1.37,0,2.48,1.11,2.48,2.48
						C103.742,185.135,102.632,186.245,101.262,186.245z M91.511,186.245c-1.37,0-2.528-1.11-2.528-2.48
						c0-1.37,1.062-2.48,2.432-2.48h0.096c1.37,0,2.48,1.11,2.48,2.48C93.99,185.135,92.88,186.245,91.511,186.245z M81.759,186.245
						c-1.37,0-2.528-1.11-2.528-2.48c0-1.37,1.062-2.48,2.432-2.48h0.097c1.37,0,2.48,1.11,2.48,2.48
						C84.239,185.135,83.129,186.245,81.759,186.245z M72.008,186.245c-1.37,0-2.528-1.11-2.528-2.48c0-1.37,1.062-2.48,2.432-2.48
						h0.096c1.37,0,2.48,1.11,2.48,2.48C74.488,185.135,73.377,186.245,72.008,186.245z M62.256,186.245
						c-1.37,0-2.528-1.11-2.528-2.48c0-1.37,1.062-2.48,2.432-2.48h0.096c1.37,0,2.48,1.11,2.48,2.48
						C64.736,185.135,63.626,186.245,62.256,186.245z"/>
				</g>
				<g>
					<path style="fill:#D2D2D2;" d="M120.719,186.245c-1.37,0-2.505-1.11-2.505-2.48c0-1.37,1.086-2.48,2.455-2.48h0.049
						c1.37,0,2.48,1.11,2.48,2.48C123.199,185.135,122.088,186.245,120.719,186.245z"/>
				</g>
			</g>
		</g>
		<g>
			<g>
				<path style="fill:#EDDCCE;" d="M439.722,211.822c-3.029,0-5.493-2.464-5.493-5.494c0-3.03,2.464-5.494,5.493-5.494
					c3.03,0,5.494,2.464,5.494,5.494C445.216,209.358,442.752,211.822,439.722,211.822z M439.722,203.473
					c-1.574,0-2.854,1.281-2.854,2.855c0,1.574,1.281,2.855,2.854,2.855c1.574,0,2.855-1.281,2.855-2.855
					C442.577,204.754,441.297,203.473,439.722,203.473z"/>
			</g>
			<g>
				<path style="fill:#EDDCCE;" d="M317.033,80.366c-3.029,0-5.493-2.464-5.493-5.494s2.464-5.494,5.493-5.494
					c3.03,0,5.494,2.464,5.494,5.494S320.063,80.366,317.033,80.366z M317.033,72.017c-1.574,0-2.854,1.281-2.854,2.855
					s1.281,2.855,2.854,2.855c1.574,0,2.855-1.281,2.855-2.855S318.608,72.017,317.033,72.017z"/>
			</g>
			<g>
				<path style="fill:#EDDCCE;" d="M239.945,98.204c-3.03,0-5.494-2.464-5.494-5.494c0-3.029,2.464-5.493,5.494-5.493
					c3.029,0,5.493,2.464,5.493,5.493C245.439,95.74,242.974,98.204,239.945,98.204z M239.945,89.855
					c-1.574,0-2.855,1.281-2.855,2.855c0,1.574,1.281,2.855,2.855,2.855c1.574,0,2.855-1.281,2.855-2.855
					C242.8,91.136,241.519,89.855,239.945,89.855z"/>
			</g>
			<g>
				<path style="fill:#EDDCCE;" d="M127.687,114.973c-3.029,0-5.493-2.464-5.493-5.494c0-3.029,2.464-5.494,5.493-5.494
					c3.03,0,5.494,2.464,5.494,5.494C133.181,112.509,130.717,114.973,127.687,114.973z M127.687,106.625
					c-1.574,0-2.855,1.281-2.855,2.855c0,1.574,1.281,2.855,2.855,2.855c1.574,0,2.855-1.281,2.855-2.855
					C130.543,107.905,129.262,106.625,127.687,106.625z"/>
			</g>
			<g>
				<path style="fill:#EDDCCE;" d="M70.056,312.826c-3.03,0-5.494-2.464-5.494-5.493c0-3.029,2.464-5.494,5.494-5.494
					c3.029,0,5.493,2.464,5.493,5.494C75.549,310.362,73.085,312.826,70.056,312.826z M70.056,304.478
					c-1.575,0-2.855,1.281-2.855,2.855c0,1.574,1.281,2.854,2.855,2.854c1.574,0,2.855-1.281,2.855-2.854
					C72.911,305.759,71.63,304.478,70.056,304.478z"/>
			</g>
			<g>
				<path style="fill:#EDDCCE;" d="M143.315,370.558c-3.03,0-5.494-2.464-5.494-5.494c0-3.03,2.464-5.494,5.494-5.494
					c3.03,0,5.494,2.464,5.494,5.494C148.809,368.093,146.345,370.558,143.315,370.558z M143.315,362.209
					c-1.575,0-2.855,1.281-2.855,2.855c0,1.575,1.281,2.855,2.855,2.855c1.574,0,2.855-1.281,2.855-2.855
					C146.171,363.489,144.89,362.209,143.315,362.209z"/>
			</g>
			<g>
				<path style="fill:#EDDCCE;" d="M426.786,293.228c-3.03,0-5.494-2.464-5.494-5.494c0-3.03,2.464-5.494,5.494-5.494
					c3.029,0,5.493,2.464,5.493,5.494C432.279,290.764,429.815,293.228,426.786,293.228z M426.786,284.879
					c-1.575,0-2.855,1.281-2.855,2.855c0,1.574,1.281,2.855,2.855,2.855c1.574,0,2.854-1.281,2.854-2.855
					C429.641,286.16,428.36,284.879,426.786,284.879z"/>
			</g>
			<g>
				<path style="fill:#EDDCCE;" d="M188.505,247.465c-3.029,0-5.494-2.464-5.494-5.494c0-3.029,2.464-5.493,5.494-5.493
					c3.03,0,5.494,2.464,5.494,5.493C193.999,245,191.534,247.465,188.505,247.465z M188.505,239.116
					c-1.574,0-2.855,1.281-2.855,2.854c0,1.574,1.281,2.855,2.855,2.855c1.574,0,2.855-1.281,2.855-2.855
					C191.36,240.397,190.079,239.116,188.505,239.116z"/>
			</g>
			<g>
				<path style="fill:#EDDCCE;" d="M119.336,205.486c-3.029,0-5.494-2.464-5.494-5.494s2.464-5.494,5.494-5.494
					c3.03,0,5.494,2.464,5.494,5.494S122.365,205.486,119.336,205.486z M119.336,197.137c-1.574,0-2.855,1.281-2.855,2.855
					c0,1.574,1.281,2.855,2.855,2.855c1.574,0,2.855-1.281,2.855-2.855C122.191,198.417,120.91,197.137,119.336,197.137z"/>
			</g>
			<path style="fill:#EDDCCE;" d="M185.249,83.979h-1.995v-1.994c0-0.729-0.591-1.319-1.319-1.319c-0.729,0-1.319,0.591-1.319,1.319
				v1.994h-1.994c-0.729,0-1.319,0.591-1.319,1.319c0,0.729,0.591,1.319,1.319,1.319h1.994v1.995c0,0.729,0.591,1.319,1.319,1.319
				c0.729,0,1.319-0.591,1.319-1.319v-1.995h1.995c0.729,0,1.319-0.591,1.319-1.319C186.568,84.569,185.978,83.979,185.249,83.979z"
				/>
			<path style="fill:#EDDCCE;" d="M62.731,239.936h-1.995v-1.995c0-0.729-0.591-1.319-1.319-1.319c-0.729,0-1.319,0.591-1.319,1.319
				v1.995h-1.995c-0.729,0-1.319,0.591-1.319,1.319c0,0.729,0.591,1.319,1.319,1.319h1.995v1.995c0,0.729,0.591,1.319,1.319,1.319
				c0.729,0,1.319-0.591,1.319-1.319v-1.995h1.995c0.729,0,1.319-0.591,1.319-1.319C64.051,240.526,63.46,239.936,62.731,239.936z"
				/>
			<path style="fill:#EDDCCE;" d="M377.627,364.017h-1.995v-1.994c0-0.729-0.591-1.319-1.319-1.319
				c-0.729,0-1.319,0.591-1.319,1.319v1.994h-1.994c-0.729,0-1.319,0.591-1.319,1.319c0,0.729,0.591,1.319,1.319,1.319h1.994v1.995
				c0,0.729,0.591,1.319,1.319,1.319c0.729,0,1.319-0.591,1.319-1.319v-1.995h1.995c0.729,0,1.319-0.591,1.319-1.319
				C378.946,364.607,378.356,364.017,377.627,364.017z"/>
			<path style="fill:#EDDCCE;" d="M323.605,249.292h-1.995v-1.995c0-0.729-0.591-1.319-1.319-1.319
				c-0.729,0-1.319,0.591-1.319,1.319v1.995h-1.995c-0.729,0-1.319,0.591-1.319,1.319c0,0.729,0.591,1.319,1.319,1.319h1.995v1.995
				c0,0.729,0.591,1.319,1.319,1.319c0.729,0,1.319-0.591,1.319-1.319v-1.995h1.995c0.729,0,1.319-0.591,1.319-1.319
				C324.925,249.882,324.334,249.292,323.605,249.292z"/>
			<path style="fill:#EDDCCE;" d="M124.67,255.156h-1.995v-1.995c0-0.729-0.591-1.319-1.319-1.319c-0.729,0-1.319,0.591-1.319,1.319
				v1.995h-1.995c-0.729,0-1.319,0.591-1.319,1.319c0,0.729,0.591,1.319,1.319,1.319h1.995v1.995c0,0.729,0.591,1.319,1.319,1.319
				c0.729,0,1.319-0.591,1.319-1.319v-1.995h1.995c0.729,0,1.319-0.591,1.319-1.319C125.989,255.746,125.399,255.156,124.67,255.156
				z"/>
			<path style="fill:#EDDCCE;" d="M75.321,143.917h-1.995v-1.995c0-0.729-0.591-1.319-1.319-1.319c-0.729,0-1.319,0.591-1.319,1.319
				v1.995h-1.995c-0.729,0-1.319,0.591-1.319,1.319s0.591,1.319,1.319,1.319h1.995v1.995c0,0.729,0.591,1.319,1.319,1.319
				c0.729,0,1.319-0.591,1.319-1.319v-1.995h1.995c0.729,0,1.319-0.591,1.319-1.319S76.049,143.917,75.321,143.917z"/>
			<path style="fill:#EDDCCE;" d="M286.776,108h-1.995v-1.994c0-0.729-0.591-1.319-1.319-1.319s-1.319,0.591-1.319,1.319V108h-1.995
				c-0.729,0-1.319,0.591-1.319,1.319c0,0.729,0.591,1.319,1.319,1.319h1.995v1.995c0,0.729,0.591,1.319,1.319,1.319
				s1.319-0.591,1.319-1.319v-1.995h1.995c0.729,0,1.319-0.591,1.319-1.319C288.096,108.591,287.505,108,286.776,108z"/>
			<path style="fill:#EDDCCE;" d="M348.239,157.003h-1.995v-1.994c0-0.729-0.591-1.319-1.319-1.319
				c-0.729,0-1.319,0.591-1.319,1.319v1.994h-1.994c-0.729,0-1.319,0.591-1.319,1.319c0,0.729,0.591,1.319,1.319,1.319h1.994v1.995
				c0,0.729,0.591,1.319,1.319,1.319c0.729,0,1.319-0.591,1.319-1.319v-1.995h1.995c0.729,0,1.319-0.591,1.319-1.319
				C349.559,157.594,348.968,157.003,348.239,157.003z"/>
			<path style="fill:#EDDCCE;" d="M431.394,110.752h-1.995v-1.995c0-0.729-0.591-1.319-1.319-1.319
				c-0.729,0-1.319,0.591-1.319,1.319v1.995h-1.994c-0.729,0-1.319,0.591-1.319,1.319s0.591,1.319,1.319,1.319h1.994v1.995
				c0,0.729,0.591,1.319,1.319,1.319c0.729,0,1.319-0.591,1.319-1.319v-1.995h1.995c0.729,0,1.319-0.591,1.319-1.319
				S432.122,110.752,431.394,110.752z"/>
		</g>
		<g>
			<path style="fill:#FFC9AE;" d="M218.035,268.629c-43.711,36.739-68.426-13.12-58.591-38.883c0,0,12.749,7.315,13.338-1.295
				c0.588-8.61-8.022-2.508-11.7-5.766s-2.291-7.696,1.092-8.809c3.383-1.113,4.913,0,5.607,4.257
				c0.624,3.834,6.609,4.301,7.933,1.064c1.324-3.236,0.487-13.839-14.959-14.28c-0.441-2.206,4.477-20.552-3.931-20.442
				c-6.708,0.088-4.078,14.771-3.931,18.889c-2.354-6.914-2.657-18.489-9.718-14.959c-7.061,3.53,4.04,19.108,4.04,19.108
				s-7.568-12.829-12.12-6.879c-3.276,4.282,0.874,8.189,6.796,12.489c4.583,3.328,1.865,13.011,1.177,16.621
				c-2.207,11.576-8.903,57.177,26.625,71.735c18.535,7.595,37.772,1.324,37.772,1.324L218.035,268.629z"/>
			<path style="fill:#FFB890;" d="M218.036,268.625l-10.574,34.184c0,0-19.234,6.269-37.765-1.329
				c-29.323-12.013-29.888-45.165-27.944-62.891c-0.288,18.203,4.196,42.834,28.589,52.823c18.53,7.599,37.775,1.329,37.775,1.329
				l6.646-21.496C215.834,270.43,216.935,269.557,218.036,268.625z"/>
			<path style="fill:#FFC9AE;" d="M281.965,268.629c43.711,36.739,68.426-13.12,58.591-38.883c0,0-12.749,7.315-13.338-1.295
				c-0.588-8.61,8.022-2.508,11.7-5.766s2.291-7.696-1.092-8.809c-3.383-1.113-4.913,0-5.607,4.257
				c-0.624,3.834-6.609,4.301-7.933,1.064c-1.324-3.236-0.487-13.839,14.959-14.28c0.441-2.206-4.477-20.552,3.931-20.442
				c6.708,0.088,4.078,14.771,3.931,18.889c2.354-6.914,2.657-18.489,9.718-14.959c7.061,3.53-4.04,19.108-4.04,19.108
				s7.568-12.829,12.12-6.879c3.276,4.282-0.874,8.189-6.796,12.489c-4.583,3.328-1.865,13.011-1.177,16.621
				c2.207,11.576,8.903,57.177-26.625,71.735c-18.535,7.595-37.772,1.324-37.772,1.324L281.965,268.629z"/>
			<path style="fill:#FFB890;" d="M281.999,268.625l10.574,34.184c0,0,19.234,6.269,37.765-1.329
				c29.323-12.013,29.888-45.165,27.944-62.891c0.288,18.203-4.196,42.834-28.589,52.823c-18.53,7.599-37.775,1.329-37.775,1.329
				l-6.646-21.496C284.201,270.43,283.1,269.557,281.999,268.625z"/>
			<path style="fill:#363636;" d="M303.321,276.301c-5.12-0.691-19.145-6.861-24.437-10.09
				c-13.043-10.309-43.415-10.963-56.686-0.974c-1.232,0.927-20.769,11.585-25.987,11.064c-4.239-0.423-5.54,34.833,0,36.368
				c2.014,0.558,3.926,0.947,5.55,1.218c-0.726,23.102-1.355,58.862,2.761,63.481c4.998,5.609,85.862,5.609,90.861,0
				c4.134-4.639,3.331-40.487,2.549-63.509c1.589-0.27,3.441-0.65,5.39-1.19C308.861,311.135,307.543,276.871,303.321,276.301z"/>
			<path style="fill:#FFB890;" d="M259.522,252.157h-19.139c0,11.691-1.071,17.537,9.569,17.537
				C260.593,269.693,259.522,263.848,259.522,252.157z"/>
			<path style="fill:#073D4C;" d="M355.282,392.63c-4.545-18.629-35.313-24.127-51.865-23.821H199.176
				c-16.552-0.305-47.32,5.192-51.865,23.821c-4.495,18.425,0.789,53.572,103.986,33.657
				C354.493,446.202,359.777,411.055,355.282,392.63z"/>
			<path style="fill:#074559;" d="M355.282,392.28c5.298,18.863-0.891,54.831-107.435,33.268c0,0,3.157-20.33-1.697-34.191
				C308.094,369.087,351.059,377.245,355.282,392.28z"/>
			<path style="fill:#073D4C;" d="M247.845,425.546c0,0,0.337-2.152,0.625-5.535c95.647,18.947,108.999-9.156,106.578-28.45
				c0.089,0.238,0.169,0.476,0.238,0.714C360.584,411.143,354.394,447.112,247.845,425.546z"/>
			<g>
				<path style="fill:#FFBE13;" d="M290.303,432.144c-3.073,0.295-6.859,0.16-10.94-0.241c-15.477-1.514-35.082-6.854-35.082-6.854
					l10.802-28.563c0,0,14.939-0.641,26.975-0.542c5.974,0.053,11.234,0.289,13.601,0.871
					C306.084,399.397,306.447,430.573,290.303,432.144z"/>
				<path style="fill:#919191;" d="M254.879,404.342c0.4,0.042,24.195,0.793,23.491,1.128c-0.705,0.335-1.606,15.127-1.606,15.127
					s-24.1-3.377-23.843-3.76C253.178,416.454,254.879,404.342,254.879,404.342z"/>
				<path style="fill:#FFFFFF;" d="M290.303,432.144c-3.073,0.295-6.859,0.16-10.94-0.241c-3.261-4.776-4.925-11.755-4.126-19.287
					c0.716-6.75,3.279-12.651,6.821-16.673c5.974,0.053,11.234,0.289,13.601,0.871C306.084,399.397,306.447,430.573,290.303,432.144
					z"/>
				<path style="fill:#D1D1D1;" d="M290.303,432.144c-1.843,0.184-3.951,0.202-6.224,0.106c0.423-0.028,0.829-0.057,1.221-0.096
					c16.15-1.562,15.781-32.747,5.356-35.33c-2.516-0.622-6.437-0.877-8.597-0.877c4.786,0,10.448,0.089,13.601,0.867
					C306.084,399.397,306.447,430.573,290.303,432.144z"/>
				<g>
					<g>
						<path style="fill:#D1D1D1;" d="M274.24,423.496c-0.649,0-1.246-0.428-1.431-1.084c-1.228-4.352-0.503-9.817,0.403-13.865
							c-1.771,3.117-3.382,7.755-2.858,12.193c0.097,0.816-0.486,1.556-1.303,1.652c-0.821,0.106-1.556-0.486-1.652-1.303
							c-0.954-8.066,4.376-18.487,8.573-19.197c0.52-0.091,1.05,0.107,1.389,0.512c0.34,0.406,0.438,0.962,0.259,1.46
							c-0.04,0.108-3.88,10.896-1.948,17.741c0.224,0.79-0.236,1.613-1.028,1.836C274.51,423.479,274.374,423.496,274.24,423.496z"
							/>
					</g>
					<g>
						<path style="fill:#D1D1D1;" d="M262.85,421.762c-0.744,0-1.386-0.556-1.475-1.314c-0.954-8.066,4.376-18.487,8.573-19.197
							c0.805-0.139,1.577,0.408,1.715,1.219c0.138,0.81-0.408,1.578-1.219,1.715c-1.755,0.297-7.004,8.394-6.115,15.915
							c0.097,0.816-0.486,1.556-1.303,1.652C262.968,421.759,262.909,421.762,262.85,421.762z"/>
					</g>
					<g>
						<path style="fill:#D1D1D1;" d="M256.827,421.123c-0.744,0-1.386-0.556-1.475-1.314c-0.954-8.065,4.375-18.486,8.572-19.198
							c0.816-0.138,1.578,0.409,1.716,1.218c0.138,0.81-0.408,1.578-1.218,1.716c-1.756,0.298-7.005,8.396-6.116,15.916
							c0.097,0.816-0.486,1.556-1.303,1.652C256.944,421.12,256.885,421.123,256.827,421.123z"/>
					</g>
				</g>
				<g>
					<g>
						<path style="fill:#FFFFFF;" d="M274.296,422.977c-0.184,0-0.37-0.034-0.551-0.106c-3.954-1.578-6.978-12.886-4.352-20.571
							c0.265-0.778,1.109-1.196,1.889-0.926c0.777,0.265,1.193,1.111,0.926,1.889c-2.448,7.165,0.984,16.184,2.639,16.843
							c0.763,0.305,1.135,1.17,0.831,1.934C275.446,422.622,274.887,422.977,274.296,422.977z"/>
					</g>
					<g>
						<path style="fill:#FFFFFF;" d="M268.272,422.338c-0.184,0-0.37-0.034-0.551-0.106c-3.954-1.578-6.978-12.886-4.352-20.571
							c0.265-0.778,1.11-1.194,1.889-0.926c0.777,0.265,1.193,1.111,0.926,1.889c-2.448,7.165,0.984,16.184,2.639,16.843
							c0.763,0.305,1.135,1.17,0.831,1.934C269.422,421.983,268.863,422.338,268.272,422.338z"/>
					</g>
					<g>
						<path style="fill:#FFFFFF;" d="M262.248,421.698c-0.184,0-0.37-0.034-0.551-0.106c-3.954-1.578-6.978-12.886-4.352-20.571
							c0.265-0.778,1.111-1.194,1.889-0.926c0.777,0.265,1.192,1.111,0.926,1.889c-2.448,7.165,0.984,16.184,2.639,16.843
							c0.763,0.305,1.135,1.17,0.831,1.934C263.398,421.344,262.839,421.698,262.248,421.698z"/>
					</g>
				</g>
			</g>
			<path style="fill:#C9C9C9;" d="M300.069,381.575c-5.04,4.105-94.621,4.718-100.346,0c-5.725-4.718-12.173-76.127-8.744-79.556
				c3.429-3.429,113.084-3.118,117.835,0S305.109,377.47,300.069,381.575z"/>
			<path style="opacity:0.21;fill:#C9C9C9;" d="M304.328,367.337c-1.458,7.678-2.966,13.183-4.256,14.235
				c-5.039,4.107-94.625,4.722-100.349,0c-5.724-4.712-12.172-76.125-8.749-79.557c0.476-0.466,5.556,46.428,20.223,59.118
				C236.884,383.356,286.237,377.872,304.328,367.337z"/>
			<g>
				<path style="fill:#FFFFFF;" d="M264.796,342.226c0,9.727-6.377,14.678-14.679,14.678c-8.301,0-14.679-4.286-14.679-14.678
					s6.572-14.679,14.679-14.679C258.224,327.547,264.796,332.499,264.796,342.226z"/>
				<path style="fill:#FFFFFF;" d="M248.227,325.02c0,0-5.655-9.309-8.675-3.244C237.936,325.02,248.227,325.02,248.227,325.02z"/>
				<path style="fill:#FFFFFF;" d="M251.296,325.02c0,0,5.655-9.309,8.675-3.244C261.586,325.02,251.296,325.02,251.296,325.02z"/>
			</g>
			<path style="fill:#0C5870;" d="M182.338,376.611c23.048,1.482,60.486,14.145,75.223,17.995
				c-2.209,3.48-5.572,31.277-4.081,32.719c-107.451,21.791-110.749-17.493-106.17-35.492
				C148.754,386.16,158.061,375.051,182.338,376.611z"/>
			<path style="fill:#074559;" d="M253.48,427.322c-99.843,20.246-109.753-12.231-106.995-31.376
				c2.867,18.183,23.45,38.161,106.995,21.228V427.322z"/>
			<g>
				<path style="fill:#B64401;" d="M296.918,206.17c-0.099,0.079-0.268,0.159-0.486,0.228c-0.784,0.258-2.282,0.446-4.345,0.585
					c-0.486,0.03-1.012,0.06-1.567,0.079c-0.079,0.01-0.159,0.01-0.238,0.01c-0.407,0.02-0.823,0.04-1.26,0.049
					c-0.327,0.02-0.675,0.03-1.032,0.04c-0.585,0.02-1.2,0.03-1.835,0.04c-18.223,0.357-54.569-1.121-71.75-1.895
					c-0.317-0.01-0.625-0.03-0.923-0.04c-0.903-0.04-1.746-0.079-2.52-0.109c-0.417-0.02-0.803-0.04-1.18-0.06
					c-3.035-0.139-4.791-0.228-4.791-0.228c-0.506-0.546-1.051-1.24-1.607-2.043c-3.383-4.801-7.291-13.302-5.039-15.058
					c2.629-2.053,6.567-0.506,6.646-1.706c0.089-1.2-6.2-10.436-3.66-13.342c2.549-2.906,2.549-0.337,3.66-1.369
					c0.645-0.595-1.161-4.93-1.547-9.305c-0.06-0.595-0.079-1.19-0.079-1.776c0.04-2.539,0.744-4.91,2.906-6.369
					c1.498-1.012,2.381-1.815,2.897-2.47c1.696-2.133-0.357-2.797,2.47-4.365c3.7-2.053,8.491,1.022,8.491,1.022
					s6.666-12.479,10.088-12.995c3.422-0.516,3.075,4.613,5.992,3.928c2.906-0.684,7.182-6.666,10.773-7.866
					c5.188-1.726-1.468,5.476,1.022,5.476c2.5,0,8.045-6.845,16.08-8.035c2.738,2.391-1.2,6.329,5.129,7.35
					c6.329,1.032,3.422,6.497,7.529,8.382c4.107,1.885,3.591,0.516,7.698,1.885c4.097,1.359,2.609,2.728,3.779,7.182
					c1.18,4.444,0.149,5.297,4.514,7.698c4.365,2.391,8.938,4.275,6.646,9.573c-2.282,5.307-2.668,9.067,0,8.035
					c2.678-1.022,3.184-1.19,2.5,1.885c-0.684,3.075-5.813,10.267-1.538,10.267C304.616,190.854,300.807,203.115,296.918,206.17z"/>
				<path style="fill:#B64401;" d="M296.918,206.17c-0.099,0.079-0.268,0.159-0.486,0.228c-0.784,0.258-2.282,0.446-4.345,0.585
					c-0.486,0.03-1.012,0.06-1.567,0.079c-0.079,0.01-0.159,0.01-0.238,0.01c-0.407,0.02-0.823,0.04-1.26,0.049
					c-0.327,0.02-0.675,0.03-1.032,0.04c-0.585,0.02-1.2,0.03-1.835,0.04c-18.223,0.357-54.569-1.121-71.75-1.895
					c-0.317-0.01-0.625-0.03-0.923-0.04c-0.903-0.04-1.746-0.079-2.52-0.109c-0.417-0.02-0.803-0.04-1.18-0.06
					c-3.035-0.139-4.791-0.228-4.791-0.228c-0.506-0.546-1.051-1.24-1.607-2.043c-3.383-4.801-7.291-13.302-5.039-15.058
					c2.629-2.053,6.567-0.506,6.646-1.706c0.089-1.2-6.2-10.436-3.66-13.342c2.549-2.906,2.549-0.337,3.66-1.369
					c0.645-0.595-1.161-4.93-1.547-9.305c-0.06-0.595-0.079-1.19-0.079-1.776c0.04-2.539,0.744-4.91,2.906-6.369
					c1.498-1.012,2.381-1.815,2.897-2.47c1.696-2.133-0.357-2.797,2.47-4.365c3.7-2.053,8.491,1.022,8.491,1.022
					s6.666-12.479,10.088-12.995c3.422-0.516,3.075,4.613,5.992,3.928c2.906-0.684,7.182-6.666,10.773-7.866
					c5.188-1.726-1.468,5.476,1.022,5.476c2.5,0,8.045-6.845,16.08-8.035c2.738,2.391-1.2,6.329,5.129,7.35
					c6.329,1.032,3.422,6.497,7.529,8.382c4.107,1.885,3.591,0.516,7.698,1.885c4.097,1.359,2.609,2.728,3.779,7.182
					c1.18,4.444,0.149,5.297,4.514,7.698c4.365,2.391,8.938,4.275,6.646,9.573c-2.282,5.307-2.668,9.067,0,8.035
					c2.678-1.022,3.184-1.19,2.5,1.885c-0.684,3.075-5.813,10.267-1.538,10.267C304.616,190.854,300.807,203.115,296.918,206.17z"/>
				<path style="opacity:0.31;fill:#B64401;" d="M293.704,203.938c-0.01,0.317-0.02,0.635-0.03,0.952
					c-0.05,1.032-0.744,1.776-1.587,2.093c-0.506,0.188-1.071,0.228-1.567,0.079c-0.03,0-0.06-0.01-0.089-0.02
					c-0.05,0.02-0.099,0.03-0.149,0.03c-0.407,0.119-0.843,0.129-1.26,0.049c-0.367-0.06-0.714-0.208-1.012-0.436
					c-0.307-0.238-0.556-0.556-0.694-0.952c-0.099-0.268-0.139-0.575-0.129-0.913c0.169-3.779-0.159-7.38-1.071-11.07
					c-0.387-1.538,0.635-2.589,1.815-2.827c0.04-0.02,0.089-0.02,0.129-0.03c-0.188-0.813-0.407-1.617-0.655-2.411
					c0-0.01,0-0.01-0.01-0.02c-0.406-1.315-0.9-2.611-1.493-3.867c-0.075-0.149-0.145-0.301-0.223-0.448
					c-0.079-0.149-0.159-0.298-0.238-0.436c-0.01-0.02-0.01-0.03-0.02-0.05c-0.05-0.109-0.119-0.228-0.188-0.337
					c-0.109-0.218-0.238-0.436-0.387-0.645c-0.526-0.863-1.111-1.667-1.756-2.411c-0.05-0.06-0.099-0.129-0.159-0.188
					c-3.283-3.75-7.837-6.111-12.638-8.025c-11.517-4.573-24.919-4.236-36.981-1.409c0.347,1.676-0.337,3.492-2.48,3.968
					c-6.13,2.043-10.822,5.287-15.882,8.868h-0.01c-0.665,0.466-1.329,0.942-2.014,1.419c0,2.063-0.169,4.186-0.575,6.398
					c-0.03,0.198-0.079,0.397-0.139,0.585c0.774,1.895,1.458,3.948,1.835,5.991c0.03,0.03,0.05,0.06,0.079,0.089
					c0.327,0.377,0.625,0.833,0.843,1.379c0.754,1.895,0.357,3.561-0.625,4.92v0.01c-0.248,0.357-0.536,0.684-0.863,0.992
					c-0.02,0.03-0.05,0.049-0.079,0.079c-0.337,0.615-0.774,1.161-1.27,1.617c-0.645,0.605-1.399,1.071-2.212,1.399
					c-0.228,0.079-0.466,0.159-0.704,0.218c-0.139,0.05-0.268,0.079-0.407,0.109c-1.706,0.377-3.571,0.169-5.238-0.734
					c-0.952-0.516-1.915-1.26-2.837-2.172c0.466-0.962,1.071-1.776,1.786-2.351c0.288-0.238,0.575-0.436,0.863-0.605
					c-3.383-4.801-7.291-13.302-5.039-15.058c2.629-2.053,6.567-0.506,6.646-1.706c0.089-1.2-6.2-10.436-3.66-13.342
					c2.549-2.906,2.549-0.337,3.66-1.369c0.645-0.595-1.161-4.93-1.547-9.305c0.02-0.01,0.05-0.01,0.069-0.02
					c-0.079-0.585-0.139-1.18-0.149-1.756c0.04-2.539,0.744-4.91,2.906-6.369c1.498-1.012,2.381-1.815,2.897-2.47
					c0.377,0.099,0.684,0.486,0.546,0.913c-1.18,3.492-2.569,6.16-1.2,9.86c0.823-0.942,1.706-1.815,2.649-2.678
					c1.974-1.805,4.811,0.774,3.452,2.768c0.724,0.03,1.438,0.139,2.143,0.327c1.518-3.462,3.244-6.745,7.063-8.392
					c1.428-0.615,3.373,0.407,2.827,2.182c-0.139,0.436-0.298,0.942-0.456,1.488c0.357-0.615,0.645-1.101,0.813-1.349
					c1.23-1.835,3.918-2.331,5.823-1.518c2.014-1.934,4.067-3.829,6.17-5.634c3.492-2.996,6.805-5.029,11.477-4.345
					c2.936,0.427,3.085,4.801,0.794,6.101c-0.754,0.476-1.488,0.992-2.202,1.508c-0.784,0.625-1.518,1.309-2.212,2.073l-0.02,0.03
					c-0.179,0.268-1.686,2.133-2.649,3.214c0.06,0.079,0.139,0.139,0.188,0.218c2.728-0.476,5.545-1.855,7.747-2.748
					c3.452-1.399,6.666-2.381,10.426-2.43c2.609-0.03,4.008,2.42,3.76,4.573c3.512,0.129,7.023,0.149,10.555,0.01
					c1.468-0.06,2.163,1.359,1.984,2.599c-0.129,0.813-0.317,1.518-0.585,2.172c0.952-0.119,1.915-0.199,2.877-0.228
					c1.141-0.02,1.26,1.577,0.258,1.905c-1.974,0.665-3.998,1.141-6.001,1.716c-1.161,0.337-2.351-1.012-1.736-2.083
					c-1.468,0.506-2.926,0.764-4.414,0.843c2.222,0.675,4.375,1.498,6.448,2.52C289.141,173.683,294.071,189.961,293.704,203.938z"
					/>
				<g>
					<path style="fill:#FFB890;" d="M212.689,227.279c-0.198,0-0.387-0.01-0.575-0.03c-12.191-0.675-14.691-14.84-11.378-21.466
						c0.466-0.962,1.071-1.776,1.786-2.351c0.288-0.238,0.575-0.436,0.863-0.605c2.599-1.567,4.801-0.496,6.369,0.972
						c0.456,0.436,0.863,0.903,1.21,1.359c0.575,0.744,0.982,1.438,1.171,1.805c0.099,0.169,0.149,0.268,0.149,0.268
						L212.689,227.279z"/>
					<path style="fill:#F29B62;" d="M207.031,214.582c0.033-0.259,0.084-0.518,0.145-0.774c0.392-1.635,1.346-3.256,2.279-4.645
						c0.223-0.332-0.207-0.746-0.538-0.547c-3.023,1.821-5.663,5.727-4.396,9.385c0.97,2.803,5.569,4.654,7.053,1.271
						C212.741,216.609,209.937,212.778,207.031,214.582z"/>
				</g>
				<g>
					<path style="fill:#FFB890;" d="M285.501,228.628c-0.03,0.01-0.05,0.01-0.079,0.01c-0.169,0.01-0.337,0.02-0.516,0.02
						l0.01-0.684l0.397-19.354c0,0,0.298-0.615,0.843-1.419c0.466-0.684,1.111-1.508,1.915-2.212
						c1.726-1.528,4.166-2.47,7.003-0.169c0.516,0.417,0.972,0.952,1.359,1.577C300.351,212.608,298.178,227.924,285.501,228.628z"
						/>
					<path style="fill:#F29B62;" d="M290.56,215.969c-0.034-0.259-0.084-0.518-0.145-0.774c-0.392-1.635-1.346-3.256-2.279-4.645
						c-0.223-0.332,0.207-0.746,0.538-0.547c3.023,1.821,5.663,5.727,4.396,9.385c-0.97,2.803-5.569,4.655-7.053,1.271
						C284.85,217.997,287.653,214.166,290.56,215.969z"/>
				</g>
				<path style="fill:#FFC9AE;" d="M288.219,194.633c0,3.621-0.04,7.073-0.149,10.356c-0.02,0.734-0.05,1.458-0.079,2.172
					c-0.119,3.115-0.308,6.071-0.575,8.878c-0.188,1.964-0.407,3.859-0.684,5.674c-0.347,2.411-0.774,4.692-1.299,6.845
					c0,0.02,0,0.05-0.01,0.079c-1.518,6.24-3.799,11.348-7.162,15.316c-5.882,6.954-15.078,10.436-29.333,10.436
					c-14.463,0-23.728-3.581-29.601-10.753c-2.797-3.412-4.821-7.648-6.279-12.687c-0.337-1.19-0.655-2.42-0.932-3.7
					c-0.486-2.202-0.883-4.533-1.2-6.994c-0.238-1.756-0.427-3.591-0.585-5.486c-0.258-3.045-0.436-6.269-0.546-9.672
					c-0.01-0.427-0.03-0.863-0.03-1.299c-0.089-2.926-0.119-5.982-0.119-9.166C209.634,158.208,288.219,158.208,288.219,194.633z"/>
				<path style="fill:#FFB890;" d="M279.41,242.506c-0.367,0.496-0.754,0.982-1.151,1.448c-5.882,6.954-15.078,10.436-29.333,10.436
					c-14.463,0-23.728-3.581-29.601-10.753c-2.797-3.412-4.821-7.648-6.279-12.687c-0.337-1.19-0.655-2.42-0.932-3.7
					c-0.486-2.202-0.883-4.533-1.2-6.994c-0.238-1.756-0.427-3.591-0.585-5.486c-0.258-3.045-0.436-6.269-0.546-9.672
					c-0.01-0.427-0.03-0.863-0.03-1.299c-0.089-2.926-0.119-5.982-0.119-9.166c0-7.499,3.333-13.461,8.63-17.866
					c-2.668,3.68-4.226,8.085-4.226,13.203c0,3.184,0.03,6.239,0.119,9.166c0,0.436,0.02,0.873,0.03,1.299
					c0.109,3.402,0.288,6.626,0.546,9.672c0.159,1.895,0.347,3.73,0.585,5.486c0.317,2.46,0.714,4.791,1.2,6.993
					c0.278,1.28,0.595,2.51,0.932,3.7c1.458,5.039,3.482,9.275,6.279,12.687c5.873,7.172,15.138,10.753,29.601,10.753
					C265.185,249.728,273.547,247.317,279.41,242.506z"/>
				<g>
					<path style="fill:#B64401;" d="M229.787,221.937c-4.487,0-9.029-3.532-9.029-10.282c0-0.822,0.666-1.488,1.488-1.488
						c0.822,0,1.488,0.666,1.488,1.488c0,5.02,3.138,7.306,6.054,7.306c2.916,0,6.054-2.286,6.054-7.306
						c0-0.822,0.666-1.488,1.488-1.488c0.822,0,1.488,0.666,1.488,1.488C238.817,218.405,234.275,221.937,229.787,221.937z"/>
				</g>
				<g>
					<path style="fill:#B64401;" d="M269.603,221.937c-4.487,0-9.029-3.532-9.029-10.282c0-0.822,0.666-1.488,1.488-1.488
						c0.821,0,1.488,0.666,1.488,1.488c0,5.02,3.139,7.306,6.054,7.306c2.916,0,6.055-2.286,6.055-7.306
						c0-0.822,0.667-1.488,1.488-1.488c0.821,0,1.488,0.666,1.488,1.488C278.633,218.405,274.091,221.937,269.603,221.937z"/>
				</g>
				<g>
					<path style="fill:#B64401;" d="M233.744,192.156c-0.493,0-0.976-0.245-1.259-0.693c-0.993-1.57-1.951-2.434-2.697-2.434
						c-0.747,0-1.705,0.865-2.697,2.434c-0.439,0.695-1.357,0.903-2.053,0.462c-0.695-0.439-0.901-1.358-0.462-2.053
						c1.625-2.57,3.33-3.82,5.212-3.82c1.882,0,3.587,1.249,5.213,3.82c0.439,0.695,0.233,1.613-0.462,2.053
						C234.291,192.082,234.015,192.156,233.744,192.156z"/>
				</g>
				<g>
					<path style="fill:#B64401;" d="M273.559,192.156c-0.493,0-0.975-0.245-1.258-0.693c-0.993-1.57-1.951-2.434-2.698-2.434
						c-0.746,0-1.704,0.865-2.697,2.434c-0.44,0.694-1.358,0.902-2.053,0.462c-0.695-0.439-0.902-1.358-0.462-2.053
						c1.626-2.57,3.33-3.82,5.212-3.82c1.882,0,3.587,1.25,5.213,3.82c0.44,0.695,0.233,1.613-0.462,2.053
						C274.106,192.082,273.831,192.156,273.559,192.156z"/>
				</g>
				<path style="fill:#B64401;" d="M250.622,241.069h-0.467c-1.293,0-2.342-1.049-2.342-2.342v-4.329
					c0-1.293,1.049-2.342,2.342-2.342h0.467c1.293,0,2.342,1.048,2.342,2.342v4.329C252.964,240.02,251.916,241.069,250.622,241.069
					z"/>
			</g>
			<g style="opacity:0.68;">
				<path style="fill:#F29D86;" d="M231.19,234.521c0,5.208-4.216,9.434-9.424,9.434c-0.843,0-1.657-0.109-2.44-0.318
					c-2.797-3.412-4.821-7.648-6.279-12.687c1.399-3.432,4.771-5.853,8.719-5.853C226.974,225.097,231.19,229.323,231.19,234.521z"
					/>
				<path style="fill:#F29D86;" d="M285.501,228.628c-0.03,0.01-0.05,0.01-0.079,0.01c-1.518,6.24-3.799,11.348-7.162,15.316h-0.119
					c-5.208,0-9.434-4.226-9.434-9.434c0-5.198,4.226-9.424,9.434-9.424c2.659,0,5.069,1.101,6.775,2.877
					c0.188,0.188,0.357,0.377,0.516,0.585C285.461,228.579,285.481,228.599,285.501,228.628z"/>
			</g>
		</g>
	</g>
</g>
</svg>
