<?xml version="1.0" encoding="iso-8859-1"?>
<!-- Generator: Adobe Illustrator 21.0.2, SVG Export Plug-In . SVG Version: 6.00 Build 0)  -->
<svg version="1.1" id="Capa_1" xmlns="http://www.w3.org/2000/svg" xmlns:xlink="http://www.w3.org/1999/xlink" x="0px" y="0px"
	 viewBox="0 0 500 500" style="enable-background:new 0 0 500 500;" xml:space="preserve">
<path style="fill-rule:evenodd;clip-rule:evenodd;fill:#EDF7FF;" d="M235.066,25.379c93.472,0,169.247,81.125,169.247,181.197
	c0,100.072-75.774,181.197-169.247,181.197S65.819,306.648,65.819,206.576C65.819,106.504,141.594,25.379,235.066,25.379
	L235.066,25.379z"/>
<path style="fill-rule:evenodd;clip-rule:evenodd;fill:#87A1B5;" d="M315.229,371.872c4.742,0,8.587,4.116,8.587,9.193
	c0,5.077-3.844,9.193-8.587,9.193c-4.742,0-8.586-4.116-8.586-9.193C306.643,375.988,310.487,371.872,315.229,371.872
	L315.229,371.872z"/>
<path style="fill-rule:evenodd;clip-rule:evenodd;fill:#C4D1D9;" d="M311.457,280.945h7.544v93.168c0,5.238-7.544,5.355-7.544,0
	V280.945L311.457,280.945z"/>
<path style="fill-rule:evenodd;clip-rule:evenodd;fill:#87A1B5;" d="M236.922,404.446c4.589,1.282,7.337,6.304,6.14,11.216
	c-1.198,4.912-5.888,7.855-10.477,6.573c-4.589-1.282-7.337-6.304-6.139-11.217C227.644,406.106,232.334,403.163,236.922,404.446
	L236.922,404.446z"/>
<path style="fill-rule:evenodd;clip-rule:evenodd;fill:#C4D1D9;" d="M300.873,126.19l7.3,2.04l-68.129,279.403
	c-1.236,5.068-8.563,3.141-7.3-2.04L300.873,126.19L300.873,126.19z"/>
<path style="fill-rule:evenodd;clip-rule:evenodd;fill:#87A1B5;" d="M393.536,404.446c-4.589,1.282-7.337,6.304-6.139,11.216
	c1.198,4.912,5.888,7.855,10.477,6.573c4.588-1.283,7.337-6.304,6.139-11.217C402.815,406.106,398.125,403.163,393.536,404.446
	L393.536,404.446z"/>
<path style="fill-rule:evenodd;clip-rule:evenodd;fill:#C4D1D9;" d="M329.585,126.19l-7.3,2.04l68.129,279.403
	c1.236,5.068,8.563,3.141,7.3-2.04L329.585,126.19L329.585,126.19z"/>
<path style="fill-rule:evenodd;clip-rule:evenodd;fill:#87A1B5;" d="M430.13,43.188v208.06c0,11.359-8.681,20.653-19.291,20.653
	h-191.22c-10.61,0-19.291-9.294-19.291-20.653V43.188c0-11.359,8.681-20.653,19.291-20.653h191.22
	C421.449,22.535,430.13,31.829,430.13,43.188L430.13,43.188z"/>
<path style="fill-rule:evenodd;clip-rule:evenodd;fill:#FFFFFF;" d="M422.637,44.781v205.801c0,7.293-5.573,13.236-12.385,13.206
	l-190.044-0.822c-6.812-0.029-12.385-6.02-12.385-13.313V43.852c0-7.293,5.573-13.236,12.385-13.206l190.044,0.822
	C417.063,31.497,422.637,37.488,422.637,44.781L422.637,44.781z"/>
<path style="fill-rule:evenodd;clip-rule:evenodd;fill:#2B3854;" d="M101.044,410.367c-13.03-0.813-14.687-65.123-14.016-75.543
	c1.197-18.609,10.323-33.281,20.383-32.772c10.06,0.509,17.245,16.007,16.048,34.615
	C122.792,347.01,113.809,411.163,101.044,410.367L101.044,410.367z"/>
<path style="fill-rule:evenodd;clip-rule:evenodd;fill:#2B3854;" d="M146.132,410.367c13.03-0.813,14.687-65.123,14.017-75.543
	c-1.197-18.609-10.323-33.281-20.383-32.772c-10.06,0.509-17.245,16.007-16.048,34.615
	C124.384,347.01,133.367,411.163,146.132,410.367L146.132,410.367z"/>
<path style="fill-rule:evenodd;clip-rule:evenodd;fill:#661F1F;" d="M123.451,85.692c44.164,0,79.967,38.33,79.967,85.613
	c0,55.045-60.649,74.975-81.064,74.659c-20.415-0.316-78.87-20.852-78.87-74.659C43.484,124.022,79.286,85.692,123.451,85.692
	L123.451,85.692z"/>
<path style="fill-rule:evenodd;clip-rule:evenodd;fill:#D9F2FF;" d="M75.417,259.127c-8.422,14.456-33.167,65.223-27.631,68.92
	c5.536,3.697,39.257-41.076,47.679-55.532c8.422-14.456,10.762-29.172,5.226-32.869C95.155,235.949,83.84,244.671,75.417,259.127
	L75.417,259.127z"/>
<path style="fill-rule:evenodd;clip-rule:evenodd;fill:#D9F2FF;" d="M167.095,238.945c15.369-4.424,67.877-14.808,69.571-8.062
	c1.694,6.745-48.068,28.068-63.436,32.492c-15.369,4.424-29.201,2.54-30.895-4.206C140.641,252.423,151.726,243.369,167.095,238.945
	L167.095,238.945z"/>
<path style="fill-rule:evenodd;clip-rule:evenodd;fill:#D9F2FF;" d="M123.588,219.237c18.102,0,39.016,68.732,39.016,105.484
	c0,25.766-10.28,18.738-39.016,18.738c-28.022,0-38.494,6.191-38.996-18.738C83.844,287.623,105.171,219.237,123.588,219.237
	L123.588,219.237z"/>
<polygon style="fill-rule:evenodd;clip-rule:evenodd;fill:#ADC7D6;" points="119.597,243.873 153.714,230.648 143.126,267.803 
	119.597,243.873 "/>
<polygon style="fill-rule:evenodd;clip-rule:evenodd;fill:#D9F2FF;" points="124.97,245.075 141.728,262.121 149.27,235.656 
	124.97,245.075 "/>
<polygon style="fill-rule:evenodd;clip-rule:evenodd;fill:#ADC7D6;" points="126.719,243.873 92.602,230.648 103.19,267.803 
	126.719,243.873 "/>
<polygon style="fill-rule:evenodd;clip-rule:evenodd;fill:#D9F2FF;" points="121.347,245.075 104.588,262.121 97.046,235.656 
	121.347,245.075 "/>
<path style="fill-rule:evenodd;clip-rule:evenodd;fill:#FCCC96;" d="M48.633,317.685l9.238,5.537
	c2.44,1.462,3.318,4.795,1.952,7.407l-4.47,8.548c-1.366,2.612-4.479,3.553-6.919,2.09l-9.238-5.537
	c-2.439-1.462-3.318-4.795-1.952-7.407l4.47-8.548C43.08,317.164,46.193,316.223,48.633,317.685L48.633,317.685z"/>
<path style="fill-rule:evenodd;clip-rule:evenodd;fill:#FFFFFF;" d="M55.997,335.242c0.928,0.557,1.037,2.251,0.242,3.771
	l-2.888,5.523c-0.795,1.52-2.201,2.307-3.129,1.75l-1.923-1.152c-0.929-0.557-1.037-2.251-0.242-3.771l2.888-5.523
	c0.795-1.521,2.201-2.307,3.129-1.75L55.997,335.242L55.997,335.242z"/>
<path style="fill-rule:evenodd;clip-rule:evenodd;fill:#FCCC96;" d="M55.469,336.253l-1.923-1.153
	c-0.588-0.352-1.338-0.126-1.666,0.503l-3.522,6.736c-0.329,0.629-0.117,1.432,0.47,1.784l1.923,1.153
	c0.587,0.352,1.337,0.126,1.666-0.503l3.522-6.736C56.268,337.408,56.056,336.605,55.469,336.253L55.469,336.253z"/>
<path style="fill-rule:evenodd;clip-rule:evenodd;fill:#FFFFFF;" d="M51.32,332.439c0.928,0.557,1.037,2.251,0.242,3.771
	l-2.888,5.524c-0.795,1.52-2.201,2.307-3.129,1.75l-1.923-1.153c-0.928-0.556-1.037-2.25-0.242-3.77l2.888-5.524
	c0.795-1.52,2.201-2.307,3.129-1.75L51.32,332.439L51.32,332.439z"/>
<path style="fill-rule:evenodd;clip-rule:evenodd;fill:#FCCC96;" d="M50.791,333.45l-1.923-1.153
	c-0.588-0.352-1.337-0.126-1.666,0.503l-3.522,6.736c-0.329,0.629-0.117,1.432,0.47,1.784l1.923,1.152
	c0.588,0.352,1.337,0.126,1.666-0.503l3.522-6.736C51.591,334.605,51.379,333.802,50.791,333.45L50.791,333.45z"/>
<path style="fill-rule:evenodd;clip-rule:evenodd;fill:#FFFFFF;" d="M45.754,330.397c0.928,0.557,1.037,2.251,0.242,3.771
	l-2.888,5.524c-0.795,1.52-2.201,2.307-3.129,1.75l-1.923-1.153c-0.928-0.556-1.037-2.25-0.242-3.771l2.888-5.523
	c0.795-1.52,2.201-2.307,3.129-1.75L45.754,330.397L45.754,330.397z"/>
<path style="fill-rule:evenodd;clip-rule:evenodd;fill:#FCCC96;" d="M45.226,331.408l-1.923-1.153
	c-0.588-0.352-1.337-0.126-1.666,0.503l-3.522,6.736c-0.329,0.629-0.117,1.432,0.47,1.784l1.923,1.152
	c0.588,0.352,1.337,0.126,1.666-0.503l3.522-6.736C46.025,332.563,45.813,331.76,45.226,331.408L45.226,331.408z"/>
<path style="fill-rule:evenodd;clip-rule:evenodd;fill:#FFFFFF;" d="M40.899,327.784c0.928,0.557,1.037,2.251,0.242,3.771
	l-2.889,5.523c-0.795,1.52-2.201,2.307-3.129,1.75l-1.923-1.153c-0.929-0.557-1.037-2.251-0.242-3.771l2.888-5.523
	c0.795-1.52,2.201-2.307,3.129-1.75L40.899,327.784L40.899,327.784z"/>
<path style="fill-rule:evenodd;clip-rule:evenodd;fill:#FCCC96;" d="M40.371,328.795l-1.923-1.153
	c-0.587-0.352-1.337-0.126-1.666,0.503l-3.522,6.736c-0.329,0.629-0.117,1.432,0.47,1.784l1.923,1.153
	c0.588,0.352,1.337,0.126,1.666-0.503l3.522-6.736C41.17,329.95,40.958,329.147,40.371,328.795L40.371,328.795z"/>
<path style="fill-rule:evenodd;clip-rule:evenodd;fill:#FFFFFF;" d="M41.373,316.217c0.928,0.556,1.037,2.25,0.242,3.771
	l-2.889,5.523c-0.795,1.52-2.201,2.307-3.129,1.75l-1.923-1.153c-0.928-0.557-1.037-2.251-0.242-3.771l2.888-5.524
	c0.795-1.52,2.201-2.306,3.129-1.75L41.373,316.217L41.373,316.217z"/>
<path style="fill-rule:evenodd;clip-rule:evenodd;fill:#FCCC96;" d="M40.845,317.228l-1.923-1.153
	c-0.587-0.352-1.337-0.126-1.666,0.503l-3.522,6.736c-0.329,0.629-0.117,1.431,0.47,1.784l1.923,1.153
	c0.587,0.352,1.337,0.126,1.666-0.503l3.522-6.736C41.644,318.383,41.433,317.58,40.845,317.228L40.845,317.228z"/>
<path style="fill-rule:evenodd;clip-rule:evenodd;fill:#FCCC96;" d="M227.167,228.709l2.262,11.073
	c0.597,2.924,3.321,4.794,6.052,4.154l8.939-2.093c2.731-0.64,4.477-3.555,3.88-6.48l-2.262-11.073
	c-0.597-2.924-3.321-4.793-6.052-4.154l-8.939,2.093C228.316,222.869,226.57,225.785,227.167,228.709L227.167,228.709z"/>
<path style="fill-rule:evenodd;clip-rule:evenodd;fill:#FFFFFF;" d="M240.717,241.358c0.227,1.113,1.709,1.717,3.299,1.345
	l5.777-1.352c1.59-0.372,2.701-1.583,2.474-2.696l-0.471-2.305c-0.227-1.113-1.71-1.717-3.299-1.345l-5.777,1.352
	c-1.59,0.372-2.701,1.583-2.474,2.696L240.717,241.358L240.717,241.358z"/>
<path style="fill-rule:evenodd;clip-rule:evenodd;fill:#FCCC96;" d="M241.774,241.111l-0.471-2.305
	c-0.144-0.704,0.277-1.407,0.934-1.561l7.044-1.649c0.658-0.154,1.314,0.296,1.458,1.001l0.471,2.305
	c0.144,0.704-0.277,1.407-0.935,1.561l-7.044,1.649C242.573,242.265,241.917,241.815,241.774,241.111L241.774,241.111z"/>
<path style="fill-rule:evenodd;clip-rule:evenodd;fill:#FFFFFF;" d="M239.571,235.752c0.227,1.113,1.709,1.717,3.299,1.345
	l5.776-1.353c1.59-0.372,2.701-1.583,2.474-2.696l-0.471-2.305c-0.228-1.113-1.71-1.717-3.299-1.345l-5.777,1.353
	c-1.59,0.372-2.701,1.583-2.474,2.696L239.571,235.752L239.571,235.752z"/>
<path style="fill-rule:evenodd;clip-rule:evenodd;fill:#FCCC96;" d="M240.628,235.505l-0.471-2.306
	c-0.144-0.704,0.277-1.407,0.934-1.56l7.044-1.649c0.658-0.154,1.314,0.296,1.458,1l0.471,2.306c0.144,0.704-0.277,1.407-0.935,1.56
	l-7.043,1.649C241.428,236.659,240.772,236.209,240.628,235.505L240.628,235.505z"/>
<path style="fill-rule:evenodd;clip-rule:evenodd;fill:#FFFFFF;" d="M238.426,230.146c0.227,1.113,1.71,1.717,3.299,1.345
	l5.777-1.353c1.59-0.372,2.701-1.584,2.474-2.696l-0.471-2.305c-0.228-1.113-1.71-1.717-3.299-1.345l-5.777,1.352
	c-1.59,0.372-2.701,1.584-2.474,2.696L238.426,230.146L238.426,230.146z"/>
<path style="fill-rule:evenodd;clip-rule:evenodd;fill:#FCCC96;" d="M239.483,229.898l-0.471-2.305
	c-0.144-0.704,0.277-1.406,0.935-1.561l7.044-1.649c0.658-0.154,1.314,0.296,1.458,1.001l0.471,2.305
	c0.144,0.704-0.277,1.406-0.934,1.56l-7.044,1.649C240.283,231.053,239.627,230.602,239.483,229.898L239.483,229.898z"/>
<path style="fill-rule:evenodd;clip-rule:evenodd;fill:#FFFFFF;" d="M246.006,222.311c0.227,1.113,1.71,1.717,3.299,1.345
	l5.776-1.352c1.59-0.372,2.701-1.583,2.474-2.696l-0.471-2.305c-0.227-1.113-1.71-1.717-3.299-1.345l-5.776,1.352
	c-1.59,0.372-2.701,1.583-2.474,2.696L246.006,222.311L246.006,222.311z"/>
<path style="fill-rule:evenodd;clip-rule:evenodd;fill:#FCCC96;" d="M247.063,222.063l-0.471-2.305
	c-0.144-0.704,0.277-1.406,0.935-1.56l7.044-1.649c0.658-0.154,1.314,0.296,1.458,1.001l0.471,2.305
	c0.144,0.704-0.277,1.407-0.934,1.561l-7.044,1.649C247.863,223.218,247.207,222.768,247.063,222.063L247.063,222.063z"/>
<path style="fill-rule:evenodd;clip-rule:evenodd;fill:#FFFFFF;" d="M227.967,220.846c0.227,1.113,1.71,1.717,3.3,1.345l5.776-1.353
	c1.59-0.372,2.701-1.583,2.474-2.696l-0.471-2.305c-0.227-1.113-1.71-1.717-3.299-1.345l-5.776,1.352
	c-1.59,0.372-2.701,1.584-2.474,2.696L227.967,220.846L227.967,220.846z"/>
<path style="fill-rule:evenodd;clip-rule:evenodd;fill:#FCCC96;" d="M229.024,220.599l-0.471-2.305
	c-0.144-0.704,0.277-1.406,0.934-1.561l7.044-1.649c0.658-0.154,1.314,0.296,1.457,1.001l0.471,2.305
	c0.144,0.704-0.277,1.407-0.934,1.561l-7.044,1.649C229.824,221.753,229.168,221.303,229.024,220.599L229.024,220.599z"/>
<path style="fill-rule:evenodd;clip-rule:evenodd;fill:#2B3854;" d="M85.927,408.271c-0.054-0.212-0.097-0.437-0.128-0.679
	c-2.52-19.968,0.717-64.814,1.229-72.767c1.196-18.608,10.323-33.281,20.383-32.772c10.06,0.509,17.244,16.007,16.047,34.615
	c-0.541,8.405-4.492,52.354-8.555,71.486c-0.009,0.04-0.019,0.079-0.029,0.117H85.927L85.927,408.271z"/>
<path style="fill-rule:evenodd;clip-rule:evenodd;fill:#1F2638;" d="M86.141,348.857c0.385-6.67,0.743-11.802,0.886-14.032
	c0.214-3.325,0.682-6.522,1.362-9.531h34.741c0.455,3.574,0.582,7.403,0.327,11.375c-0.136,2.122-0.49,6.51-1.008,12.189H86.141
	L86.141,348.857z"/>
<path style="fill-rule:evenodd;clip-rule:evenodd;fill:#2B3854;" d="M161.249,408.271c0.054-0.212,0.097-0.437,0.128-0.679
	c2.52-19.968-0.718-64.814-1.229-72.767c-1.196-18.608-10.323-33.281-20.383-32.772c-10.06,0.509-17.244,16.007-16.047,34.615
	c0.541,8.405,4.493,52.354,8.555,71.486c0.009,0.04,0.019,0.079,0.029,0.117H161.249L161.249,408.271z"/>
<path style="fill-rule:evenodd;clip-rule:evenodd;fill:#FF8700;" d="M123.448,337.63l-3.195-14.539c0,0-4.164-38.604-3.994-49.149
	c0.131-8.195,3.028-14.131,4.493-19.824h6.01c1.582,4.786,3.875,12.914,3.875,19.824c0,10.547-3.994,49.149-3.994,49.149
	L123.448,337.63L123.448,337.63z"/>
<path style="fill-rule:evenodd;clip-rule:evenodd;fill:#CC6E00;" d="M121.185,251.987c-0.47,1.467-1.045,5.051-1.794,7.873
	c-1.641,6.186,1.793,5.927,3.344,1.438c1.247-3.609,0.858-3.659,2.892,0.665c1.527,3.246,4.198,2.848,2.931-1.383
	c-1.266-4.231-2.128-8.219-2.196-10.052C126.294,248.694,121.527,249.787,121.185,251.987L121.185,251.987z"/>
<path style="fill-rule:evenodd;clip-rule:evenodd;fill:#2B3854;" d="M82.172,291.725c-2.933,8.074-16.111,25.454-20.301,31.733
	c-5.953-5.719-13.404-8.984-15.921-10.317c19.273-55.62,46.277-75.243,50.886-76.14c0.436,0.747,7.466,0.386,7.585,1.778
	c3.159,37.049,20.688,75.162,20.015,98.367c-0.097,3.333-0.373,6.641-0.859,9.909l-40.392,0.178
	C81.81,337.304,81.552,323.401,82.172,291.725L82.172,291.725z"/>
<path style="fill-rule:evenodd;clip-rule:evenodd;fill:#1F2638;" d="M161.035,348.857c-0.385-6.67-0.743-11.802-0.886-14.032
	c-0.214-3.325-0.682-6.522-1.362-9.531h-34.741c-0.455,3.574-0.582,7.403-0.327,11.375c0.136,2.122,0.491,6.51,1.009,12.189H161.035
	L161.035,348.857z"/>
<path style="fill-rule:evenodd;clip-rule:evenodd;fill:#2B3854;" d="M161.596,246.09c-6.075-6.005-10.65-8.765-12.312-9.089
	c-0.436,0.747-7.466,0.386-7.585,1.778c-3.16,37.049-20.688,75.162-20.016,98.367c0.056,1.935,0.648,6.552,1.166,9.954
	c3.018,0.136,35.618,0.11,40.085,0.134C165.454,329.024,164.003,263.092,161.596,246.09L161.596,246.09z"/>
<path style="fill-rule:evenodd;clip-rule:evenodd;fill:#2B3854;" d="M161.246,266.016c8.069-0.656,60.34-19.39,67.171-21.856
	c-3.379-7.761-4.131-16.343-4.59-19.309c-35.364,2.281-59.368,9.272-72.887,15.026C142.063,245.48,149.8,270.26,161.246,266.016
	L161.246,266.016z"/>
<path style="fill-rule:evenodd;clip-rule:evenodd;fill:#1F2638;" d="M157.699,242.35c-0.09,4.561-0.709,9.228-2.424,13.391
	l-0.605,1.469L147,258.852c-0.705,11.12-2.385,22.063-5.52,32.724c-3.938,13.391-9.499,19.851-15.854,31.378
	c-3.24,5.876-2.547,23.034-3.232,24.099c-0.694-9.458-1.632-14.506,2.304-28.22c6.906-24.059,15.087-57.597,17.002-80.053
	c0.118-1.391,7.148-1.032,7.585-1.778C150.58,237.254,153.599,238.89,157.699,242.35L157.699,242.35z"/>
<path style="fill-rule:evenodd;clip-rule:evenodd;fill:#2B3854;" d="M154.817,240.077c-2.628-1.92-4.564-2.887-5.534-3.076
	c-0.436,0.747-7.466,0.387-7.585,1.778c-2.596,30.451-15.77,63.173-18.503,86.023c10.026-18.21,19.485-37.614,21.06-68.515
	l8.38-1.794C154.342,250.349,154.904,245.385,154.817,240.077L154.817,240.077z"/>
<path style="fill-rule:evenodd;clip-rule:evenodd;fill:#661F1F;" d="M54.362,203.75c-0.2,7.309-0.296,14.035,10.925,24.56
	c-18.104-4.583-21.907-23.674-22.862-37.356c-2.148,4.78-2.193,10.406-1.959,16.099c-10.423-18.496-7.866-46.646,1.259-54.632
	c-5.895-1.638-9.805,7.165-11.401,10.551c-2.035-21.711,12.398-39.887,23.018-42.856c-6.821-2.202-13.433,3.128-18.021,7.813
	c4.612-22.034,36.658-38.67,51.273-36.122c3.189-10.241,35.423-25.783,60.15-14.562c-15.001-1.345-20.496,0.35-27.793,6.553
	c11.308-8.281,49.942-5.688,80.068,22.858c-11.62-6.106-15.234-7.14-23.528-6.793c16.405,5.762,42.235,30.544,38.458,59.528
	c-4.885-14.841-5.869-20.101-15.955-28.057c9.491,8.935,24.443,42.52-3.705,84.1c2.48-9.307,1.993-16.366,0.629-19.619
	c-0.003,12.4-6.214,26.373-21.485,35.418C215.461,167.455,55.92,201.049,54.362,203.75L54.362,203.75z"/>
<path style="fill-rule:evenodd;clip-rule:evenodd;fill:#1F2638;" d="M88.853,242.35c0.091,4.561,0.709,9.228,2.424,13.391
	l0.605,1.469l7.671,1.643c0.705,11.12,2.385,22.063,5.52,32.724c4.28,14.558,10.103,20.715,17.976,34.102
	c-3.684-23.612-15.295-52.894-18.195-86.899c-0.119-1.392-7.148-1.032-7.585-1.778C95.973,237.254,92.953,238.89,88.853,242.35
	L88.853,242.35z"/>
<path style="fill-rule:evenodd;clip-rule:evenodd;fill:#2B3854;" d="M91.736,240.077c2.628-1.92,4.564-2.887,5.534-3.076
	c0.436,0.747,7.466,0.387,7.585,1.778c2.596,30.451,17.127,69.27,18.27,86.16c-10.026-18.21-19.252-37.751-20.826-68.652
	l-8.38-1.794C92.21,250.349,91.648,245.385,91.736,240.077L91.736,240.077z"/>
<path style="fill-rule:evenodd;clip-rule:evenodd;fill:#FCCC96;" d="M192.766,165.388c3.812,0,6.903,6.238,6.903,13.932
	c0,7.694-3.09,13.932-6.903,13.932c-3.812,0-6.902-6.238-6.902-13.932C185.863,171.626,188.953,165.388,192.766,165.388
	L192.766,165.388z"/>
<path style="fill-rule:evenodd;clip-rule:evenodd;fill:#661F1F;" d="M187.447,151.578c5.749,0,10.41,6.834,10.41,15.264
	c0,8.43-4.66,15.264-10.41,15.264c-5.749,0-10.41-6.834-10.41-15.264C177.037,158.412,181.698,151.578,187.447,151.578
	L187.447,151.578z"/>
<path style="fill-rule:evenodd;clip-rule:evenodd;fill:#FCCC96;" d="M56.528,165.388c3.812,0,6.902,6.238,6.902,13.932
	c0,7.694-3.09,13.932-6.902,13.932c-3.812,0-6.903-6.238-6.903-13.932C49.625,171.626,52.716,165.388,56.528,165.388L56.528,165.388
	z"/>
<path style="fill-rule:evenodd;clip-rule:evenodd;fill:#661F1F;" d="M62.525,151.578c5.749,0,10.41,6.834,10.41,15.264
	c0,8.43-4.661,15.264-10.41,15.264c-5.749,0-10.41-6.834-10.41-15.264C52.115,158.412,56.776,151.578,62.525,151.578L62.525,151.578
	z"/>
<path style="fill-rule:evenodd;clip-rule:evenodd;fill:#FCCC96;" d="M123.451,105.506c36.829,0,66.685,31.964,66.685,71.393
	c0,90.771-133.37,90.771-133.37,0C56.766,137.469,86.622,105.506,123.451,105.506L123.451,105.506z"/>
<path style="fill-rule:evenodd;clip-rule:evenodd;fill:#FFFFFF;" d="M95.16,153.048c7.954,0,14.402,6.904,14.402,15.419
	c0,8.516-6.448,15.419-14.402,15.419c-7.954,0-14.402-6.904-14.402-15.419C80.758,159.952,87.206,153.048,95.16,153.048
	L95.16,153.048z"/>
<path style="fill-rule:evenodd;clip-rule:evenodd;fill:#1A1A1A;" d="M95.16,158.069c5.364,0,9.713,4.656,9.713,10.399
	c0,5.743-4.349,10.399-9.713,10.399c-5.364,0-9.713-4.656-9.713-10.399C85.447,162.724,89.796,158.069,95.16,158.069L95.16,158.069z
	"/>
<path style="fill-rule:evenodd;clip-rule:evenodd;fill:#FFFFFF;" d="M101.859,158.786c2.775,0,5.024,2.408,5.024,5.379
	c0,2.971-2.249,5.379-5.024,5.379c-2.775,0-5.024-2.408-5.024-5.379C96.835,161.194,99.084,158.786,101.859,158.786L101.859,158.786
	z"/>
<path style="fill-rule:evenodd;clip-rule:evenodd;fill:#FFFFFF;" d="M153.438,153.048c7.954,0,14.402,6.904,14.402,15.419
	c0,8.516-6.448,15.419-14.402,15.419c-7.954,0-14.402-6.904-14.402-15.419C139.036,159.952,145.484,153.048,153.438,153.048
	L153.438,153.048z"/>
<path style="fill-rule:evenodd;clip-rule:evenodd;fill:#1A1A1A;" d="M153.438,158.069c5.364,0,9.713,4.656,9.713,10.399
	c0,5.743-4.349,10.399-9.713,10.399c-5.364,0-9.713-4.656-9.713-10.399C143.726,162.724,148.074,158.069,153.438,158.069
	L153.438,158.069z"/>
<path style="fill-rule:evenodd;clip-rule:evenodd;fill:#FFFFFF;" d="M160.137,158.786c2.775,0,5.024,2.408,5.024,5.379
	c0,2.971-2.249,5.379-5.024,5.379s-5.024-2.408-5.024-5.379C155.113,161.194,157.362,158.786,160.137,158.786L160.137,158.786z"/>
<path style="fill-rule:evenodd;clip-rule:evenodd;fill:#C79E6B;" d="M128.331,178.149c6.659,0,12.058,4.759,12.058,10.63
	c0,5.871-5.398,10.63-12.058,10.63c-0.921,0-1.818-0.092-2.68-0.264c5.37-1.074,9.378-5.307,9.378-10.366
	c0-5.059-4.008-9.291-9.378-10.366C126.513,178.24,127.41,178.149,128.331,178.149L128.331,178.149z"/>
<path style="fill-rule:evenodd;clip-rule:evenodd;fill:#9C4524;" d="M162.567,200.633c-21.895,9.584-43.62,8.744-74.09,2.596
	C100.122,240.259,152.039,249.484,162.567,200.633L162.567,200.633z"/>
<path style="fill:#661F1F;" d="M151.754,144.274c-8.231,0.389,8.626-15.099,22.117,4.086c2.053,2.92-0.057,5.479-1.569,3.057
	C167.152,143.155,160.783,143.848,151.754,144.274L151.754,144.274z"/>
<path style="fill-rule:evenodd;clip-rule:evenodd;fill:#661F1F;" d="M98.692,92.866c-4.679,1.856-24.453,5.03-28.735,7.612
	c0.143,24.289,43.766,59.409,91.334,50.645C128.03,148.277,96.576,126.616,98.692,92.866L98.692,92.866z"/>
<path style="fill:#661F1F;" d="M96.73,144.274c8.231,0.389-8.626-15.099-22.117,4.086c-2.053,2.92,0.057,5.479,1.569,3.057
	C81.331,143.155,87.7,143.848,96.73,144.274L96.73,144.274z"/>
<path style="fill-rule:evenodd;clip-rule:evenodd;fill:#661F1F;" d="M83.328,93.125c0.554,20.161,10.789,28.227,36.73,39.61
	c21.703,9.523,44.78,13.421,68.036,8.743C181.758,97.281,98.547,85.586,83.328,93.125L83.328,93.125z"/>
<path style="fill-rule:evenodd;clip-rule:evenodd;fill:#FF8700;" d="M123.388,244.125c3.382,0,4.926,2.393,4.926,5.345
	c0,2.952,0.586,5.346-4.926,5.346s-4.793-2.393-4.793-5.346C118.595,246.519,120.006,244.125,123.388,244.125L123.388,244.125z"/>
<path style="fill-rule:evenodd;clip-rule:evenodd;fill:#242E45;" d="M81.795,412.188c-3.134,5.803-0.788,8.577,4.398,8.577h4.605
	h21.863c5.186,0,7.531-2.773,4.398-8.577C109.334,397.881,89.52,397.88,81.795,412.188L81.795,412.188z"/>
<path style="fill-rule:evenodd;clip-rule:evenodd;fill:#242E45;" d="M165.381,412.188c3.134,5.803,0.788,8.577-4.398,8.577h-4.605
	h-21.862c-5.186,0-7.531-2.773-4.398-8.577C137.842,397.881,157.657,397.88,165.381,412.188L165.381,412.188z"/>
<path style="fill-rule:evenodd;clip-rule:evenodd;fill:#FFFFFF;" d="M145.254,208.172c-10.597,2.211-21.673,2.298-34.292,0.856
	c0.93,4.065,8.229,7.23,17.096,7.23C137.539,216.259,145.228,212.64,145.254,208.172L145.254,208.172z"/>
<path style="fill-rule:evenodd;clip-rule:evenodd;fill:#87A1B5;" d="M277.885,273.47h74.689c2.393,0,4.35,2.095,4.35,4.657v0.993
	c0,2.562-1.957,4.657-4.35,4.657h-74.689c-2.393,0-4.35-2.096-4.35-4.657v-0.993C273.535,275.565,275.492,273.47,277.885,273.47
	L277.885,273.47z"/>
<path style="fill-rule:evenodd;clip-rule:evenodd;fill:#4A1414;" d="M85.21,110.464c6.588-17.202,9.154,1.594,27.73,7.363
	c16.797,5.217,40.393,5.805,31.975,4.078c-24.267-4.978-47.629-18.636-44.707-24.892c2.922-6.256,9.642-5.839,17.334-5.839
	c7.693,0-11.23-15.357-29.604,1.771C80.185,100.172,79.335,125.804,85.21,110.464L85.21,110.464z"/>
</svg>
