<?xml version="1.0" encoding="iso-8859-1"?>
<!-- Generator: Adobe Illustrator 21.0.2, SVG Export Plug-In . SVG Version: 6.00 Build 0)  -->
<svg version="1.1" id="Layer_1" xmlns="http://www.w3.org/2000/svg" xmlns:xlink="http://www.w3.org/1999/xlink" x="0px" y="0px"
	 viewBox="0 0 1200 700" style="enable-background:new 0 0 1200 700;" xml:space="preserve">
<radialGradient id="SVGID_1_" cx="599.5" cy="349.5002" r="351.3901" gradientTransform="matrix(1.7075 0 0 0.996 -424.1489 1.3827)" gradientUnits="userSpaceOnUse">
	<stop  offset="0" style="stop-color:#94DDDC"/>
	<stop  offset="0.992" style="stop-color:#18AEC8"/>
</radialGradient>
<rect x="-0.5" y="-0.5" style="opacity:0.75;fill:url(#SVGID_1_);" width="1200" height="700"/>
<g>
	<path style="fill:none;stroke:#FFFFFF;stroke-width:2.6077;stroke-linecap:round;stroke-linejoin:round;stroke-miterlimit:10;" d="
		M736.496,484.263"/>
	<path style="fill:none;stroke:#FFFFFF;stroke-width:2.6077;stroke-linecap:round;stroke-linejoin:round;stroke-miterlimit:10;" d="
		M725.82,473.587"/>
	<path style="fill:none;stroke:#FFFFFF;stroke-width:2.6077;stroke-linecap:round;stroke-linejoin:round;stroke-miterlimit:10;" d="
		M736.496,462.911"/>
	<path style="fill:none;stroke:#FFFFFF;stroke-width:2.6077;stroke-linecap:round;stroke-linejoin:round;stroke-miterlimit:10;" d="
		M736.496,462.911c0,5.896-4.78,10.675-10.676,10.675c5.896,0,10.676,4.78,10.676,10.676c0-5.896,4.78-10.676,10.676-10.676
		C741.276,473.587,736.496,468.808,736.496,462.911z"/>
	<path style="fill:none;stroke:#FFFFFF;stroke-width:2.6077;stroke-linecap:round;stroke-linejoin:round;stroke-miterlimit:10;" d="
		M747.171,473.587"/>
</g>
<polygon style="fill:#FFFFFF;" points="848.772,144.28 866.512,112.898 887.064,123.658 905.011,89.371 930.056,101.811 
	939.748,81.367 932.25,81.059 947.765,67.208 946.858,87.986 941.875,82.375 931.154,104.982 906.028,92.503 888.056,126.832 
	867.439,116.038 850.82,145.438 "/>
<g>
	<path style="fill:none;stroke:#FFFFFF;stroke-width:2.6077;stroke-linecap:round;stroke-linejoin:round;stroke-miterlimit:10;" d="
		M782.956,589.553c0.803-4.854,1.688-10.192,2.284-13.791"/>
	<path style="fill:none;stroke:#FFFFFF;stroke-width:2.6077;stroke-linecap:round;stroke-linejoin:round;stroke-miterlimit:10;" d="
		M792.073,576.676c-0.588,3.547-1.473,8.897-2.283,13.79"/>
	
		<polygon style="fill:none;stroke:#FFFFFF;stroke-width:2.6077;stroke-linecap:round;stroke-linejoin:round;stroke-miterlimit:10;" points="
		774.754,596.356 782.91,589.826 789.71,590.952 794.931,599.697 	"/>
	<g>
		
			<path style="fill:none;stroke:#FFFFFF;stroke-width:2.6077;stroke-linecap:round;stroke-linejoin:round;stroke-miterlimit:10;" d="
			M816.351,538.049c6.645,1.1,17.995,2.98,17.995,2.98l-0.666,2.536c-0.082,0.316-2.083,7.817-6.605,15.02
			c-6.129,9.765-13.973,14.288-22.718,13.117 M809.015,566.95c11.095-1.623,17.2-16.143,19.251-22.085c0,0-8.901-1.475-12.568-2.082
			"/>
	</g>
	<g>
		
			<path style="fill:none;stroke:#FFFFFF;stroke-width:2.6077;stroke-linecap:round;stroke-linejoin:round;stroke-miterlimit:10;" d="
			M773.782,535.841c-3.641-0.603-12.613-2.089-12.613-2.089c0.026,6.4,1.164,22.572,11.654,27.38 M774.178,566.648
			c-8.131-2.016-13.75-8.73-16.305-19.524c-1.958-8.276-1.434-16.022-1.41-16.348l0.187-2.615c0,0,10.974,1.818,17.658,2.924"/>
	</g>
	<path style="fill:none;stroke:#FFFFFF;stroke-width:2.6077;stroke-linecap:round;stroke-linejoin:round;stroke-miterlimit:10;" d="
		M775.935,525.324c-1.246,7.278-4.123,25.058-3.518,30.882c1.242,11.962,7.589,18.102,15.502,19.413l0.815,0.135l0.815,0.135
		c7.912,1.311,15.9-2.456,20.933-13.378c2.517-5.464,5.73-23.844,6.853-30.93"/>
	<path style="fill:none;stroke:#FFFFFF;stroke-width:2.6077;stroke-linecap:round;stroke-linejoin:round;stroke-miterlimit:10;" d="
		M795.325,599.763l-20.571-3.407c-2.984-0.494-5.805,1.524-6.299,4.51l31.379,5.197
		C800.328,603.077,798.309,600.257,795.325,599.763z"/>
	
		<rect x="773.097" y="594.235" transform="matrix(0.1634 -0.9866 0.9866 0.1634 50.1138 1284.7606)" style="fill:none;stroke:#FFFFFF;stroke-width:2.6077;stroke-linecap:round;stroke-linejoin:round;stroke-miterlimit:10;" width="18.993" height="37.193"/>
	
		<rect x="777.752" y="603.258" transform="matrix(0.1634 -0.9866 0.9866 0.1634 36.4362 1292.9479)" style="fill:none;stroke:#FFFFFF;stroke-width:2.6077;stroke-linecap:round;stroke-linejoin:round;stroke-miterlimit:10;" width="5.654" height="43.464"/>
	<path style="fill:none;stroke:#FFFFFF;stroke-width:2.6077;stroke-linecap:round;stroke-linejoin:round;stroke-miterlimit:10;" d="
		M821.472,528.826c-0.287,1.733-1.924,2.905-3.658,2.619l-41.316-6.843c-1.732-0.287-2.904-1.925-2.617-3.658l0,0
		c0.287-1.733,1.924-2.905,3.658-2.618l41.315,6.843C820.586,525.456,821.759,527.093,821.472,528.826L821.472,528.826z"/>
</g>
<g>
	<path style="fill:none;stroke:#FFFFFF;stroke-width:2.6077;stroke-linecap:round;stroke-linejoin:round;stroke-miterlimit:10;" d="
		M316.574,189.373l-36.281,63.338l111.062,63.62L316.574,189.373z M298.191,247.85l18.542-32.369l38.218,64.884L298.191,247.85z"/>
	
		<line style="fill:none;stroke:#FFFFFF;stroke-width:2.6077;stroke-linecap:round;stroke-linejoin:round;stroke-miterlimit:10;" x1="293.686" y1="252.531" x2="290.465" y2="257.93"/>
	
		<line style="fill:none;stroke:#FFFFFF;stroke-width:2.6077;stroke-linecap:round;stroke-linejoin:round;stroke-miterlimit:10;" x1="303.208" y1="257.755" x2="299.986" y2="263.154"/>
	
		<line style="fill:none;stroke:#FFFFFF;stroke-width:2.6077;stroke-linecap:round;stroke-linejoin:round;stroke-miterlimit:10;" x1="312.364" y1="262.971" x2="309.142" y2="268.371"/>
	
		<line style="fill:none;stroke:#FFFFFF;stroke-width:2.6077;stroke-linecap:round;stroke-linejoin:round;stroke-miterlimit:10;" x1="321.885" y1="268.195" x2="318.663" y2="273.594"/>
	
		<line style="fill:none;stroke:#FFFFFF;stroke-width:2.6077;stroke-linecap:round;stroke-linejoin:round;stroke-miterlimit:10;" x1="331.546" y1="274.358" x2="328.324" y2="279.757"/>
	
		<line style="fill:none;stroke:#FFFFFF;stroke-width:2.6077;stroke-linecap:round;stroke-linejoin:round;stroke-miterlimit:10;" x1="341.067" y1="279.582" x2="337.845" y2="284.981"/>
	
		<line style="fill:none;stroke:#FFFFFF;stroke-width:2.6077;stroke-linecap:round;stroke-linejoin:round;stroke-miterlimit:10;" x1="350.223" y1="284.798" x2="347.001" y2="290.198"/>
	
		<line style="fill:none;stroke:#FFFFFF;stroke-width:2.6077;stroke-linecap:round;stroke-linejoin:round;stroke-miterlimit:10;" x1="359.744" y1="290.022" x2="356.523" y2="295.421"/>
	
		<line style="fill:none;stroke:#FFFFFF;stroke-width:2.6077;stroke-linecap:round;stroke-linejoin:round;stroke-miterlimit:10;" x1="369.847" y1="295.942" x2="366.625" y2="301.341"/>
</g>
<g>
	<g>
		<path style="fill:#FFFFFF;" d="M105.931,85.103l-0.699,30.278c0,0-3.567-0.792-6.591,1.439c-4.311,3.18-3.011,7.461-0.215,8.549
			c4.086,1.589,9.386-1.3,9.501-6.282c0.172-7.425,0.685-29.703,0.685-29.703l20.304-3.271l-0.193,25.018
			c0,0-3.144-0.84-6.544,1.095c-5.521,3.143-3.111,10.186,1.984,9.537c2.539-0.324,5.68-2.457,6.26-6.855
			c1.126-8.531,1.115-34.391,1.115-34.391L105.931,85.103z"/>
	</g>
</g>
<g>
	<g>
		<g>
			
				<path style="fill:none;stroke:#FFFFFF;stroke-width:2.6077;stroke-linecap:round;stroke-linejoin:round;stroke-miterlimit:10;" d="
				M357.079,530.333c-0.049-2.492,0.871-5.061,3.271-6.183l0.495-0.232c2.698-1.264,5.826,0.313,7.683,2.465"/>
			
				<path style="fill:none;stroke:#FFFFFF;stroke-width:2.6077;stroke-linecap:round;stroke-linejoin:round;stroke-miterlimit:10;" d="
				M256.178,480.935c0.121-2.27,0.379-7.164,0.379-7.164s7.948-2.472,12.256-5.692c13.382-9.997,26.291-21.95,43.376-24.071
				c7.154-0.887,11.078,2.343,12.853,4.491"/>
			
				<path style="fill:none;stroke:#FFFFFF;stroke-width:2.6077;stroke-linecap:round;stroke-linejoin:round;stroke-miterlimit:10;" d="
				M394.834,416.889c-1.912-1.429-5.471-4.091-5.471-4.091s-6.585,6.413-11.816,7.66c-16.248,3.878-34.564,3.253-47.134,15.019
				c-5.002,4.683-5.278,9.506-4.852,12.324"/>
			
				<path style="fill:none;stroke:#FFFFFF;stroke-width:2.6077;stroke-linecap:round;stroke-linejoin:round;stroke-miterlimit:10;" d="
				M400.796,418.62l-3.241-2.653l-60.145,33.268c-3.033-3.037-10.158-1.394-11.863-0.698l-0.495,0.233
				c-2.18,1.232-6.372,4.778-5.98,9.052l-65.252,24.275l-0.112,4.186"/>
			
				<path style="fill:none;stroke:#FFFFFF;stroke-width:2.6077;stroke-linecap:round;stroke-linejoin:round;stroke-miterlimit:10;" d="
				M323.702,460.506c-0.049-2.493,1.341-4.903,3.739-6.026l0.495-0.233c2.699-1.263,5.827-0.503,7.684,1.648"/>
		</g>
		
			<polygon style="fill:none;stroke:#FFFFFF;stroke-width:2.6077;stroke-linecap:round;stroke-linejoin:round;stroke-miterlimit:10;" points="
			369.224,527.603 429.427,492.73 400.796,418.62 335.824,455.726 		"/>
		
			<polygon style="fill:none;stroke:#FFFFFF;stroke-width:2.6077;stroke-linecap:round;stroke-linejoin:round;stroke-miterlimit:10;" points="
			292.302,555.728 358.103,532.811 324.279,461.132 253.708,486.283 		"/>
	</g>
	<g>
		
			<polygon style="fill:none;stroke:#FFFFFF;stroke-width:2.6077;stroke-linecap:round;stroke-linejoin:round;stroke-miterlimit:10;" points="
			352.916,468.399 357.671,478.557 404.301,452.409 399.397,441.936 		"/>
		
			<line style="fill:none;stroke:#FFFFFF;stroke-width:2.6077;stroke-linecap:round;stroke-linejoin:round;stroke-miterlimit:10;" x1="361.342" y1="485.379" x2="407.971" y2="459.229"/>
		
			<line style="fill:none;stroke:#FFFFFF;stroke-width:2.6077;stroke-linecap:round;stroke-linejoin:round;stroke-miterlimit:10;" x1="379.168" y1="490.512" x2="400.483" y2="478.203"/>
	</g>
</g>
<path style="fill:#FFFFFF;" d="M851.125,377.252l-17.523-5.507c-0.86-0.27-1.778,0.208-2.049,1.07
	c-0.271,0.861,0.208,1.779,1.07,2.049l1.432,0.45l-17.274,54.972c-1.272,4.049,0.978,8.361,5.027,9.633
	c4.048,1.272,8.36-0.978,9.633-5.026l17.273-54.972l1.432,0.45c0.861,0.27,1.778-0.209,2.049-1.07
	C852.464,378.44,851.985,377.523,851.125,377.252z M836.153,409.83l-7.591,24.158c-0.772,2.456-3.397,3.826-5.853,3.054
	c-2.455-0.771-3.825-3.397-3.054-5.851l7.591-24.159l9.794-31.167l8.906,2.798L836.153,409.83z"/>
<g>
	<path style="fill:none;stroke:#FFFFFF;stroke-width:2.6077;stroke-linecap:round;stroke-linejoin:round;stroke-miterlimit:10;" d="
		M162.906,598.062L156.3,572.51l1.542-0.398c1.347-0.348,2.162-1.728,1.814-3.072c-0.348-1.348-1.729-2.158-3.075-1.81
		l-15.423,3.987c-1.346,0.348-2.156,1.724-1.808,3.072c0.348,1.343,1.723,2.157,3.069,1.809l1.543-0.399l6.606,25.552
		c-8.231,4.961-12.604,14.893-10.076,24.675c3.083,11.924,15.25,19.092,27.176,16.01c11.923-3.083,19.092-15.25,16.009-27.174
		C181.15,604.981,172.509,598.413,162.906,598.062z"/>
	<path style="fill:none;stroke:#FFFFFF;stroke-width:2.6077;stroke-linecap:round;stroke-linejoin:round;stroke-miterlimit:10;" d="
		M178.608,614.813c0.341-4.942-4.883-8.757-9.032-7.684c-1.536,0.398-2.857,1.199-3.894,2.253c-1.16-1.147-2.873-1.676-4.566-1.238
		c-1.284,0.332-2.31,1.154-2.931,2.214c-1.311-0.57-2.812-0.728-4.303-0.343c-3.183,0.823-5.22,3.821-4.945,6.992
		c-3.614-0.341-5.278,4.379-4.579,7.083c0,0-4.17,0.653-3.864,1.837c3.083,11.924,15.25,19.092,27.176,16.01
		c11.923-3.083,19.092-15.25,16.009-27.174C183.372,613.579,178.608,614.813,178.608,614.813z"/>
</g>
<g>
	<g>
		
			<path style="fill:none;stroke:#FFFFFF;stroke-width:2.6077;stroke-linecap:round;stroke-linejoin:round;stroke-miterlimit:10;" d="
			M682.267,128.787c1.314,5.506,4.157,10.715,8.518,14.949c12.231,11.875,31.776,11.586,43.651-0.645
			c0.429-0.442,0.842-0.894,1.24-1.354"/>
		
			<path style="fill:none;stroke:#FFFFFF;stroke-width:2.6077;stroke-linecap:round;stroke-linejoin:round;stroke-miterlimit:10;" d="
			M741.373,131.949c3.919-11.029,1.362-23.818-7.587-32.505c-12.23-11.874-31.769-11.585-43.644,0.646
			c-5.089,5.243-7.945,11.828-8.583,18.578"/>
		
			<path style="fill:none;stroke:#FFFFFF;stroke-width:2.6077;stroke-linecap:round;stroke-linejoin:round;stroke-miterlimit:10;" d="
			M686.917,104.016c-1.785,2.569-3.132,5.347-4.045,8.231c-5.487-0.188-8.908,0.335-9.192,1.653
			c-0.291,1.327,2.664,3.247,7.831,5.379c0.83,0.343,1.71,0.691,2.65,1.042c6.947,2.603,16.786,5.418,27.827,7.818
			c8.441,1.834,16.341,3.153,22.9,3.905c2.253,0.258,4.332,0.444,6.237,0.566c6.9,0.441,11.303-0.026,11.629-1.525
			c0.325-1.487-3.421-3.718-9.787-6.156c0.329-3.039,0.207-6.111-0.362-9.117c18.554,6.456,30.584,14.01,29.401,19.456
			c-1.196,5.504-15.58,7.36-35.475,5.432c-1.603-0.154-3.235-0.33-4.905-0.536c-6.725-0.823-13.956-2.042-21.452-3.67
			c-9.729-2.116-18.774-4.675-26.638-7.426c-0.44-0.154-0.869-0.307-1.301-0.463c-17.644-6.329-28.958-13.604-27.807-18.891
			C655.563,104.49,668.579,102.549,686.917,104.016z"/>
	</g>
</g>
<g>
	<path style="fill:none;stroke:#FFFFFF;stroke-width:2.6077;stroke-linecap:round;stroke-linejoin:round;stroke-miterlimit:10;" d="
		M1004.242,486.68c-1.387-3.217-7.093-3.823-10.325-5.055c-2.169-0.833-5.606-1.789-8.155-3.403
		c-2.282,15.777,3.682,30.846,14.889,41.006c0.424-3.907-0.646-8.799-0.671-11.844C999.906,500.372,1007.342,493.83,1004.242,486.68
		z"/>
	<path style="fill:none;stroke:#FFFFFF;stroke-width:2.6077;stroke-linecap:round;stroke-linejoin:round;stroke-miterlimit:10;" d="
		M1074.936,491.685c-0.811,0.485-0.387,1.067-0.747,1.751c-0.789,1.508-1.113,3.352-1.918,4.809
		c-2.209,4.037-4.387,2.677-8.854,3.831c-4.726,1.223-4.582,4.165-2.847,7.962c1.598,3.488,2.349,6.849,2.71,10.69
		c0.043,0.499,0.171,1.246,0.318,2.079c10.135-7.07,17.556-17.764,19.958-30.489
		C1080.541,491.633,1076.414,490.789,1074.936,491.685z"/>
	<g>
		<g>
			
				<path style="fill:none;stroke:#FFFFFF;stroke-width:2.6077;stroke-linecap:round;stroke-linejoin:round;stroke-miterlimit:10;" d="
				M1063.746,445.249c-4.881,1.078-9.692,1.687-10.75,1.762c-6.693,0.509-20.499-2.141-20.865,7.481
				c-0.155,3.911,2.09,7.861,1.404,11.69c-0.39,2.158-1.006,2.382-3.102,2.983c-1.99,0.571-4.042,0.714-6.099,0.85
				c-0.777,0.05-3.016-0.05-4.726,0.165c-0.824,0.103-1.538,0.278-1.867,0.6c-1.378,1.315-0.358,4.239,0.407,5.554
				c2.117,3.655,6.804,5.221,10.876,6.597c0.601,0.203,1.181,0.398,1.743,0.6c5.878,2.074,9.426,3.516,8.329,9.973
				c-0.138,0.823-0.249,1.651-0.461,2.434c-0.237,0.864-0.62,1.661-1.371,2.322c-1.615,1.395-4.261,0.888-5.877,2.085
				c-4.292,3.186-0.335,10.121,3.318,12.123c2.438,1.328,5.278,1.458,6.976,3.802c1.625,2.255,1.301,4.921,1.949,7.41
				c0.626,2.461,2.187,4.814,4.305,6.438c4.294-1.191,8.388-2.902,12.177-5.097c1.195-0.69,2.352-1.418,3.485-2.211
				c-0.148-0.832-0.275-1.58-0.318-2.079c-0.361-3.841-1.113-7.201-2.71-10.69c-1.735-3.797-1.879-6.738,2.847-7.962
				c4.467-1.154,6.645,0.206,8.854-3.831c0.805-1.458,1.129-3.301,1.918-4.809c0.36-0.685-0.064-1.267,0.747-1.751
				c1.478-0.896,5.605-0.052,8.62,0.634c0.03-0.158,0.08-0.305,0.108-0.452C1087,473.232,1078.64,455.426,1063.746,445.249z"/>
			
				<path style="fill:none;stroke:#FFFFFF;stroke-width:2.6077;stroke-linecap:round;stroke-linejoin:round;stroke-miterlimit:10;" d="
				M1021.979,447.397c0.44-1.836-0.333-4.554-1.178-6.178c-0.394-0.745-0.84-1.461-1.31-2.165
				c-5.987,1.946-11.502,4.999-16.302,8.896c-3.527,2.855-6.674,6.153-9.293,9.862c2.746-0.923,5.769-1.135,8.355-2.701
				c1.42-0.849,3.1-1.455,4.802-1.934c1.119-0.314,2.259-0.595,3.321-0.8C1014.207,451.618,1020.828,452.171,1021.979,447.397z"/>
		</g>
		
			<path style="fill:none;stroke:#FFFFFF;stroke-width:2.6077;stroke-linecap:round;stroke-linejoin:round;stroke-miterlimit:10;" d="
			M1043.245,437.143c-8.228-1.28-16.323-0.499-23.754,1.91c0.469,0.704,0.916,1.42,1.31,2.165c0.844,1.624,1.617,4.342,1.178,6.178
			c-1.15,4.774-7.772,4.222-11.604,4.979c-1.063,0.205-2.202,0.486-3.321,0.8c-1.702,0.479-3.382,1.085-4.802,1.934
			c-2.586,1.567-5.609,1.778-8.355,2.701c-3.891,5.528-6.691,11.885-7.939,18.866c-0.093,0.522-0.119,1.037-0.194,1.545
			c2.548,1.614,5.986,2.57,8.155,3.403c3.232,1.232,8.938,1.838,10.325,5.055c3.1,7.15-4.336,13.692-4.261,20.704
			c0.024,3.045,1.094,7.937,0.671,11.844c6.87,6.228,15.68,10.599,25.727,12.162c7.437,1.156,14.739,0.604,21.557-1.274
			c-2.117-1.624-3.679-3.976-4.305-6.438c-0.648-2.489-0.324-5.155-1.949-7.41c-1.698-2.344-4.539-2.474-6.976-3.802
			c-3.654-2.001-7.611-8.937-3.318-12.123c1.616-1.196,4.261-0.69,5.877-2.085c0.751-0.661,1.134-1.457,1.371-2.322
			c0.212-0.783,0.323-1.611,0.461-2.434c1.097-6.457-2.45-7.899-8.329-9.973c-0.562-0.202-1.142-0.397-1.743-0.6
			c-4.072-1.376-8.759-2.941-10.876-6.597c-0.766-1.315-1.786-4.239-0.407-5.554c0.329-0.322,1.043-0.497,1.867-0.6
			c1.71-0.215,3.949-0.115,4.726-0.165c2.057-0.137,4.109-0.279,6.099-0.85c2.096-0.601,2.713-0.825,3.102-2.983
			c0.686-3.828-1.559-7.778-1.404-11.69c0.366-9.622,14.172-6.971,20.865-7.481c1.058-0.076,5.869-0.685,10.75-1.762
			C1057.83,441.205,1050.912,438.334,1043.245,437.143z"/>
	</g>
</g>
<g>
	<path style="fill:none;stroke:#FFFFFF;stroke-width:2.6077;stroke-linecap:round;stroke-linejoin:round;stroke-miterlimit:10;" d="
		M298.955,65.307c-17.213,10.401-22.722,32.779-12.322,49.99c9.574,15.834,29.272,21.741,45.773,14.48l4.045-2.441l4.048-2.446
		c14.1-11.237,18.031-31.426,8.458-47.263C338.55,60.416,316.162,54.903,298.955,65.307z M332.75,121.212
		c-13.665,8.258-31.442,3.874-39.7-9.79c-8.257-13.663-3.884-31.437,9.785-39.696c13.664-8.26,31.444-3.879,39.699,9.788
		C350.798,95.178,346.413,112.951,332.75,121.212z"/>
	<path style="fill:none;stroke:#FFFFFF;stroke-width:2.6077;stroke-linecap:round;stroke-linejoin:round;stroke-miterlimit:10;" d="
		M349.82,128.635l-1.495-2.482c-1.467-2.422-4.616-3.207-7.047-1.737l-0.78,0.474l-4.048,2.446l-4.045,2.441l-0.781,0.474
		c-2.425,1.462-3.206,4.628-1.743,7.051l1.506,2.486c1.461,2.416,4.619,3.198,7.049,1.731c-2.43,1.467-3.21,4.621-1.744,7.05
		l19.399,32.091c1.462,2.423,4.619,3.195,7.054,1.732l4.821-2.915l4.83-2.924c2.428-1.466,3.199-4.617,1.73-7.041l-19.4-32.095
		c-1.466-2.421-4.61-3.207-7.041-1.736C350.518,134.211,351.292,131.062,349.82,128.635z"/>
</g>
<g>
	<path style="fill:none;stroke:#FFFFFF;stroke-width:2.6077;stroke-linecap:round;stroke-linejoin:round;stroke-miterlimit:10;" d="
		M875.648,266.06c-0.19,8.591-0.871,39.299-1.216,54.866"/>
	<path style="fill:none;stroke:#FFFFFF;stroke-width:2.6077;stroke-linecap:round;stroke-linejoin:round;stroke-miterlimit:10;" d="
		M879.654,322.861c0.311-14.038,0.979-44.185,1.219-55.001"/>
	<path style="fill:none;stroke:#FFFFFF;stroke-width:2.6077;stroke-linecap:round;stroke-linejoin:round;stroke-miterlimit:10;" d="
		M941.642,229.884c-11.776,4.986-43.323,18.341-53.438,22.624"/>
	<path style="fill:none;stroke:#FFFFFF;stroke-width:2.6077;stroke-linecap:round;stroke-linejoin:round;stroke-miterlimit:10;" d="
		M889.974,257.475c9.823-4.159,42.01-17.785,53.82-22.785"/>
	<path style="fill:none;stroke:#FFFFFF;stroke-width:2.6077;stroke-linecap:round;stroke-linejoin:round;stroke-miterlimit:10;" d="
		M872.683,255.348c-1.758,4.621,0.563,9.793,5.185,11.552c4.623,1.759,9.795-0.562,11.553-5.184
		c1.759-4.622-0.562-9.793-5.185-11.552C879.613,248.405,874.441,250.726,872.683,255.348z M877.393,257.14
		c0.769-2.021,3.03-3.035,5.05-2.266c2.02,0.769,3.034,3.029,2.264,5.049c-0.768,2.02-3.028,3.035-5.048,2.267
		C877.639,261.421,876.625,259.159,877.393,257.14z"/>
	<path style="fill:none;stroke:#FFFFFF;stroke-width:2.6077;stroke-linecap:round;stroke-linejoin:round;stroke-miterlimit:10;" d="
		M856.064,326.431l1.649-4.335c1.373-3.607,5.409-5.418,9.015-4.046l22.375,8.513c3.608,1.373,5.419,5.408,4.046,9.016l-1.649,4.335
		L856.064,326.431z"/>
	<path style="fill:none;stroke:#FFFFFF;stroke-width:2.6077;stroke-linecap:round;stroke-linejoin:round;stroke-miterlimit:10;" d="
		M950.585,237.262c-1.822-4.186-6.469-14.805-6.469-14.805l-4.473,1.948c0,0,4.695,10.73,6.503,14.884"/>
	
		<polygon style="fill:none;stroke:#FFFFFF;stroke-width:2.6077;stroke-linecap:round;stroke-linejoin:round;stroke-miterlimit:10;" points="
		945.955,269.617 972.925,258.868 956.329,236.087 942.009,242.337 	"/>
</g>
<g>
	
		<polygon style="fill:none;stroke:#FFFFFF;stroke-width:2.6077;stroke-linecap:round;stroke-linejoin:round;stroke-miterlimit:10;" points="
		1082.922,358.57 1079.354,351.064 1068.767,352.645 1075.009,365.782 	"/>
	
		<polygon style="fill:none;stroke:#FFFFFF;stroke-width:2.6077;stroke-linecap:round;stroke-linejoin:round;stroke-miterlimit:10;" points="
		1091.261,350.352 1079.409,351.175 1082.869,358.452 	"/>
	
		<polygon style="fill:none;stroke:#FFFFFF;stroke-width:2.6077;stroke-linecap:round;stroke-linejoin:round;stroke-miterlimit:10;" points="
		1029.769,376.625 1029.769,376.623 1031.795,380.888 1033.903,385.325 1075.011,365.781 1072.899,361.345 1070.873,357.082 
		1070.875,357.08 1068.767,352.645 1027.66,372.189 	"/>
	
		<line style="fill:none;stroke:#FFFFFF;stroke-width:2.6077;stroke-linecap:round;stroke-linejoin:round;stroke-miterlimit:10;" x1="1070.976" y1="359.942" x2="1031.693" y2="378.734"/>
</g>
<g>
	<path style="fill:none;stroke:#FFFFFF;stroke-width:2.6077;stroke-linecap:round;stroke-linejoin:round;stroke-miterlimit:10;" d="
		M231.346,304.044c3.752-1.282,6.101-2.084,6.101-2.084c3.269-1.116,6.824,0.629,7.941,3.898l17.352,50.804
		c1.116,3.268-0.629,6.825-3.897,7.941l-58.113,19.848c-3.268,1.117-6.824-0.629-7.941-3.898l-17.352-50.804
		c-1.117-3.269,0.629-6.824,3.898-7.941c0,0,2.225-0.76,5.805-1.983"/>
	<path style="fill:none;stroke:#FFFFFF;stroke-width:2.6077;stroke-linecap:round;stroke-linejoin:round;stroke-miterlimit:10;" d="
		M194.259,316.711c8.779-2.999,19.833-6.774,28.56-9.755"/>
	<g>
		
			<path style="fill:none;stroke:#FFFFFF;stroke-width:2.6077;stroke-linecap:round;stroke-linejoin:round;stroke-miterlimit:10;" d="
			M194.844,320.009c0.788,2.306-0.443,4.814-2.75,5.602l0,0c-2.306,0.787-4.814-0.444-5.602-2.75l-2.497-7.308
			c-0.788-2.306,0.443-4.815,2.75-5.602l0,0c2.307-0.788,4.815,0.443,5.603,2.749L194.844,320.009z"/>
		
			<path style="fill:none;stroke:#FFFFFF;stroke-width:2.6077;stroke-linecap:round;stroke-linejoin:round;stroke-miterlimit:10;" d="
			M232.429,307.171c0.788,2.307-0.444,4.815-2.75,5.602l0,0c-2.306,0.788-4.815-0.442-5.603-2.749l-2.496-7.308
			c-0.788-2.307,0.444-4.815,2.75-5.603l0,0c2.306-0.788,4.815,0.444,5.602,2.75L232.429,307.171z"/>
	</g>
	<g>
		<path style="fill:#FFFFFF;" d="M203.118,337.729c0.685-0.431,1.46-0.744,2.073-0.953c0.658-0.225,1.374-0.421,2.223-0.515
			l7.414,21.705c0.359,1.053,0.615,1.944,0.96,2.953c0.658-0.224,2.002-0.733,2.572-0.927l3.026-1.034
			c0.341,0.57,0.61,1.212,0.834,1.869c0.21,0.615,0.391,1.287,0.469,1.946l-16.531,5.647c-0.357-0.613-0.61-1.212-0.819-1.826
			c-0.225-0.657-0.406-1.33-0.484-1.989l4.034-1.377c0.57-0.196,1.9-0.6,2.514-0.811c-0.344-1.008-0.687-1.869-1.047-2.922
			l-3.415-9.997c-0.374-1.096-1.052-3.509-1.593-5.381c-0.963,2.63-2.834,5.178-4.697,6.892c-1.145-0.197-2.249-0.995-2.857-2.06
			C201.147,344.865,202.847,340.807,203.118,337.729z"/>
		<path style="fill:#FFFFFF;" d="M235.771,328.681c0.449,1.315-0.012,2.256-1.329,2.705l-7.585,2.591l-1.666,0.569l0.749,2.192
			l0.873,3.13l0.257,1.185c1.019-0.887,2.186-1.628,3.589-2.106c5.349-1.828,10.085,0.423,12.016,6.08
			c2.427,7.103-1.508,12.07-6.507,13.778c-3.463,1.183-6.761,0.987-9.201,0.009c-0.139-0.981,0.199-2.712,0.895-3.685
			c2.174,0.629,4.359,0.862,6.727,0.054c2.938-1.004,4.939-3.89,3.441-8.275c-1.513-4.428-4.812-4.771-7.356-3.902
			c-1.709,0.583-3.238,1.841-4.31,3.578c-0.878,0.153-2.097-0.263-2.717-0.786l-3.894-13.409l0.202-0.412l14.865-5.077
			C235.264,327.483,235.607,328.199,235.771,328.681z"/>
	</g>
</g>
<g>
	<path style="fill:none;stroke:#FFFFFF;stroke-width:1.7943;stroke-linecap:round;stroke-linejoin:round;stroke-miterlimit:10;" d="
		M911.084,588.165c1.083,2.62-0.163,5.62-2.78,6.702l-11.427,4.724c-2.618,1.083-5.62-0.163-6.702-2.781l-4.723-11.425
		c-1.083-2.619,0.162-5.62,2.781-6.702l11.426-4.725c2.619-1.082,5.62,0.163,6.701,2.781L911.084,588.165z"/>
	<path style="fill:#FFFFFF;" d="M894.742,581.693c0.356-0.239,0.735-0.426,1.175-0.608c0.441-0.181,0.866-0.327,1.261-0.399
		l1.317,3.188c0.161,0.387,0.328,0.865,0.5,1.28c0.388-0.16,0.844-0.379,1.258-0.55l2.955-1.222
		c0.238,0.357,0.393,0.657,0.574,1.097c0.182,0.441,0.318,0.84,0.378,1.209l-2.954,1.222c-0.414,0.172-0.892,0.339-1.28,0.499
		c0.171,0.415,0.39,0.871,0.539,1.234l1.329,3.212c-0.331,0.228-0.734,0.425-1.149,0.597c-0.466,0.193-0.865,0.327-1.287,0.411
		l-1.328-3.214c-0.15-0.363-0.318-0.84-0.489-1.255c-0.415,0.172-0.87,0.39-1.259,0.552l-2.954,1.22
		c-0.217-0.304-0.403-0.682-0.586-1.124c-0.182-0.441-0.295-0.787-0.368-1.182l2.955-1.222c0.389-0.161,0.866-0.327,1.281-0.498
		c-0.172-0.415-0.391-0.872-0.551-1.26L894.742,581.693z"/>
	<path style="fill:none;stroke:#FFFFFF;stroke-width:1.7943;stroke-linecap:round;stroke-linejoin:round;stroke-miterlimit:10;" d="
		M937.18,577.377c1.082,2.618-0.163,5.619-2.782,6.702l-11.426,4.724c-2.618,1.082-5.618-0.163-6.701-2.782l-4.725-11.426
		c-1.081-2.617,0.164-5.618,2.782-6.701l11.426-4.723c2.619-1.082,5.619,0.162,6.702,2.78L937.18,577.377z"/>
	<path style="fill:#FFFFFF;" d="M921.626,578.468c-0.253-0.32-0.462-0.751-0.6-1.087c-0.15-0.363-0.306-0.814-0.353-1.22
		l6.428-2.658c0.254,0.321,0.462,0.75,0.612,1.114c0.139,0.336,0.295,0.787,0.342,1.193L921.626,578.468z"/>
	<path style="fill:none;stroke:#FFFFFF;stroke-width:1.7943;stroke-linecap:round;stroke-linejoin:round;stroke-miterlimit:10;" d="
		M921.434,613.196c1.083,2.619-0.163,5.62-2.781,6.703l-11.427,4.723c-2.617,1.083-5.619-0.162-6.701-2.781l-4.724-11.425
		c-1.082-2.618,0.163-5.62,2.781-6.702l11.426-4.724c2.619-1.082,5.62,0.163,6.703,2.781L921.434,613.196z"/>
	<path style="fill:none;stroke:#FFFFFF;stroke-width:1.7943;stroke-linecap:round;stroke-linejoin:round;stroke-miterlimit:10;" d="
		M947.529,602.408c1.083,2.619-0.163,5.621-2.781,6.703l-11.426,4.724c-2.618,1.083-5.62-0.163-6.702-2.782l-4.723-11.426
		c-1.083-2.618,0.163-5.619,2.781-6.701l11.426-4.723c2.619-1.083,5.62,0.163,6.702,2.781L947.529,602.408z"/>
	<g>
		<path style="fill:#FFFFFF;" d="M933.442,607.415c-0.463-0.02-0.881-0.151-1.274-0.293c-0.366-0.153-0.764-0.381-1.081-0.706
			l1.516-3.601c0.126-0.356,0.303-0.733,0.456-1.099l-1.11-0.481l-3.616-1.48c0.006-0.428,0.075-0.849,0.256-1.289
			c0.168-0.404,0.408-0.775,0.706-1.081l3.626,1.505c0.341,0.163,0.729,0.367,1.095,0.519c0.178-0.377,0.334-0.807,0.471-1.137
			l1.468-3.641c0.427,0.006,0.861,0.099,1.264,0.267c0.403,0.167,0.776,0.408,1.118,0.722l-1.515,3.6
			c-0.127,0.355-0.346,0.779-0.498,1.147c0.356,0.126,0.81,0.272,1.14,0.408l3.626,1.506c-0.021,0.463-0.1,0.86-0.266,1.263
			c-0.167,0.403-0.423,0.812-0.732,1.092l-3.6-1.515l-1.125-0.446l-0.43,1.089L933.442,607.415z"/>
	</g>
	<g>
		<path style="fill:#FFFFFF;" d="M903.662,615.161c-0.218-0.305-0.425-0.735-0.575-1.098c-0.149-0.363-0.296-0.787-0.378-1.208
			l10.832-4.479c0.239,0.356,0.437,0.76,0.587,1.123c0.15,0.362,0.306,0.814,0.367,1.183L903.662,615.161z M904.902,606.636
			c0.236-0.31,0.726-0.665,1.218-0.869c0.468-0.192,1.117-0.309,1.477-0.246c0.248,0.232,0.543,0.655,0.694,1.019
			c0.15,0.363,0.239,0.871,0.216,1.185c-0.184,0.288-0.753,0.675-1.22,0.867c-0.492,0.204-1.105,0.337-1.476,0.247
			c-0.236-0.205-0.533-0.629-0.683-0.992C904.98,607.484,904.89,606.974,904.902,606.636z M908.726,615.887
			c0.238-0.309,0.728-0.663,1.22-0.867c0.466-0.193,1.117-0.31,1.477-0.247c0.236,0.207,0.543,0.656,0.683,0.993
			c0.161,0.388,0.239,0.872,0.227,1.211c-0.184,0.288-0.752,0.675-1.218,0.868c-0.493,0.204-1.117,0.309-1.477,0.247
			c-0.248-0.232-0.533-0.63-0.694-1.018C908.794,616.709,908.705,616.202,908.726,615.887z"/>
	</g>
</g>
<g>
	
		<ellipse transform="matrix(0.9644 -0.2643 0.2643 0.9644 -58.8911 40.8373)" style="fill:none;stroke:#FFFFFF;stroke-width:2.6077;stroke-linecap:round;stroke-linejoin:round;stroke-miterlimit:10;" cx="122.327" cy="239.288" rx="34.257" ry="34.257"/>
	<g>
		
			<ellipse transform="matrix(0.9645 -0.2642 0.2642 0.9645 -61.3543 34.9768)" style="fill:#FFFFFF;" cx="99.355" cy="245.583" rx="1.992" ry="1.992"/>
		
			<ellipse transform="matrix(0.9644 -0.2643 0.2643 0.9644 -56.4105 46.6842)" style="fill:#FFFFFF;" cx="145.297" cy="232.993" rx="1.992" ry="1.992"/>
	</g>
	<g>
		
			<ellipse transform="matrix(0.9645 -0.2643 0.2643 0.9645 -53.0383 38.3513)" style="fill:#FFFFFF;" cx="116.031" cy="216.317" rx="1.992" ry="1.992"/>
		
			<ellipse transform="matrix(0.9644 -0.2646 0.2646 0.9644 -64.8056 43.3771)" style="fill:#FFFFFF;" cx="128.621" cy="262.259" rx="1.992" ry="1.992"/>
	</g>
	<path style="fill:#FFFFFF;" d="M136.824,219.221c-0.1-0.437-0.365-0.809-0.744-1.047c-0.268-0.168-0.576-0.257-0.889-0.257
		c-0.583,0-1.116,0.294-1.426,0.788l-11.92,19.02l-13.026-4.65c-0.183-0.066-0.373-0.099-0.564-0.099
		c-0.708,0-1.343,0.448-1.582,1.116c-0.151,0.422-0.128,0.878,0.064,1.283c0.192,0.406,0.531,0.712,0.954,0.863l14.162,5.056
		c0.217,0.098,0.446,0.164,0.685,0.164c0.083,0,0.162-0.018,0.243-0.031c0.022-0.003,0.043-0.005,0.065-0.008
		c0.068-0.013,0.134-0.027,0.2-0.048c0.096-0.029,0.191-0.066,0.28-0.111c0.023-0.012,0.044-0.027,0.067-0.041
		c0.289-0.165,0.527-0.413,0.677-0.72l12.541-20.012C136.849,220.109,136.924,219.659,136.824,219.221z"/>
</g>
<g>
	<g>
		
			<path style="fill:none;stroke:#FFFFFF;stroke-width:2.6077;stroke-linecap:round;stroke-linejoin:round;stroke-miterlimit:10;" d="
			M93.633,474.048l1.206,2.895c0.81,1.943,3.041,2.862,4.984,2.053l1.99-0.83c1.149,1.498,2.473,2.813,3.943,3.929l-0.82,1.99
			c-0.802,1.946,0.127,4.174,2.074,4.976l2.899,1.192c1.946,0.802,4.175-0.126,4.975-2.074l0.819-1.989
			c1.827,0.242,3.695,0.241,5.566-0.015l0.829,1.988c0.81,1.942,3.041,2.863,4.984,2.053l2.893-1.207
			c1.943-0.81,2.862-3.043,2.053-4.985l-0.83-1.989c1.498-1.148,2.815-2.474,3.929-3.942l1.989,0.819
			c1.947,0.802,4.175-0.127,4.977-2.074l1.192-2.899c0.802-1.946-0.126-4.175-2.074-4.976l-1.99-0.819
			c0.244-1.828,0.24-3.696-0.014-5.564l1.989-0.83c1.942-0.809,2.862-3.042,2.052-4.986l-1.206-2.893
			c-0.81-1.943-3.042-2.862-4.985-2.052l-1.989,0.829c-1.149-1.497-2.474-2.814-3.943-3.93l0.819-1.988
			c0.803-1.947-0.126-4.175-2.074-4.976l-2.899-1.194c-1.948-0.801-4.174,0.128-4.976,2.074l-0.818,1.99
			c-1.828-0.243-3.696-0.24-5.566,0.015l-0.83-1.99c-0.81-1.941-3.042-2.862-4.984-2.051l-2.894,1.206
			c-1.943,0.809-2.861,3.041-2.051,4.985l0.828,1.99c-1.498,1.147-2.814,2.473-3.928,3.942l-1.99-0.82
			c-1.947-0.801-4.176,0.128-4.977,2.073l-1.193,2.899c-0.802,1.948,0.127,4.176,2.074,4.976l1.989,0.82
			c-0.242,1.828-0.241,3.695,0.015,5.565l-1.989,0.83C93.741,469.874,92.823,472.105,93.633,474.048z M105.301,470.884
			c-3.026-7.258,0.406-15.593,7.662-18.617c7.258-3.026,15.592,0.406,18.618,7.662c3.024,7.257-0.406,15.592-7.664,18.617
			C116.66,481.571,108.325,478.14,105.301,470.884z"/>
		
			<path style="fill:none;stroke:#FFFFFF;stroke-width:2.6077;stroke-linecap:round;stroke-linejoin:round;stroke-miterlimit:10;" d="
			M138.826,426.993l-0.06,2.489c-0.041,1.667,1.28,3.055,2.949,3.095l1.71,0.04c0.349,1.458,0.884,2.839,1.589,4.121l-1.236,1.178
			c-1.21,1.151-1.256,3.067-0.104,4.276l1.717,1.8c1.152,1.209,3.068,1.255,4.276,0.103l1.235-1.177
			c1.247,0.764,2.602,1.366,4.038,1.785l-0.04,1.71c-0.04,1.67,1.28,3.056,2.951,3.097l2.485,0.059
			c1.67,0.039,3.056-1.282,3.095-2.95l0.042-1.71c1.458-0.349,2.838-0.885,4.121-1.589l1.176,1.236
			c1.154,1.21,3.068,1.255,4.276,0.104l1.801-1.717c1.209-1.152,1.255-3.067,0.103-4.275l-1.177-1.235
			c0.765-1.247,1.366-2.601,1.784-4.039l1.71,0.04c1.669,0.04,3.056-1.281,3.097-2.95l0.06-2.487
			c0.04-1.669-1.282-3.057-2.952-3.096l-1.709-0.042c-0.349-1.456-0.885-2.837-1.589-4.119l1.236-1.179
			c1.21-1.151,1.256-3.065,0.104-4.275l-1.716-1.8c-1.152-1.208-3.066-1.257-4.276-0.103l-1.237,1.178
			c-1.245-0.765-2.599-1.368-4.037-1.786l0.04-1.71c0.041-1.669-1.28-3.054-2.95-3.095l-2.486-0.06
			c-1.67-0.04-3.056,1.28-3.096,2.951l-0.042,1.71c-1.457,0.347-2.837,0.883-4.119,1.589l-1.178-1.236
			c-1.154-1.209-3.068-1.255-4.276-0.105l-1.8,1.718c-1.21,1.151-1.255,3.066-0.104,4.276l1.178,1.235
			c-0.766,1.247-1.367,2.602-1.785,4.039l-1.711-0.041C140.253,424.003,138.867,425.323,138.826,426.993z M148.304,428.466
			c0.152-6.236,5.328-11.17,11.563-11.02c6.237,0.151,11.17,5.328,11.019,11.564c-0.15,6.236-5.327,11.17-11.563,11.018
			C153.088,439.88,148.155,434.701,148.304,428.466z"/>
	</g>
</g>
<g>
	<path style="fill:none;stroke:#FFFFFF;stroke-width:2.6077;stroke-linecap:round;stroke-linejoin:round;stroke-miterlimit:10;" d="
		M583.136,166.803c0,0-0.409-3.362,0.256-5.476c1.436-4.565,10.32-10.81,10.092-19.475c-0.227-8.598-5.596-22.53-22.603-19.948
		c-15.944,2.421-19.762,17.239-16.806,25.387c3.739,10.307,12.215,10.002,15.878,14.987c0.656,0.894,1.805,6.251,1.805,6.251
		L583.136,166.803z"/>
	<path style="fill:none;stroke:#FFFFFF;stroke-width:2.6077;stroke-linecap:round;stroke-linejoin:round;stroke-miterlimit:10;" d="
		M585.884,169.104c0.223,1.468-0.786,2.838-2.253,3.061l-11.161,1.695c-1.468,0.223-2.838-0.786-3.061-2.254l0,0
		c-0.223-1.468,0.786-2.838,2.254-3.06l11.161-1.695C584.291,166.628,585.661,167.636,585.884,169.104L585.884,169.104z"/>
	<path style="fill:none;stroke:#FFFFFF;stroke-width:2.6077;stroke-linecap:round;stroke-linejoin:round;stroke-miterlimit:10;" d="
		M586.691,174.419c0.223,1.467-0.786,2.838-2.254,3.06l-11.161,1.695c-1.467,0.223-2.837-0.786-3.061-2.254l0,0
		c-0.223-1.468,0.786-2.838,2.254-3.061l11.161-1.695C585.098,171.942,586.469,172.951,586.691,174.419L586.691,174.419z"/>
	<path style="fill:none;stroke:#FFFFFF;stroke-width:2.6077;stroke-linecap:round;stroke-linejoin:round;stroke-miterlimit:10;" d="
		M579.502,182.579c2.935-0.445,5.026-2.71,4.67-5.058l-10.63,1.613C573.899,181.482,576.567,183.025,579.502,182.579z"/>
	
		<polyline style="fill:none;stroke:#FFFFFF;stroke-width:2.6077;stroke-linecap:round;stroke-linejoin:round;stroke-miterlimit:10;" points="
		576.198,167.32 564.926,140.699 571.361,143.344 572.982,136.887 575.938,142.269 581.6,137.326 578.918,167.291 	"/>
</g>
<g>
	<path style="fill:none;stroke:#FFFFFF;stroke-width:2.6077;stroke-linecap:round;stroke-linejoin:round;stroke-miterlimit:10;" d="
		M994.812,159.506h44.498c4.4,0,7.968,3.567,7.968,7.968v28.57c0,4.401-3.568,7.968-7.968,7.968h-27.402l-13.118,13.118v-13.118
		h-3.979c-4.4,0-7.968-3.567-7.968-7.968v-28.57C986.844,163.073,990.412,159.506,994.812,159.506z"/>
	<g>
		
			<circle style="fill:none;stroke:#FFFFFF;stroke-width:2.6077;stroke-linecap:round;stroke-linejoin:round;stroke-miterlimit:10;" cx="1033.01" cy="182.248" r="4.94"/>
		
			<circle style="fill:none;stroke:#FFFFFF;stroke-width:2.6077;stroke-linecap:round;stroke-linejoin:round;stroke-miterlimit:10;" cx="1017.061" cy="182.248" r="4.94"/>
		
			<circle style="fill:none;stroke:#FFFFFF;stroke-width:2.6077;stroke-linecap:round;stroke-linejoin:round;stroke-miterlimit:10;" cx="1001.112" cy="182.248" r="4.94"/>
	</g>
</g>
<polygon style="fill:none;stroke:#FFFFFF;stroke-width:2.6077;stroke-linecap:round;stroke-linejoin:round;stroke-miterlimit:10;" points="
	1056.618,68.565 1067.649,85.188 1085.958,82.284 1074.969,98.63 1080.989,116.37 1063.247,110.358 1048.236,121.565 
	1048.471,102.833 1032.963,90.69 1051.272,87.786 "/>
<polygon style="fill:none;stroke:#FFFFFF;stroke-width:2.6077;stroke-linecap:round;stroke-linejoin:round;stroke-miterlimit:10;" points="
	371.945,590.509 361.787,607.679 372.377,622.896 352.875,620.124 339.53,633.27 337.213,614.681 320.586,606.05 337.55,598.103 
	341.726,578.854 352.315,594.07 "/>
<polygon style="fill:none;stroke:#FFFFFF;stroke-width:2.6077;stroke-linecap:round;stroke-linejoin:round;stroke-miterlimit:10;" points="
	1086.184,255.919 1072.741,270.659 1080.008,287.714 1061.481,281.027 1045.737,291.179 1047.256,272.507 1032.737,260.67 
	1050.964,256.346 1058.974,238.351 1066.241,255.405 "/>
<g>
	
		<ellipse transform="matrix(0.7205 -0.6935 0.6935 0.7205 -235.2377 602.5121)" style="fill:none;stroke:#FFFFFF;stroke-width:2.6077;stroke-linecap:round;stroke-linejoin:round;stroke-miterlimit:10;" cx="629.807" cy="593.072" rx="4.371" ry="4.371"/>
	
		<ellipse transform="matrix(0.7205 -0.6935 0.6935 0.7205 -248.9279 596.4194)" style="fill:none;stroke:#FFFFFF;stroke-width:2.6077;stroke-linecap:round;stroke-linejoin:round;stroke-miterlimit:10;" cx="615.351" cy="606.987" rx="4.371" ry="4.371"/>
	
		<ellipse transform="matrix(0.7205 -0.6935 0.6935 0.7205 -275.6792 584.4317)" style="fill:none;stroke:#FFFFFF;stroke-width:2.6077;stroke-linecap:round;stroke-linejoin:round;stroke-miterlimit:10;" cx="587.106" cy="634.176" rx="4.371" ry="4.371"/>
	
		<ellipse transform="matrix(0.7205 -0.6935 0.6935 0.7205 -224.6677 578.9447)" style="fill:none;stroke:#FFFFFF;stroke-width:2.6077;stroke-linecap:round;stroke-linejoin:round;stroke-miterlimit:10;" cx="605.833" cy="568.167" rx="4.371" ry="4.371"/>
	
		<ellipse transform="matrix(0.7204 -0.6935 0.6935 0.7204 -222.754 593.7786)" style="fill:none;stroke:#FFFFFF;stroke-width:2.6077;stroke-linecap:round;stroke-linejoin:round;stroke-miterlimit:10;" cx="625.082" cy="573.169" rx="4.371" ry="4.371"/>
	
		<ellipse transform="matrix(0.7204 -0.6935 0.6935 0.7204 -251.1346 581.0447)" style="fill:none;stroke:#FFFFFF;stroke-width:2.6077;stroke-linecap:round;stroke-linejoin:round;stroke-miterlimit:10;" cx="595.119" cy="602.012" rx="4.371" ry="4.371"/>
	
		<ellipse transform="matrix(0.7204 -0.6935 0.6935 0.7204 -264.3288 575.1031)" style="fill:none;stroke:#FFFFFF;stroke-width:2.6077;stroke-linecap:round;stroke-linejoin:round;stroke-miterlimit:10;" cx="581.188" cy="615.422" rx="4.371" ry="4.371"/>
	
		<ellipse transform="matrix(0.7205 -0.6935 0.6935 0.7205 -238.3575 572.7903)" style="fill:none;stroke:#FFFFFF;stroke-width:2.6077;stroke-linecap:round;stroke-linejoin:round;stroke-miterlimit:10;" cx="591.378" cy="582.082" rx="4.37" ry="4.371"/>
	
		<ellipse transform="matrix(0.7204 -0.6935 0.6935 0.7204 -265.1117 560.8884)" style="fill:none;stroke:#FFFFFF;stroke-width:2.6077;stroke-linecap:round;stroke-linejoin:round;stroke-miterlimit:10;" cx="563.132" cy="609.271" rx="4.371" ry="4.371"/>
	<path style="fill:none;stroke:#FFFFFF;stroke-width:2.6077;stroke-linecap:round;stroke-linejoin:round;stroke-miterlimit:10;" d="
		M576.536,614.032c-4.12-1.232-9.484-2.835-9.484-2.835"/>
	<path style="fill:none;stroke:#FFFFFF;stroke-width:2.6077;stroke-linecap:round;stroke-linejoin:round;stroke-miterlimit:10;" d="
		M585.851,629.993c0,0-1.868-5.837-3.239-10.122"/>
	<path style="fill:none;stroke:#FFFFFF;stroke-width:2.6077;stroke-linecap:round;stroke-linejoin:round;stroke-miterlimit:10;" d="
		M592.485,586.41c0.867,3.386,2.058,8.041,2.878,11.246"/>
	<path style="fill:none;stroke:#FFFFFF;stroke-width:2.6077;stroke-linecap:round;stroke-linejoin:round;stroke-miterlimit:10;" d="
		M602.684,571.199c-2.44,2.349-5.355,5.155-7.844,7.55"/>
	<path style="fill:none;stroke:#FFFFFF;stroke-width:2.6077;stroke-linecap:round;stroke-linejoin:round;stroke-miterlimit:10;" d="
		M620.607,572.007c-3.142-0.816-7.087-1.842-10.299-2.677"/>
	<path style="fill:none;stroke:#FFFFFF;stroke-width:2.6077;stroke-linecap:round;stroke-linejoin:round;stroke-miterlimit:10;" d="
		M628.697,588.397c-0.785-3.303-1.827-7.697-2.592-10.916"/>
	<path style="fill:none;stroke:#FFFFFF;stroke-width:2.6077;stroke-linecap:round;stroke-linejoin:round;stroke-miterlimit:10;" d="
		M618.906,603.565c2.353-2.266,5.414-5.212,7.693-7.406"/>
	<path style="fill:none;stroke:#FFFFFF;stroke-width:2.6077;stroke-linecap:round;stroke-linejoin:round;stroke-miterlimit:10;" d="
		M599.849,602.384c3.138,0.932,7.73,2.296,11.102,3.296"/>
	
		<line style="fill:none;stroke:#FFFFFF;stroke-width:2.6077;stroke-linecap:round;stroke-linejoin:round;stroke-miterlimit:10;" x1="584.337" y1="612.391" x2="591.97" y2="605.043"/>
</g>
<g>
	<g>
		<g>
			<g>
				<g>
					
						<path style="fill:none;stroke:#FFFFFF;stroke-width:2.6077;stroke-linecap:round;stroke-linejoin:round;stroke-miterlimit:10;" d="
						M814.272,211.261l0.001,0.01C814.273,211.263,814.272,211.261,814.272,211.261z"/>
					
						<path style="fill:none;stroke:#FFFFFF;stroke-width:2.6077;stroke-linecap:round;stroke-linejoin:round;stroke-miterlimit:10;" d="
						M813.534,211.317l-0.001-0.012C813.533,211.305,813.534,211.308,813.534,211.317z"/>
					
						<path style="fill:none;stroke:#FFFFFF;stroke-width:2.6077;stroke-linecap:round;stroke-linejoin:round;stroke-miterlimit:10;" d="
						M822.032,209.587c-4.731,1.435-8.487,1.907-8.487,1.907c-0.929,0.062-3.05-0.06-7.913-0.913
						c-7.572-1.331-18.148,5.893-17.326,19.976c0.634,10.874,11.929,28.313,20.51,27.792c1.986-0.119,6.141-2.544,7.749-2.642
						c1.606-0.097,6.087,1.805,8.076,1.684c8.579-0.519,17.683-19.196,17.004-30.067
						C840.76,213.246,829.387,207.353,822.032,209.587z"/>
				</g>
			</g>
		</g>
		
			<path style="fill:none;stroke:#FFFFFF;stroke-width:2.6077;stroke-linecap:round;stroke-linejoin:round;stroke-miterlimit:10;" d="
			M814.272,211.261c0,0,2.646-10.766-5.668-18.643"/>
	</g>
	<path style="fill:none;stroke:#FFFFFF;stroke-width:2.6077;stroke-linecap:round;stroke-linejoin:round;stroke-miterlimit:10;" d="
		M814.273,201.939l6.242-5.227c0,0-1.678-4.237,0.981-8.373c3.773-5.867,14.255-5.689,14.255-5.689s1.007,10.552-6.338,13.816
		c-4.416,1.963-8.899,0.245-8.899,0.245"/>
</g>
<g>
	<g>
		<path style="fill:#324446;" d="M698.615,358.803c0.218,6.565-49.481,41.946-99.635,42.37
			c-50.973,0.43-102.417-34.175-102.417-42.33v30.74c0,8.155,34.049,37.513,102.417,37.513c64.988,0,99.853-30.948,99.635-37.513
			V358.803z"/>
		<g>
			<path style="fill:#324446;" d="M698.614,359.006c0-0.01-0.001-0.02-0.001-0.029v0.059
				C698.613,359.026,698.614,359.017,698.614,359.006z"/>
			<path style="fill:#4E6566;" d="M698.56,357.841c-1.669-20.065-46.235-36.141-100.973-36.141
				c-54.763,0-99.345,16.091-100.976,36.168c-0.031,0.378-0.051,0.758-0.051,1.139c0,20.438,44.507,41.89,99.682,42.157
				c0.448,0.002,0.895,0.006,1.346,0.006c0.058,0,0.115-0.002,0.173-0.002c0.406,0.002,0.811,0.008,1.217,0.004
				c0.245-0.002,0.489-0.01,0.734-0.013c54.787-0.418,98.859-21.795,98.902-42.122v-0.059
				C698.613,358.597,698.591,358.218,698.56,357.841z"/>
		</g>
		<path style="fill:#324446;" d="M693.344,273.374l-95.756,52.295l-95.756-52.295l0.184,84.041c0,7.715,29.835,36.363,96.888,36.363
			c72.104,0,94.463-30.152,94.257-36.363L693.344,273.374z"/>
		<path style="opacity:0.5;fill:#0B2025;" d="M501.956,339.307c0-10.593,16.21-11.282,38.351-1.347
			c36.969,16.589,79.366,55.754,109.861,49.406c28.713-8.263,40.625-22.27,42.666-28.234c0.139-1.301,0.251-2.398,0.33-3.18
			l0.084-38.463c-1.395-0.042-38.995-1.182-76.264-2.413l-19.396,10.593l-22.011-12.021c-19.311-0.707-33.091-1.3-32.846-1.545
			c0.808-0.808-38.516-7.272-38.516-7.272l-2.312,1.369L501.956,339.307z"/>
		<defs>
			<filter id="Adobe_OpacityMaskFilter" filterUnits="userSpaceOnUse" x="662.588" y="315.785" width="30.705" height="68.233">
				<feColorMatrix  type="matrix" values="1 0 0 0 0  0 1 0 0 0  0 0 1 0 0  0 0 0 1 0"/>
			</filter>
		</defs>
		<mask maskUnits="userSpaceOnUse" x="662.588" y="315.785" width="30.705" height="68.233" id="SVGID_2_">
			<g style="filter:url(#Adobe_OpacityMaskFilter);">
				<linearGradient id="SVGID_3_" gradientUnits="userSpaceOnUse" x1="720.2265" y1="352.5049" x2="663.649" y2="352.5049">
					<stop  offset="0" style="stop-color:#FFFFFF"/>
					<stop  offset="0.1137" style="stop-color:#DADADA"/>
					<stop  offset="0.3617" style="stop-color:#8D8D8D"/>
					<stop  offset="0.5833" style="stop-color:#515151"/>
					<stop  offset="0.77" style="stop-color:#252525"/>
					<stop  offset="0.9148" style="stop-color:#0A0A0A"/>
					<stop  offset="1" style="stop-color:#000000"/>
				</linearGradient>
				<rect x="595.791" y="271.972" style="fill:url(#SVGID_3_);" width="173.455" height="161.066"/>
			</g>
		</mask>
		<polygon style="opacity:0.7;mask:url(#SVGID_2_);fill:#18AEC8;" points="693.292,346.669 693.292,315.785 662.588,329.072 
			664.204,384.018 691.497,360.675 		"/>
		<path style="opacity:0;fill:#0B2025;" d="M547.122,368.486c14.596,5.146,31.856,8.35,50.44,8.35
			c58.719,0,95.599-21.906,95.599-38.472l0.183-58.446l-95.756-9.564l-95.756,6.781l0.184,50.502
			c0,13.744,15.151,28.641,38.703,38.4L547.122,368.486z"/>
		<polygon style="fill:#324446;" points="701.687,272.244 597.524,225.39 494.188,272.244 444.701,281.934 444.701,292.14 
			444.704,292.14 597.524,360.009 751.709,292.14 751.714,292.14 751.714,281.934 		"/>
		<polygon style="fill:#4E6566;" points="597.524,212.57 444.701,281.934 597.524,349.802 751.714,281.934 		"/>
		<path style="opacity:0.4;fill:#0B2025;" d="M599.742,273.106c0,0-69.476,20.65-80.024,39.258
			c-1.108,1.953-1.836,5.276-2.305,9.178l6.06,3.49c0,0,0.071-8.217,1.099-10.017c10.529-18.424,81.184-39.676,81.184-39.676
			L599.742,273.106z"/>
		<ellipse style="opacity:0.5;fill:#0B2025;" cx="598.051" cy="274.104" rx="13.574" ry="6.494"/>
		<g>
			<g>
				<path style="fill:#FCC90D;" d="M515.668,347.345c-0.267-5.687-1.17-30.221,2.652-36.964
					c9.743-17.187,72.483-36.654,78.874-38.599l2.383,1.803c-11.786,3.548-68.558,21.378-78.275,38.381
					c-3.828,6.7-2.614,29.713-2.287,34.875L515.668,347.345z"/>
			</g>
			<path style="fill:#DB8616;" d="M588.349,277.132l4.036-1.155c0,0-1.862-1.961-2.152-2.105c-0.29-0.145-1.73,0.568-1.73,0.568
				l-0.782,0.325C588.422,274.644,589.255,276.77,588.349,277.132z"/>
		</g>
		<g>
			<ellipse style="fill:#324446;" cx="598.052" cy="270.812" rx="12.639" ry="6.046"/>
		</g>
		<g>
			<linearGradient id="SVGID_4_" gradientUnits="userSpaceOnUse" x1="514.3169" y1="364.8671" x2="519.5999" y2="364.8671">
				<stop  offset="0" style="stop-color:#FFF200"/>
				<stop  offset="1" style="stop-color:#F7941E"/>
			</linearGradient>
			<rect x="514.317" y="356.363" style="fill:url(#SVGID_4_);" width="5.283" height="17.008"/>
		</g>
		<g>
			
				<linearGradient id="SVGID_5_" gradientUnits="userSpaceOnUse" x1="1192.5532" y1="755.7254" x2="1281.0592" y2="765.5968" gradientTransform="matrix(0.8894 0 0 0.8894 -588.8779 -285.4313)">
				<stop  offset="0" style="stop-color:#FFF200"/>
				<stop  offset="0.4571" style="stop-color:#FBC010"/>
				<stop  offset="0.8064" style="stop-color:#F8A01A"/>
				<stop  offset="1" style="stop-color:#F7941E"/>
			</linearGradient>
			<path style="fill:url(#SVGID_5_);" d="M535.112,416.018c0-2.246-1.995-20.006-5.444-35.636
				c-2.69-12.189-5.682-23.305-13.097-23.305c-16.924,0-18.889,54.315-18.546,58.941c0.201,2.717,1.591,5.521,5.502,7.713
				c1.227,0.688,3.157,1.209,3.923,1.397c2.412,0.591,5.408,0.937,9.117,0.939c1.743,0.001,3.347,0.01,4.784-0.24
				c1.898-0.33,2.796-0.42,3.836-0.646C532.889,423.506,535.112,419.081,535.112,416.018z"/>
			<path style="fill:#FFCD2E;" d="M518.317,357.305c-0.503-0.132-1.028-0.208-1.579-0.221c-0.847,0.508-1.95,1.211-3.365,2.154
				c-11.179,7.453-14.204,45.943-14.273,60.364c0.843,1.486,2.241,2.903,4.427,4.128c1.227,0.688,3.157,1.209,3.923,1.397
				c1.054,0.258,2.227,0.466,3.515,0.623c0.24-24.471,3.292-62.364,5.102-66.243C516.066,359.508,517.388,358.31,518.317,357.305z"
				/>
			<path style="fill:#D8810E;" d="M531.644,422.321c2.57-1.974,3.468-4.377,3.468-6.303c0-3.998-1.617-58.941-18.541-58.941
				c-2.336,0-4.386,1.039-6.185,2.836c-0.975,1.394,7.42,1.935,9.99,5.791c6.105,9.158,11.312,26.395,11.312,56.202
				C531.688,422.049,531.659,422.182,531.644,422.321z"/>
		</g>
	</g>
	<path style="opacity:0.2;fill:#0B2025;" d="M711.967,443.093c-12.267,4.238-22.693,8.363-33.01,12.859
		c-5.499-13.649-40.964-24.182-83.901-24.182c-46.749,0-84.646,12.485-84.646,27.885c0,15.183,36.838,27.533,82.679,27.878
		c-14.114,2.298-24.232,6.879-24.232,12.032c0,6.305,7.643,14.098,18.046,16.699c14.006,3.501,20.47,0.808,24.51-0.539
		c23.713-7.904,126.372-51.489,132.875-55.215C751.779,456.219,721.843,439.682,711.967,443.093z"/>
	
		<radialGradient id="SVGID_6_" cx="602.2663" cy="528.5541" r="93.3382" gradientTransform="matrix(0.996 0 0 0.996 2.3715 1.3827)" gradientUnits="userSpaceOnUse">
		<stop  offset="0" style="stop-color:#231F20"/>
		<stop  offset="0.216" style="stop-color:#534F50"/>
		<stop  offset="1" style="stop-color:#FFFFFF"/>
	</radialGradient>
	<path style="opacity:0.2;fill:url(#SVGID_6_);" d="M711.608,444.35c-12.569,3.232-22.334,7.106-32.651,11.602
		c-5.499-13.649-40.964-24.182-83.901-24.182c-46.749,0-84.646,12.485-84.646,27.885c0,15.183,36.838,27.533,82.679,27.878
		c-14.114,2.298-24.232,6.879-24.232,12.032c0,6.305,7.643,14.098,18.046,16.699c14.006,3.501,20.47,0.808,24.51-0.539
		c23.713-7.904,126.372-51.489,132.875-55.215C751.779,456.219,721.171,441.891,711.608,444.35z"/>
	<g>
		
			<ellipse transform="matrix(0.8029 -0.5961 0.5961 0.8029 -121.2007 474.5532)" style="fill:#AA160B;" cx="657.023" cy="420.557" rx="20.468" ry="35.982"/>
		<g>
			<path style="fill:#CCCACB;" d="M721.21,320.656l0.056,0.063c8.058-6.675,23.523-1.586,34.662,11.45
				c10.48,12.266,13.417,27.217,7.19,34.703L605.537,510.23l-42.139-46.468L721.21,320.656z"/>
			<path style="fill:#B5C0C9;" d="M570.372,499.217c-4.93-5.77-9.541-11.514-10.965-17.416c-0.552-2.288,4.706-5.004,3.691-6.926
				c-1.804-3.418-1.619-9.136,1.503-11.804c8.017-6.851,23.601-1.775,34.805,11.338c11.204,13.112,13.788,29.297,5.771,36.147
				C597.159,517.406,581.576,512.33,570.372,499.217z"/>
			<g>
				<path style="opacity:0.4;fill:#90A3AF;" d="M676.238,375.947l0.038,0.041c5.43-4.497,15.854-1.068,23.361,7.719
					c7.064,8.265,9.043,18.342,4.847,23.387l0.154,0.17L598.28,503.712c0,0,5.534-9.883-5.026-22.533
					c-9.587-11.484-19.854-8.029-19.854-8.029L676.238,375.947z"/>
				<path style="opacity:0.4;fill:#90A3AF;" d="M590.917,479.542c-1.562-1.828-11.086,8.919-12.425,7.134
					c-5.135-6.851-7.111-9.835-2.826-13.496c5.404-4.616,10.037-0.839,17.588,7.999c7.552,8.837,10.186,18.134,4.782,22.751
					c-2.327,1.99,2.194-1.872,2.068-6.195C599.939,492.023,595.216,484.573,590.917,479.542z"/>
			</g>
			<path style="fill:#F8FFFF;" d="M599.407,474.408c-11.205-13.113-26.788-18.189-34.805-11.338
				c-0.346,0.295-0.665,0.616-0.972,0.945l-0.231-0.254L721.21,320.656l0.056,0.063c8.058-6.675,23.523-1.586,34.662,11.45
				c10.48,12.266,13.417,27.217,7.19,34.703L606.744,511.147l-1.212-0.923C613.105,503.199,610.438,487.318,599.407,474.408z"/>
			<path style="opacity:0.5;fill:#B3C0C6;" d="M692.487,414.557c-0.037-0.136,8.92,4.871,8.885,4.744l64.911-61.679
				c0.539-11.312-6.133-20.541-10.372-25.502c-0.825-0.965-1.675-1.881-2.542-2.757l-64.265,57.432
				c0.356-1.406,0.545-2.154,0.911-3.599c-2.181,0.219-3.272,0.328-5.453,0.547c-0.066-1.401-0.1-2.101-0.166-3.502
				c-2.081,0.52-3.121,0.779-5.202,1.299c-0.474-1.255-0.711-1.882-1.185-3.137c-1.897,0.775-2.846,1.162-4.743,1.936
				c-0.823-1.061-1.235-1.591-2.058-2.652c-1.657,0.975-2.485,1.463-4.142,2.439c-1.111-0.835-1.667-1.253-2.778-2.089
				c-1.368,1.124-2.052,1.686-3.42,2.81c-1.333-0.592-1.998-0.888-3.331-1.481c-1.055,1.223-1.583,1.834-2.638,3.057
				c-1.49-0.341-2.234-0.511-3.724-0.852c-0.726,1.272-1.09,1.908-1.816,3.18c-1.585-0.089-2.378-0.133-3.963-0.222
				c-0.393,1.277-0.589,1.916-0.982,3.193c-1.621,0.158-2.431,0.237-4.052,0.394c-0.059,1.238-0.088,1.857-0.146,3.095
				c-1.604,0.395-2.405,0.593-4.009,0.988c0.263,1.164,0.402,1.738,0.654,2.914c-1.539,0.626-2.308,0.939-3.84,1.557
				c0.569,1.055,0.859,1.576,1.466,2.589c-1.418,0.836-2.136,1.262-3.548,2.091c0.865,0.899,1.308,1.338,2.227,2.178
				c-1.275,1.053-1.923,1.59-3.17,2.613c1.132,0.718,1.719,1.053,2.935,1.679c-1.085,1.245-1.635,1.877-2.667,3.064
				c1.371,0.499,2.082,0.72,3.587,1.074c-0.808,1.364-1.218,2.053-2.011,3.401c1.632,0.184,2.487,0.233,4.214,0.314
				c-0.533,1.495-0.802,2.246-1.318,3.721c1.804-0.114,2.731-0.197,4.591-0.371c-0.215,1.581-0.327,2.376-0.521,3.933
				c1.873-0.386,2.826-0.598,4.74-1.029c0.117,1.629,0.17,2.449,0.343,4.016c0.931-0.328,1.632-0.58,2.34-0.837l-49.763,44.471
				l6.891,6.093l6.975,25.508l78.109-71.106c0.624-0.028-2.291-9.062-1.478-9.104c0.024-0.707,0.046-1.316,0.066-1.883l4.935-4.532
				C692.136,414.557,692.303,414.557,692.487,414.557z"/>
			<path style="opacity:0.4;fill:#5AC7D3;" d="M763.118,366.871c2.014-2.421,3.063-5.625,3.216-9.265l-0.049,0.016l-62.701,59.489
				L680.1,437.644l-67.34,61.383l-6.667,11.625l0.651,0.496L763.118,366.871z"/>
			<g>
				<path style="fill:#FFFFFF;" d="M601.546,515.145c4.676-1.627,8.176-5.02,9.989-9.752c3.177-8.288,0.53-19.343-7.081-29.572
					c-14.057-18.894-28.235-20.925-36.812-16.535c-3.123,1.601-5.16,3.946-6.051,6.97c-2.2,7.454,3.344,17.057,6.323,22.216
					l0.432,0.75c3.809,6.639,19.061,19.727,27.633,16.256c2.79-1.127,4.656-2.926,5.545-5.346
					c1.947-5.302-1.496-11.863-3.345-15.388l-0.271-0.518c-2.514-4.832-14.838-17.038-21.85-13.591
					c-2.169,1.069-3.523,2.811-3.915,5.04c-0.783,4.446,2.535,9.815,4.957,12.338c0.739,0.771,1.962,0.796,2.731,0.056
					c0.77-0.739,0.796-1.962,0.057-2.732c-1.881-1.961-4.435-6.175-3.939-8.993c0.177-1.006,0.754-1.719,1.816-2.241
					c3.712-1.841,14.421,7.499,16.714,11.907l0.277,0.531c1.459,2.78,4.495,8.566,3.14,12.258c-0.504,1.373-1.604,2.385-3.364,3.096
					c-5.384,2.195-19.074-8.04-22.834-14.596l-0.437-0.759c-2.69-4.657-7.694-13.327-5.964-19.192
					c0.59-1.997,1.932-3.509,4.107-4.622c6.851-3.508,19.32-1.576,31.95,15.401c6.816,9.161,9.273,18.837,6.572,25.883
					c-1.629,4.248-5.037,7.097-9.604,8.017c-10.039,2.025-29.477-8.99-37.09-30.861c-0.35-1.007-1.452-1.54-2.46-1.189
					c-1.008,0.351-1.54,1.452-1.189,2.46c8.412,24.172,29.843,35.731,41.502,33.379
					C599.936,515.643,600.758,515.419,601.546,515.145z"/>
			</g>
			<path style="fill:#90A3AF;" d="M672.982,407.049c-8.732-10.219-19.779-16.179-28.854-16.494l-9.107,8.259
				c0.347-0.099,0.745-0.296,1.228-0.657c7.06-5.281,23.388,1.784,32.775,12.769c10.581,12.383,14.297,26.875,7.436,35.9
				l8.135-7.506C686.244,430.177,682.106,417.728,672.982,407.049z"/>
		</g>
		<path style="fill:#AA160B;" d="M674.598,405.433c-12.787-14.964-30.54-20.806-39.79-13.143l-1.421,1.483l-1.249,2.586l0.42,1.206
			c2.459-2.038,2.571,1.022,5.306-1.024c7.06-5.281,23.388,1.784,32.775,12.769c10.881,12.734,14.506,27.701,6.83,36.657
			c-0.706,0.824,1.324,2.405,0.641,3.225c0,0,0.579,0.088,0.721-0.022c1.536-1.176,4.02-3.899,4.02-3.899
			C689.999,436.677,686.628,419.513,674.598,405.433z"/>
		<g>
			<path style="fill:#D11F11;" d="M691.812,390.074c-12.787-14.965-30.54-20.806-39.79-13.144l-0.065-0.072l-16.829,15.175
				c9.386-7.02,26.838-1.164,39.385,13.519c12.031,14.08,15.402,31.243,8.254,39.837l17.298-15.478
				C707.213,421.316,703.842,404.153,691.812,390.074z"/>
			<path style="opacity:0.5;fill:#B71D0D;" d="M691.812,390.074c-0.082-0.095-0.165-0.186-0.248-0.281
				c-3.711,0.112-7.881,0.319-8.103,0.689c-0.292,0.487-8.604,7.024-13.088,10.712c1.424,1.352,2.81,2.802,4.139,4.358
				c7.239,8.471,11.337,18.056,11.901,26.221l17.264-15.954C702.99,407.758,698.909,398.38,691.812,390.074z"/>
		</g>
		<g>
			<g>
				<g style="enable-background:new    ;">
					<g>
						<polygon style="fill:#E08B0E;" points="713.216,393.837 712.618,397.485 671.803,399.314 670.568,395.733 						"/>
					</g>
					<g>
						<polygon style="fill:#FFD140;" points="704.248,381.67 713.216,393.837 670.568,395.733 682.131,382.264 						"/>
					</g>
				</g>
				<g style="enable-background:new    ;">
					<g>
						<polygon style="fill:#E08B0E;" points="672.624,418.059 673.86,421.64 651.881,409.163 650.646,405.581 						"/>
					</g>
					<g>
						<polygon style="fill:#E08B0E;" points="698.22,411.304 699.455,414.887 673.86,421.64 672.624,418.059 						"/>
					</g>
					<g>
						<polygon style="fill:#FFD140;" points="670.216,396.142 698.22,411.304 672.624,418.059 650.646,405.581 						"/>
					</g>
				</g>
				<polygon style="fill:#E58E0E;" points="677.142,413.598 678.365,410.549 682.922,410.022 683.187,407.085 687.809,405.945 
					687.725,405.622 670.216,396.142 650.646,405.581 669.484,416.277 670.727,416.516 672.841,413.487 				"/>
			</g>
			<g>
				<g>
					<polygon style="fill:#BF2105;" points="678.232,366.29 680.702,373.454 681.383,376.155 678.913,368.993 					"/>
				</g>
				<g>
					<polygon style="fill:#B71D0D;" points="632.688,386.67 635.158,393.833 633.521,391.497 631.051,384.334 					"/>
				</g>
				<g>
					<polygon style="fill:#B71D0D;" points="683.53,367.839 686.001,375.002 685.712,377.94 683.242,370.776 					"/>
				</g>
				<g>
					<polygon style="fill:#B71D0D;" points="631.043,390.741 633.513,397.904 631.017,396.029 628.547,388.866 					"/>
				</g>
				<g>
					<polygon style="fill:#B71D0D;" points="687.802,370.237 690.272,377.401 689.036,380.447 686.565,373.284 					"/>
				</g>
				<g>
					<polygon style="fill:#B71D0D;" points="630.676,394.662 633.146,401.826 629.894,400.494 627.424,393.331 					"/>
				</g>
				<g>
					<polygon style="fill:#B71D0D;" points="690.874,373.383 693.345,380.547 691.203,383.571 688.733,376.408 					"/>
				</g>
				<g>
					<polygon style="fill:#B71D0D;" points="631.594,398.264 634.064,405.427 630.203,404.697 627.733,397.533 					"/>
				</g>
				<g>
					<polygon style="fill:#B71D0D;" points="692.601,377.14 695.071,384.303 692.121,387.173 689.651,380.01 					"/>
				</g>
				<g>
					<polygon style="fill:#B71D0D;" points="633.767,401.384 636.236,408.547 631.93,408.454 629.459,401.29 					"/>
				</g>
				<g>
					<polygon style="fill:#B71D0D;" points="692.903,381.341 695.374,388.505 691.754,391.095 689.284,383.933 					"/>
				</g>
				<g>
					<polygon style="fill:#B71D0D;" points="637.086,403.896 639.556,411.059 634.996,411.597 632.525,404.435 					"/>
				</g>
				<g>
					<polygon style="fill:#B71D0D;" points="691.781,385.806 694.251,392.969 690.114,395.16 687.643,387.997 					"/>
				</g>
				<g>
					<polygon style="fill:#B71D0D;" points="641.421,405.682 643.891,412.845 639.278,413.993 636.807,406.83 					"/>
				</g>
				<g>
					<polygon style="fill:#D31C04;" points="689.281,390.333 691.751,397.497 687.272,399.201 684.801,392.037 					"/>
				</g>
				<g>
					<polygon style="fill:#D31C04;" points="646.57,406.665 649.04,413.828 644.566,415.545 642.095,408.381 					"/>
				</g>
				<g>
					<polygon style="fill:#B71D0D;" points="684.801,392.037 687.272,399.201 687.975,401.894 685.505,394.731 					"/>
				</g>
				<g>
					<polygon style="fill:#D31C04;" points="685.505,394.731 687.975,401.894 683.353,403.035 680.883,395.871 					"/>
				</g>
				<g>
					<polygon style="fill:#D31C04;" points="652.311,406.803 654.782,413.966 650.66,416.166 648.19,409.003 					"/>
				</g>
				<g>
					<polygon style="fill:#B71D0D;" points="648.19,409.003 650.66,416.166 649.04,413.828 646.57,406.665 					"/>
				</g>
				<g>
					<polygon style="fill:#B71D0D;" points="680.618,398.809 683.088,405.972 678.53,406.499 676.06,399.336 					"/>
				</g>
				<g>
					<polygon style="fill:#D31C04;" points="680.883,395.871 683.353,403.035 683.088,405.972 680.618,398.809 					"/>
				</g>
				<g>
					<polygon style="fill:#D31C04;" points="658.403,406.087 660.873,413.25 657.262,415.849 654.792,408.687 					"/>
				</g>
				<g>
					<polygon style="fill:#B71D0D;" points="654.792,408.687 657.262,415.849 654.782,413.966 652.311,406.803 					"/>
				</g>
				<g>
					<polygon style="fill:#B71D0D;" points="674.837,402.384 677.308,409.547 673.007,409.437 670.537,402.273 					"/>
				</g>
				<g>
					<polygon style="fill:#D31C04;" points="676.06,399.336 678.53,406.499 677.308,409.547 674.837,402.384 					"/>
				</g>
				<g>
					<polygon style="fill:#D31C04;" points="664.564,404.559 667.033,411.723 664.111,414.597 661.641,407.434 					"/>
				</g>
				<g>
					<polygon style="fill:#B71D0D;" points="661.641,407.434 664.111,414.597 660.873,413.25 658.403,406.087 					"/>
				</g>
				<g>
					<polygon style="fill:#B71D0D;" points="668.422,405.303 670.893,412.465 667.033,411.723 664.564,404.559 					"/>
				</g>
				<g>
					<path style="fill:#FF3912;" d="M684.799,392.031l0.703,2.694l-4.622,1.141l-0.265,2.937l-4.558,0.527l-1.222,3.049
						l-4.301-0.111l-2.114,3.029l-3.86-0.743l-2.923,2.875l-3.238-1.347l-3.611,2.6l-2.48-1.883l-4.122,2.2l-1.62-2.338
						l-4.474,1.717l-0.675-2.7l-4.613,1.147l0.278-2.934l-4.56,0.539l1.241-3.052l-4.307-0.093l2.135-3.025l-3.86-0.731l2.942-2.871
						l-3.252-1.331l3.618-2.591l-2.496-1.874l4.141-2.196l-1.638-2.337l4.48-1.704l-0.704-2.694l4.622-1.141l0.26-2.931l4.558-0.527
						l1.223-3.049l4.3,0.111l2.121-3.028l3.852,0.742l2.929-2.874l3.236,1.341l3.606-2.594l2.481,1.884l4.133-2.205l1.615,2.344
						l4.468-1.719l0.68,2.702l4.618-1.154l-0.288,2.939l4.559-0.539l-1.236,3.047l4.309,0.1l-2.142,3.023l3.869,0.733l-2.949,2.87
						l3.252,1.331l-3.619,2.59l2.497,1.875l-4.138,2.19l1.637,2.336L684.799,392.031z M646.033,403.785"/>
				</g>
				<g>
					<polygon style="fill:#D31C04;" points="670.537,402.273 673.007,409.437 670.893,412.465 668.422,405.303 					"/>
				</g>
			</g>
		</g>
	</g>
</g>
<path style="fill:none;stroke:#FFFFFF;stroke-width:2.6077;stroke-linecap:round;stroke-linejoin:round;stroke-miterlimit:10;" d="
	M206.718,157.343l-4.082,5.609c-0.941-0.091-1.951-0.4-2.988-0.768c-1.08-0.383-2.489-1.077-3.203-1.671l-0.093-0.423l19.797-25.633
	c1.185,0.226,2.945,0.753,4.112,1.167c1.123,0.398,2.865,1.114,3.869,1.713l-0.964,32.361c-1.135,0.182-2.972-0.129-4.269-0.589
	c-2.204-0.782-3.009-1.943-2.816-5.233l0.191-3.144c-0.577-0.156-1.269-0.401-1.701-0.555L208.432,158
	C207.913,157.816,207.265,157.586,206.718,157.343z M210.234,152.507c0.562,0.2,1.269,0.401,1.744,0.57l3.156,1.119
	c0.432,0.153,1.022,0.411,1.541,0.595l0.215-2.941c0.182-2.709,0.504-6.634,0.781-9.748l-0.26-0.092
	c-1.29,2.267-3.511,5.373-5.003,7.521L210.234,152.507z"/>
<path style="fill:none;stroke:#FFFFFF;stroke-width:2.6077;stroke-linecap:round;stroke-linejoin:round;stroke-miterlimit:10;" d="
	M496.914,59.02c7.066-2.194,12.779-0.846,14.767,5.559c0.947,3.05-0.118,6.445-2.363,8.368c3.752,0.061,7.633,2.869,8.896,6.936
	c2.209,7.116-1.794,11.814-9.572,14.228c-3.915,1.215-8.165,2.423-12.568,3.678l-0.467-0.245l-10.618-34.211l0.245-0.466
	C489.27,61.503,493.254,60.155,496.914,59.02z M497.171,74.21l3.609-1.12c3.457-1.073,3.76-3.508,3.144-5.49
	c-0.615-1.982-2.212-3.716-5.618-2.659c-0.915,0.284-2.39,0.741-3.675,1.085L497.171,74.21z M498.969,80.004l3.077,9.912
	c1.611-0.555,3.187-1.044,4.254-1.376c4.169-1.294,4.283-4.338,3.62-6.474c-0.694-2.236-2.665-4.634-6.732-3.372L498.969,80.004z"/>
<path style="fill:none;stroke:#FFFFFF;stroke-width:2.6077;stroke-linecap:round;stroke-linejoin:round;stroke-miterlimit:10;" d="
	M913.788,440.167c-4.112,0.999-4.75,5.255-2.984,12.524c1.65,6.79,4.865,9.604,9.025,8.594c3.299-0.802,5.511-3.162,7.328-5.274
	c1.725,0.644,3.911,2.342,4.687,4.077c-2.075,3.34-6.515,6.951-11.776,8.229c-10.089,2.451-15.312-5.497-17.31-13.722
	c-2.927-12.05,2.178-18.76,9.782-20.607c7.411-1.8,13.346,1.366,14.705,6.961c0.732,3.013-0.592,4.651-3.318,5.313
	c-1.147,0.279-2.054,0.297-3.022,0.279C920.038,442.547,917.996,439.144,913.788,440.167z"/>
<g>
	<path style="fill:none;stroke:#FFFFFF;stroke-width:2.6077;stroke-linecap:round;stroke-linejoin:round;stroke-miterlimit:10;" d="
		M489.11,579.917"/>
	<path style="fill:none;stroke:#FFFFFF;stroke-width:2.6077;stroke-linecap:round;stroke-linejoin:round;stroke-miterlimit:10;" d="
		M473.718,564.526"/>
	<path style="fill:none;stroke:#FFFFFF;stroke-width:2.6077;stroke-linecap:round;stroke-linejoin:round;stroke-miterlimit:10;" d="
		M489.11,549.134"/>
	<path style="fill:none;stroke:#FFFFFF;stroke-width:2.6077;stroke-linecap:round;stroke-linejoin:round;stroke-miterlimit:10;" d="
		M489.11,549.134c0,8.5-6.891,15.392-15.392,15.392c8.5,0,15.392,6.891,15.392,15.392c0-8.5,6.891-15.392,15.391-15.392
		C496.001,564.526,489.11,557.634,489.11,549.134z"/>
	<path style="fill:none;stroke:#FFFFFF;stroke-width:2.6077;stroke-linecap:round;stroke-linejoin:round;stroke-miterlimit:10;" d="
		M504.501,564.526"/>
</g>
<g>
	<path style="fill:none;stroke:#FFFFFF;stroke-width:2.6077;stroke-linecap:round;stroke-linejoin:round;stroke-miterlimit:10;" d="
		M455.281,204.943"/>
	<path style="fill:none;stroke:#FFFFFF;stroke-width:2.6077;stroke-linecap:round;stroke-linejoin:round;stroke-miterlimit:10;" d="
		M442.956,192.618"/>
	<path style="fill:none;stroke:#FFFFFF;stroke-width:2.6077;stroke-linecap:round;stroke-linejoin:round;stroke-miterlimit:10;" d="
		M455.281,180.292"/>
	<path style="fill:none;stroke:#FFFFFF;stroke-width:2.6077;stroke-linecap:round;stroke-linejoin:round;stroke-miterlimit:10;" d="
		M455.281,180.292c0,6.807-5.518,12.326-12.326,12.326c6.807,0,12.326,5.519,12.326,12.326c0-6.807,5.519-12.326,12.326-12.326
		C460.8,192.618,455.281,187.099,455.281,180.292z"/>
	<path style="fill:none;stroke:#FFFFFF;stroke-width:2.6077;stroke-linecap:round;stroke-linejoin:round;stroke-miterlimit:10;" d="
		M467.607,192.618"/>
</g>
<g>
	<path style="fill:none;stroke:#FFFFFF;stroke-width:2.6077;stroke-linecap:round;stroke-linejoin:round;stroke-miterlimit:10;" d="
		M1059.46,628.015"/>
	<path style="fill:none;stroke:#FFFFFF;stroke-width:2.6077;stroke-linecap:round;stroke-linejoin:round;stroke-miterlimit:10;" d="
		M1047.135,615.689"/>
	<path style="fill:none;stroke:#FFFFFF;stroke-width:2.6077;stroke-linecap:round;stroke-linejoin:round;stroke-miterlimit:10;" d="
		M1059.46,603.363"/>
	<path style="fill:none;stroke:#FFFFFF;stroke-width:2.6077;stroke-linecap:round;stroke-linejoin:round;stroke-miterlimit:10;" d="
		M1059.46,603.363c0,6.807-5.519,12.326-12.326,12.326c6.807,0,12.326,5.518,12.326,12.326c0-6.807,5.519-12.326,12.326-12.326
		C1064.979,615.689,1059.46,610.17,1059.46,603.363z"/>
	<path style="fill:none;stroke:#FFFFFF;stroke-width:2.6077;stroke-linecap:round;stroke-linejoin:round;stroke-miterlimit:10;" d="
		M1071.786,615.689"/>
</g>
<g>
	<circle style="fill:#FABB12;" cx="494.816" cy="348.032" r="11.378"/>
</g>
<path style="fill:#D8810E;" d="M498.957,337.443c1.975,2.046,3.196,4.826,3.196,7.895c0,6.283-5.095,11.379-11.378,11.379
	c-1.461,0-2.855-0.286-4.138-0.789c0.365,0.378,0.757,0.732,1.171,1.057c1.932,1.517,4.363,4.671,7.008,4.671
	c6.516,0,4.159-2.842,5.873-3.878c3.299-1.993,5.505-5.613,5.505-9.747C506.193,343.21,503.19,339.1,498.957,337.443z"/>
<g>
	<g>
		<path style="fill:#D31C04;" d="M689.952,374.05c13.499,2.578,17.22,13.081,8.313,23.456
			c-8.913,10.381-27.081,16.705-40.579,14.128c-13.497-2.578-17.22-13.08-8.307-23.462
			C658.286,377.796,676.455,371.472,689.952,374.05z"/>
	</g>
	<path style="fill:#FCCC0C;" d="M687.826,376.527c-11.721-2.237-27.497,3.25-35.232,12.258c-7.741,9.016-4.502,18.132,7.219,20.371
		c11.72,2.237,27.497-3.249,35.237-12.265C702.784,387.882,699.546,378.765,687.826,376.527z"/>
</g>
<polygon style="opacity:0.6;fill:#5CC8D3;" points="595.523,358.692 595.523,345.932 788.26,261.098 788.26,273.855 "/>
</svg>
