<?xml version="1.0" encoding="iso-8859-1"?>
<!-- Generator: Adobe Illustrator 21.0.2, SVG Export Plug-In . SVG Version: 6.00 Build 0)  -->
<svg version="1.1" xmlns="http://www.w3.org/2000/svg" xmlns:xlink="http://www.w3.org/1999/xlink" x="0px" y="0px"
	 viewBox="0 0 1200 500" style="enable-background:new 0 0 1200 500;" xml:space="preserve">
<g id="Layer_2">
	<linearGradient id="SVGID_1_" gradientUnits="userSpaceOnUse" x1="596.0862" y1="495.5704" x2="604.0372" y2="-3.3117">
		<stop  offset="0" style="stop-color:#FFFFFF"/>
		<stop  offset="0.1565" style="stop-color:#DDF7FD"/>
		<stop  offset="0.4318" style="stop-color:#A7EBFB"/>
		<stop  offset="0.67" style="stop-color:#7FE2F9"/>
		<stop  offset="0.8589" style="stop-color:#67DCF7"/>
		<stop  offset="0.9749" style="stop-color:#5EDAF7"/>
	</linearGradient>
	<rect style="opacity:0.37;fill:url(#SVGID_1_);" width="1200" height="500"/>
</g>
<g id="Layer_1">
	<g>
		<path style="fill:#2D2D2D;" d="M730.684,476.576l-0.246-17.994l0.044-0.002c0,0,0-2.924-0.148-7.614l0-0.004h0
			c-0.532-16.876-2.976-56.624-14.21-65.502c-14.358-11.346-61.382-12.607-61.382-12.607l-16.053-7.093L600,377.686l-38.689-11.925
			l-5.038,2.534l-11.014,4.559c0,0-47.024,1.261-61.382,12.607c-10.306,8.144-13.215,42.269-14.035,60.882h0v0.002
			c-0.323,7.317-0.323,12.237-0.323,12.237l0.192,0.009l-0.192,17.987H730.684z"/>
		<path style="fill:#EFCBAB;" d="M625.538,326.207L600,341.512l-25.538-15.305c1.47,13.408-11.41,41.183-11.41,41.183L600,382.41
			l36.948-15.02C636.948,367.39,624.069,339.616,625.538,326.207z"/>
		<g>
			<polygon style="fill:#171617;" points="624.474,142.47 497.015,183.862 592.366,264.978 714.793,242.783 			"/>
			<path style="fill:#F4D3B0;" d="M600,242.855h-42.81c-10.421,0-18.335,9.383-16.567,19.653c2.323,13.49,5.699,30.503,9.216,39.382
				c4.535,11.453,27.422,33.975,43.022,41.305c4.522,2.125,9.755,2.125,14.277,0c15.601-7.33,38.487-29.852,43.022-41.305
				c3.516-8.88,6.893-25.892,9.216-39.382c1.769-10.269-6.146-19.653-16.567-19.653H600z"/>
			<path style="fill:#55260E;" d="M600,242.855c17.851,0,43.244,8.581,50.795,12.013c7.551,3.432-1.373,39.128,0,38.954
				c1.373-0.174,3.59-6.292,5.835-8.063c2.245-1.772,2.995-27.801,2.995-27.801v-15.102H600z"/>
			<path style="fill:#282828;" d="M600,183.82c-32.93,0-59.625,6.9-59.625,15.412v43.623h119.249v-43.623
				C659.625,190.72,632.93,183.82,600,183.82z"/>
			<rect x="499.094" y="183.82" style="fill:#171617;" width="5.463" height="60.514"/>
			<path style="fill:#FDBB4B;" d="M501.878,242.536c-3.687,0-6.703,3.016-6.703,6.703v11.416v5.307h0.519v-5.307h0.319v4.908h0.239
				v-4.908h0.399v6.224h0.364v-6.224h0.155v6.224h0.199v-6.224h0.199v2.992h0.16v-2.992h0.199v3.671h0.08v-3.671h0.918v6.224h0.04
				v-6.224h0.678v3.272h0.758v-3.272h0.399v3.87h0.599v-3.87h0.479v6.224h0.399v-6.224h0.439v5.666h0.838v-5.666h0.798v4.908h0.559
				v-4.908h0.758v4.11h0.279v-4.11h0.838v6.224h0.997v-6.224h0.598v6.224h0.2v-6.224v-1.596v-9.82
				C508.581,245.552,505.564,242.536,501.878,242.536z"/>
		</g>
		<path style="fill:#DDB699;" d="M625.747,333.009c-0.327-2.492-0.428-4.806-0.209-6.801L600,341.512l-25.538-15.305
			c0.219,1.995,0.118,4.309-0.209,6.801c6.347,5.397,12.955,10.052,18.609,12.708c4.522,2.125,9.755,2.125,14.277,0
			C612.792,343.06,619.4,338.405,625.747,333.009z"/>
		<g>
			<polygon style="fill:#171617;" points="624.474,142.47 497.015,183.862 592.366,264.978 714.793,242.783 			"/>
			<path style="fill:#F4D3B0;" d="M600,242.855h-42.81c-10.421,0-18.335,9.383-16.567,19.653c2.323,13.49,5.699,30.503,9.216,39.382
				c4.535,11.453,27.422,33.975,43.022,41.305c4.522,2.125,9.755,2.125,14.277,0c15.601-7.33,38.487-29.852,43.022-41.305
				c3.516-8.88,6.893-25.892,9.216-39.382c1.769-10.269-6.146-19.653-16.567-19.653H600z"/>
			<path style="fill:#55260E;" d="M600,242.855c17.851,0,43.244,8.581,50.795,12.013c7.551,3.432-1.373,39.128,0,38.954
				c1.373-0.174,3.59-6.292,5.835-8.063c2.245-1.772,4.52-27.629,4.52-27.629l-1.525-15.275H600z"/>
			<path style="fill:#282828;" d="M600,183.82c-32.93,0-59.625,6.9-59.625,15.412v43.623h119.249v-43.623
				C659.625,190.72,632.93,183.82,600,183.82z"/>
			<rect x="499.094" y="183.82" style="fill:#171617;" width="5.463" height="60.514"/>
			<path style="fill:#FDBB4B;" d="M501.878,242.536c-3.687,0-6.703,3.016-6.703,6.703v11.416v5.307h0.519v-5.307h0.319v4.908h0.239
				v-4.908h0.399v6.224h0.364v-6.224h0.155v6.224h0.199v-6.224h0.199v2.992h0.16v-2.992h0.199v3.671h0.08v-3.671h0.918v6.224h0.04
				v-6.224h0.678v3.272h0.758v-3.272h0.399v3.87h0.599v-3.87h0.479v6.224h0.399v-6.224h0.439v5.666h0.838v-5.666h0.798v4.908h0.559
				v-4.908h0.758v4.11h0.279v-4.11h0.838v6.224h0.997v-6.224h0.598v6.224h0.2v-6.224v-1.596v-9.82
				C508.581,245.552,505.564,242.536,501.878,242.536z"/>
		</g>
		<path style="fill:#F37565;" d="M654.741,372.853l-6.856-3.528L600,377.055l-47.886-7.73l-6.856,3.528l-23.148,1.783
			c0,0,38.535,50.746,77.89,58.31c39.355-7.564,77.89-58.31,77.89-58.31L654.741,372.853z"/>
		<g>
			<path style="fill:#55260E;" d="M543.122,242.536v0.319h-2.747l-1.525,15.275c0,0,2.276,25.857,4.52,27.629
				c2.245,1.772,4.462,7.889,5.835,8.063c1.373,0.174-7.551-35.522,0-38.954c0,0,32.788-1.781,41.403-3.672
				c0,0-12.11-3.342-12.622-5.425c7.504-1.7,15.293-2.916,22.013-2.916h-4.68c2.052-0.166,4.167-0.286,6.348-0.319H543.122z"/>
			<path style="fill:#55260E;" d="M601.669,242.536h2.187C603.121,242.526,602.39,242.525,601.669,242.536z"/>
			<path style="fill:#55260E;" d="M648.39,258.13l-3.362-6.934l-28.156-8.66h-13.017c6.876,0.087,14.352,1.115,22.366,4.246
				C643.978,253.717,648.39,258.13,648.39,258.13z"/>
		</g>
		<g>
			<polygon style="fill:#E8E8E8;" points="638.689,365.13 600,377.055 627.455,407.312 647.886,369.325 			"/>
			<polygon style="fill:#E8E8E8;" points="561.311,365.13 600,377.055 572.545,407.312 552.114,369.325 			"/>
		</g>
		<g>
			<path style="fill:#F4D3B0;" d="M541.753,269.595c0,0-4.111-11.007-4.111,0.969c0,11.977,9.14,21.614,9.14,21.614L541.753,269.595
				z"/>
			<path style="fill:#F4D3B0;" d="M658.247,269.595c0,0,4.111-11.007,4.111,0.969c0,11.977-9.14,21.614-9.14,21.614L658.247,269.595
				z"/>
		</g>
		<polygon style="fill:#333333;" points="600,397.489 610.35,388.462 600,377.055 600,377.055 600,377.055 600,377.055 600,377.055 
			589.65,388.462 600,397.489 600,397.489 600,397.489 600,397.489 		"/>
		<path style="fill:#212121;" d="M604.582,393.492L600,397.489l-4.582-3.997l-9.726,34.921c0,0,9.465,4.375,14.309,4.532
			c4.844-0.158,14.308-4.532,14.308-4.532L604.582,393.492z"/>
	</g>
	<g>
		<g>
			<ellipse style="fill:#FFFFFF;" cx="600" cy="75.726" rx="45.013" ry="45.09"/>
			<g>
				<defs>
					<ellipse id="SVGID_2_" cx="600" cy="75.726" rx="41.346" ry="41.478"/>
				</defs>
				<clipPath id="SVGID_3_">
					<use xlink:href="#SVGID_2_"  style="overflow:visible;"/>
				</clipPath>
				<ellipse style="clip-path:url(#SVGID_3_);fill:#F37565;" cx="600" cy="75.726" rx="41.346" ry="41.478"/>
			</g>
		</g>
		<g>
			<path style="fill:#FBBF15;" d="M600.003,48.531c-9.976,0-18.058,8.074-18.058,18.04c0,6.99,8.046,15.753,9.784,21.706v8.214
				h16.547v-8.214c0.996-5.628,9.779-14.716,9.779-21.706C618.056,56.605,609.978,48.531,600.003,48.531z"/>
			<path style="fill:#33343C;" d="M607.703,65.691c0.02-0.066,0.033-0.134,0.025-0.203c-0.008-0.079-0.054-0.123-0.132-0.132
				c-0.444-0.053-0.842,0.535-1.115,0.821c-0.329,0.345-0.635,0.706-0.926,1.082c-0.152-0.317-0.519-0.542-0.776-0.755
				c-0.346-0.286-0.701-0.573-1.105-0.771c-0.007-0.068-0.07-0.126-0.143-0.08c-0.274,0.175-0.474,0.365-0.684,0.614
				c-0.198,0.235-0.436,0.48-0.591,0.752c-0.19-0.26-0.429-0.471-0.676-0.69c-0.351-0.311-0.694-0.649-1.102-0.884
				c-0.055-0.032-0.12-0.02-0.169,0.013c-0.022-0.005-0.045-0.007-0.067-0.002c-0.382,0.093-0.683,0.415-0.962,0.677l-0.452,0.425
				c-0.089,0.083-0.29,0.365-0.441,0.484c-0.167-0.267-0.409-0.456-0.665-0.675c-0.34-0.291-0.728-0.624-1.169-0.736
				c-0.052-0.013-0.093,0.006-0.119,0.037c-0.025-0.019-0.054-0.033-0.086-0.035c-0.433-0.027-0.77,0.259-1.111,0.489
				c-0.385,0.259-0.817,0.51-1.126,0.864c-0.575-0.59-1.288-0.966-2.031-1.333L592.07,65.6l-0.605,0.12l5.01,25.03l0.6-0.119
				l-4.906-24.537c0.558,0.488,1.138,0.924,1.832,1.197c0.031,0.094,0.118,0.163,0.245,0.129c0.489-0.131,0.907-0.454,1.325-0.728
				c0.341-0.224,0.722-0.424,0.889-0.806c0.19,0.365,0.528,0.647,0.832,0.916c0.321,0.285,0.626,0.575,1.056,0.656
				c0.011,0.002,0.022-0.001,0.034-0.002c0.34,0.048,0.722-0.414,0.949-0.615c0.347-0.307,0.816-0.627,1.032-1.056
				c0.262,0.324,0.579,0.599,0.886,0.88c0.325,0.298,0.631,0.579,1.041,0.749c0.06,0.025,0.107-0.019,0.123-0.072
				c0.007-0.003,0.013-0.005,0.02-0.009c0.252-0.176,0.451-0.438,0.651-0.67c0.182-0.212,0.339-0.406,0.468-0.635
				c0.243,0.322,0.54,0.599,0.842,0.866c0.293,0.259,0.633,0.668,1.048,0.704c0.047,0.052,0.123,0.078,0.185,0.033
				c0.445-0.321,0.865-0.668,1.267-1.04c0.053-0.049,0.117-0.103,0.184-0.159l-4.845,24.201l0.605,0.119l5.009-25.03L607.703,65.691
				z"/>
			<ellipse style="fill:#CCCCCC;" cx="599.74" cy="101.787" rx="4.667" ry="1.135"/>
			<path style="fill:#495A61;" d="M605.865,90.77h-11.726c-1.8,0-3.256,1.153-3.256,2.573v4.158c0,1.228,1.065,3.929,2.514,4.647
				h12.972c1.499-0.718,2.751-3.42,2.751-4.647v-4.158C609.12,91.923,607.666,90.77,605.865,90.77z"/>
			<path style="fill:#CCCCCC;" d="M608.659,94.435h-17.318c-0.418,0-0.759-0.342-0.759-0.759v-2.785
				c0-0.418,0.342-0.759,0.759-0.759h17.318c0.418,0,0.759,0.342,0.759,0.759v2.785C609.418,94.094,609.076,94.435,608.659,94.435z"
				/>
		</g>
	</g>
	<g>
		<g>
			<g>
				<ellipse style="fill:#FFFFFF;" cx="475.264" cy="115.621" rx="45.013" ry="45.09"/>
				<g>
					<defs>
						<ellipse id="SVGID_4_" cx="475.264" cy="115.621" rx="41.346" ry="41.478"/>
					</defs>
					<clipPath id="SVGID_5_">
						<use xlink:href="#SVGID_4_"  style="overflow:visible;"/>
					</clipPath>
					<ellipse style="clip-path:url(#SVGID_5_);fill:#F37565;" cx="475.264" cy="115.621" rx="41.346" ry="41.478"/>
				</g>
			</g>
			<path style="fill:#F2F2F2;" d="M476.089,98.605l-4.125-10.785l0.415-0.168c2.236-0.853,3.339-3.334,2.495-5.573
				c-0.858-2.219-3.351-3.334-5.578-2.481l-16.119,6.165c-2.224,0.848-3.333,3.349-2.486,5.568c0.853,2.234,3.349,3.339,5.568,2.491
				l0.429-0.158l4.13,10.786c-7.92,6.657-11.165,17.843-7.252,28.061c4.931,12.876,19.369,19.322,32.253,14.395
				c12.884-4.937,19.334-19.381,14.395-32.268C496.306,104.434,486.429,98.275,476.089,98.605z"/>
			<path style="fill:#72CFF2;" d="M499.07,122.936c-8.693,6.93-18.143,8.357-25.819,6.941c-0.021-0.003-21.849-3.412-14.364-19.397
				c-0.32,0.42-0.63,0.848-0.92,1.29c-2.312,3.524-3.657,7.74-3.657,12.269c0,12.368,10.026,22.394,22.394,22.394
				c12.368,0,22.394-10.026,22.394-22.394C499.098,123.669,499.088,123.302,499.07,122.936z"/>
			<circle style="fill:#72CFF2;" cx="473.125" cy="121.841" r="3.017"/>
			<circle style="fill:#72CFF2;" cx="485.524" cy="120.741" r="1.917"/>
			<circle style="fill:#72CFF2;" cx="478.391" cy="113.609" r="1.687"/>
			<circle style="fill:#72CFF2;" cx="468.498" cy="107.704" r="1.611"/>
		</g>
		<g>
			<g>
				<ellipse style="fill:#FFFFFF;" cx="724.736" cy="115.621" rx="45.013" ry="45.09"/>
				<g>
					<defs>
						<ellipse id="SVGID_6_" cx="724.736" cy="115.621" rx="41.346" ry="41.478"/>
					</defs>
					<clipPath id="SVGID_7_">
						<use xlink:href="#SVGID_6_"  style="overflow:visible;"/>
					</clipPath>
					<ellipse style="clip-path:url(#SVGID_7_);fill:#F37565;" cx="724.736" cy="115.621" rx="41.346" ry="41.478"/>
				</g>
			</g>
			<g>
				<rect x="721.053" y="136.472" style="fill:#FFF9EF;" width="8.619" height="5.694"/>
				<g>
					<path style="fill:#FFF7EC;" d="M725.508,137.069c1.319,0,2.647-0.107,3.974-0.316c6.539-1.052,12.279-4.58,16.163-9.948
						c8.014-11.073,5.528-26.603-5.549-34.62l-1.206,1.668c10.152,7.35,12.434,21.59,5.084,31.743
						c-3.56,4.921-8.822,8.158-14.817,9.12c-5.995,0.962-12.006-0.473-16.925-4.033l-1.208,1.671
						C715.299,135.448,720.33,137.069,725.508,137.069z"/>
				</g>
				
					<rect x="697.582" y="110.693" transform="matrix(0.5869 -0.8097 0.8097 0.5869 208.9217 632.9013)" style="fill:#FFF7EC;" width="54.2" height="2.043"/>
				<g>
					<path style="fill:#BDBEC0;" d="M719.477,92.195c-0.031,0.007-0.062,0.017-0.095,0.027c-0.009-0.025-0.03-0.052-0.06-0.079
						C719.368,92.155,719.425,92.178,719.477,92.195z M719.665,92.081c0.014,0.01,0.025,0.017,0.035,0.027
						c-0.016,0.005-0.035,0.01-0.049,0.015c0.003,0-0.03-0.022-0.076-0.05C719.603,92.078,719.629,92.081,719.665,92.081z"/>
					<polygon style="fill:#BDBEC0;" points="712.578,95.539 712.578,95.539 712.575,95.539 					"/>
					<path style="fill:#BDBEC0;" d="M712.763,95.43c0.026,0.015,0.042,0.055,0.016,0.045
						C712.755,95.467,712.738,95.405,712.763,95.43z"/>
				</g>
				<path style="fill:#FFF9EF;" d="M735.906,144.998H715.33c-0.332,0-0.603-0.272-0.603-0.603v-1.767
					c0-0.332,0.272-0.603,0.603-0.603h20.576c0.332,0,0.603,0.272,0.603,0.603v1.767
					C736.51,144.727,736.238,144.998,735.906,144.998z"/>
				<g>
					<path style="fill:#FFFFFF;" d="M737.975,95.215c-9.459-6.83-22.659-4.707-29.483,4.743c-6.824,9.45-4.689,22.648,4.77,29.479
						c0.021,0.015,0.042,0.029,0.063,0.044l24.712-34.22C738.016,95.246,737.996,95.23,737.975,95.215z"/>
					<path style="fill:#FFFFFF;" d="M742.745,124.694c6.809-9.429,4.697-22.59-4.708-29.433l-24.712,34.22
						C722.779,136.257,735.936,134.123,742.745,124.694z"/>
					<path style="fill:#72CFF2;" d="M746.105,117.678l-0.905-0.63l-0.093-0.816l0.485-0.852l-0.639-0.081l-0.945,0.788l-0.153-1.183
						l0.454-0.686l-0.242-1.013L744,112.8l-0.743-0.536l-0.242,0.831l0.533,1.143l0.036,0.276l-0.263-0.043L742.951,115
						l-0.566-0.132l-0.313-0.35l0.006-0.496l0.58,0.468l0.322-0.102l-0.686-1.87l0.176-0.458l-0.899,0.099l-0.47-0.512l-1.627,0.485
						l-0.473,0.308l-0.572-0.339l-0.798-0.568l-0.314-0.565l0.541-1.044l0.495-0.326l0.936,0.407l0.754,0.813l0.459-0.41
						l-0.31-0.359l0.676-0.667l0.987,0.501l1.253-0.428l0.718,0.355l0.516,0.503l0.212,0.153l0.477-0.907l-0.908-0.224l0.197-0.793
						l-0.367-0.351l0.228-0.477l0.595-0.121l1.014,0.261l0.466-0.216c-1.096-4.83-3.874-9.299-8.186-12.427l-2.23,3.088l0.222,0.381
						l-0.442,0.612l0.421,0.499l-0.607,0.299l-0.584-0.421l-1.613,2.233l0.198,0.472l-0.461,0.579l-0.407-0.125l-0.301,0.417
						l0.334,0.586l-0.313,0.402l-0.232-0.14c0.004-0.007,0.007-0.012,0.007-0.012l-0.204-0.271l-8.299,11.492l0.31,0.471
						l1.499,1.105l-0.081,1.045l0.514,0.697l-0.561,0.506l-1.407,0.403l-1.703,1.908l-1.04,0.046l-0.962-0.74l-0.737,0.332
						l-0.004,0.005l-0.527,1.241l-0.466,0.135l-5.082,7.038c5.352,3.847,11.911,4.825,17.832,3.237l-0.565-0.408l0.823-1.14
						l-0.017-1.353l0.99-1.37l-0.141-0.859l0.369-0.601l1.509-0.753l0.33-2.991l1.182-1.337l-1.002-0.895l-0.11-0.686l-0.727-0.525
						l-0.616,0.075l-1.282-0.926l-0.125,0.083l-0.712-0.514l-0.291-3.048l1.063-1.444l0.342,0.096l0.502-0.483l-0.384-0.277
						l0.264-0.697l2.883,0.001l0.7-0.969l1.299,0.154l0.348,0.308l0.763,0.551l0.828,0.11l2.032,1.239l-0.71,0.983l1.24,1.481
						l0.145,0.43l0.278,0.201l0.386-0.535l0.937,0.547l0.386,1.222l1.367,0.987l0.159-0.018
						C745.784,118.812,745.956,118.247,746.105,117.678z M741.533,106.954l0.332-0.128l0.645,0.292l-0.352,0.787l-0.05,0.701
						l0.034,0.372l0.261,0.404l-0.635,0.16l-0.708-0.415l-0.498-0.36l0.483-0.551l0.476,0.213l0.165-0.303l-0.211-0.521l-0.137-0.38
						L741.533,106.954z M739.835,107.354l0.739-0.301l0.539,0.226l0.226,0.38l-0.297,0.349l-1.065-0.01l-0.399-0.288
						L739.835,107.354z"/>
					<polygon style="fill:#034346;" points="719.391,121.078 719.389,121.083 719.393,121.078 					"/>
					<path style="fill:#72CFF2;" d="M716.805,122.919l-0.794,0.38l-1.373-0.246l-0.744-0.382l-0.233,0.264l0.373,0.475l-0.278,0.265
						l-0.714,0.101l0.024,0.507l0.496,0.38l-0.311,0.371l-0.412,0.287l-0.27,0.282l0.294,1.173l-0.336,0.256l-1.006-0.756
						l-0.375-1.619l0.212-1.961l1.08-1.262l-0.022-1.23l1.219-1.178l-0.284-0.357l2.119-2.934c0,0-0.451-1.476-0.508-1.517
						c-0.057-0.041-0.435-0.508-0.435-0.508l0.301-0.628l-0.123-2.56l0.55-0.491l0.732-0.924l1.349,0.021l0.644-1.161l-1.239-1.045
						l-0.181-1.909l-0.583-0.723l-0.407-0.425l0.365-0.387l-0.537-0.517l-0.175,0.242l-1.228-1.45l0.063-1.356l0.568-0.269
						l0.05-2.067l0.567-1.129l-0.384-0.278l-0.582,1.075l-0.075,1.484l-0.36,0.348l-0.494-0.487l0.158-1.659l0.979-1.356
						l-0.465-0.856l0.704-0.976c-2.369,1.426-4.495,3.34-6.214,5.72c-6.826,9.452-4.689,22.695,4.763,29.521
						c0.013,0.009,0.026,0.018,0.039,0.027l5.082-7.038L716.805,122.919z"/>
					<path style="fill:#72CFF2;" d="M731.324,103.102l0.181-0.334l-0.001-0.001l0.416,0.009l0.201-0.278l-0.245-0.291l-0.26,0.203
						l-0.583-0.298l-0.04-0.055l-0.019,0.026l-0.202-0.104l0.068-0.407l-0.118-0.199l-0.374-0.27l-0.271,0.016l-0.224,0.31
						l0.243,0.338l0.284,0.272l-0.093-0.02l-0.519,0.111l-0.012-0.252l-0.225-0.274l-1.275,0.166l0.04,0.153l-1.569-0.189
						l-1.847,0.335l-0.424,0.437l-1.559-0.069l-0.904,0.149l-0.703,1.095l-0.483-0.863l0.451-0.612l-2.022-1.459l-1.429-0.226
						l-1.061,0.509l-0.66,0.535l-0.171,0.857l0.752,0.696l1.944,0.07l-0.199,0.518l-0.946,0.467l0.876,0.891l-1.014,1.613
						l1.201,1.22l1.594-0.377l0.9,0.976l-0.002,0.783l1.054,0.67l0.244-0.279l0.36,0.672l-0.082,1.435l1.071,0.796l-0.105,0.987
						l-0.56,0.895l0.558,0.849l8.299-11.492L731.324,103.102z M729,102.737l-0.378-0.228l0.198-0.234l0.304-0.083l0.092,0.323
						L729,102.737z M730.568,103.203l-0.259-0.155l-0.22,0.2l-0.272-0.019l-0.319-0.192c0.041-0.078,0.072-0.137,0.072-0.137
						l-0.117-0.084l0.183-0.253l0.491,0.354l0.291-0.188l0.198,0.137l0.19,0.207L730.568,103.203z"/>
					<path style="fill:#72CFF2;" d="M738.033,95.184c-3.761-2.716-8.123-4.008-12.442-3.99l0.87,0.617l0.231,0.491l0.613,0.68
						l-0.149,0.326l1.124,0.876l0.111-0.483l-1.005-0.769l0.406-0.053l0.111-0.332l-0.927-0.67l1.557-0.024l0.969,0.7l0.003,0.956
						l0.725,0.589l0.774-0.114l0.219,0.419l-1.07,0.16c0,0-0.88-0.613-0.837-0.582c0.043,0.031-0.36,0.65-0.36,0.65l1.073,0.731
						l0.32-0.201l0.757,0.481l0.394-0.365l-0.375-0.381l0.42-0.281l0.399,0.137l1.099,0.879l-1.041,0.116l-0.217,0.515l0.583,0.573
						l0.533-0.829l0.863,0.125l1.205,0.675l0.872,1.493l2.23-3.088C738.058,95.203,738.046,95.194,738.033,95.184z"/>
					<polygon style="fill:#72CFF2;" points="734.71,99.567 734.094,99.967 732.716,98.376 734.523,98.623 734.33,97.841 
						733.102,97.17 732.93,97.201 732.928,97.197 732.892,97.208 732.325,97.311 731.757,96.97 731.607,97.268 731.738,97.479 
						731.667,97.562 731.187,97.31 730.972,97.54 730.539,97.261 730.827,96.704 729.915,96.391 727.741,96.183 727.458,96.936 
						727.685,97.523 728.454,98.258 727.752,99.229 728.193,99.45 729.105,98.955 730.221,99.323 731.062,98.158 731.843,98.141 
						732.856,99.312 732.215,100.019 732.543,100.257 733.759,100.463 733.072,101.505 733.239,101.904 734.852,99.67 					"/>
					<polygon style="fill:#17B4C4;" points="732.197,102.716 732.097,102.945 732.269,103.247 732.57,102.83 					"/>
				</g>
			</g>
		</g>
	</g>
	<g>
		<g>
			<g>
				<ellipse style="fill:#FFFFFF;" cx="411.5" cy="245.079" rx="43.642" ry="43.718"/>
				<g>
					<defs>
						<ellipse id="SVGID_8_" cx="411.5" cy="245.079" rx="40.088" ry="40.216"/>
					</defs>
					<clipPath id="SVGID_9_">
						<use xlink:href="#SVGID_8_"  style="overflow:visible;"/>
					</clipPath>
					<ellipse style="clip-path:url(#SVGID_9_);fill:#72CFF2;" cx="411.5" cy="245.079" rx="40.088" ry="40.216"/>
				</g>
			</g>
			<g>
				<polygon style="fill:#DB1F26;" points="431.83,260.009 423.548,267.417 389.187,229.177 397.495,221.757 				"/>
				<polygon style="fill:#E8434E;" points="427.693,263.713 423.548,267.417 389.187,229.177 393.336,225.476 				"/>
				<path style="fill:#F37B85;" d="M395.699,219.77l0.007-0.006c-0.012-0.013-0.03-0.02-0.043-0.033l-0.032-0.036l-0.007,0.006
					c-1.179-1.16-3.879-0.519-6.125,1.487c-2.235,2.01-3.169,4.615-2.143,5.901l-0.026,0.023l2.258,2.517l8.312-7.427
					L395.699,219.77z"/>
				<polygon style="fill:#FFFBF5;" points="432.994,269.637 431.83,260.009 423.548,267.417 				"/>
				<polygon style="fill:#33343C;" points="432.994,269.637 432.742,267.498 430.901,269.14 				"/>
			</g>
		</g>
		<g>
			<g>
				<ellipse style="fill:#FFFFFF;" cx="788.5" cy="245.079" rx="43.642" ry="43.718"/>
				<g>
					<defs>
						<ellipse id="SVGID_10_" cx="788.5" cy="245.079" rx="40.088" ry="40.216"/>
					</defs>
					<clipPath id="SVGID_11_">
						<use xlink:href="#SVGID_10_"  style="overflow:visible;"/>
					</clipPath>
					<ellipse style="clip-path:url(#SVGID_11_);fill:#72CFF2;" cx="788.5" cy="245.079" rx="40.088" ry="40.216"/>
				</g>
			</g>
			<g>
				<polygon style="fill:#E56157;" points="766.191,218.78 779.605,232.193 779.605,270.827 766.151,257.373 				"/>
				<polygon style="fill:#EFEFEF;" points="781.877,231.533 770.047,219.703 767.115,219.703 779.605,232.158 782.327,232.078 
					782.418,232.158 808.439,232.158 808.439,228.498 				"/>
				<path style="fill:#F26E5F;" d="M780.212,231.55h1.516c0.335,0,0.607,0.272,0.607,0.607v38.613c0,0.335-0.272,0.607-0.607,0.607
					h-1.516c-0.335,0-0.607-0.272-0.607-0.607v-38.613C779.605,231.822,779.877,231.55,780.212,231.55z"/>
				<rect x="782.336" y="232.158" style="fill:#E56157;" width="28.513" height="38.669"/>
				<polygon style="fill:#E5E5E5;" points="781.728,231.55 809.805,229.462 809.805,232.158 781.728,232.158 				"/>
				<path style="fill:#F26E5F;" d="M808.721,253.879h-24.257c-0.464,0-0.843-0.38-0.843-0.843v-15.341
					c0-0.464,0.38-0.843,0.843-0.843h24.257c0.464,0,0.843,0.38,0.843,0.843v15.341C809.564,253.5,809.184,253.879,808.721,253.879z
					"/>
			</g>
		</g>
	</g>
	<g>
		<path style="fill:#FFFFFF;" d="M519.474,28.992c-11.436,0-20.706,9.271-20.706,20.707c0,11.436,9.271,20.706,20.706,20.706
			c11.436,0,20.707-9.271,20.707-20.706C540.18,38.262,530.91,28.992,519.474,28.992z M519.474,66.728
			c-9.405,0-17.03-7.624-17.03-17.03c0-9.405,7.624-17.03,17.03-17.03s17.03,7.624,17.03,17.03
			C536.503,59.103,528.879,66.728,519.474,66.728z"/>
		<path style="fill:#FFFFFF;" d="M519.474,39.349L519.474,39.349c-0.319,0-0.581-0.261-0.581-0.581v-4.021
			c0-0.319,0.261-0.581,0.581-0.581l0,0c0.319,0,0.581,0.261,0.581,0.581v4.021C520.054,39.088,519.793,39.349,519.474,39.349z"/>
		<path style="fill:#FFFFFF;" d="M512.156,42.38L512.156,42.38c-0.226,0.226-0.595,0.226-0.821,0l-2.843-2.843
			c-0.226-0.226-0.226-0.595,0-0.821l0,0c0.226-0.226,0.595-0.226,0.821,0l2.843,2.843C512.381,41.785,512.381,42.154,512.156,42.38
			z"/>
		<path style="fill:#FFFFFF;" d="M509.124,49.698L509.124,49.698c0,0.319-0.261,0.581-0.581,0.581h-4.021
			c-0.319,0-0.581-0.261-0.581-0.581l0,0c0-0.319,0.261-0.581,0.581-0.581h4.021C508.863,49.118,509.124,49.379,509.124,49.698z"/>
		<path style="fill:#FFFFFF;" d="M512.156,57.016L512.156,57.016c0.226,0.226,0.226,0.595,0,0.821l-2.843,2.843
			c-0.226,0.226-0.595,0.226-0.821,0l0,0c-0.226-0.226-0.226-0.595,0-0.821l2.843-2.843C511.56,56.79,511.93,56.79,512.156,57.016z"
			/>
		<path style="fill:#FFFFFF;" d="M526.792,57.016L526.792,57.016c0.226-0.226,0.595-0.226,0.821,0l2.843,2.843
			c0.226,0.226,0.226,0.595,0,0.821l0,0c-0.226,0.226-0.595,0.226-0.821,0l-2.843-2.843
			C526.566,57.611,526.566,57.242,526.792,57.016z"/>
		<path style="fill:#FFFFFF;" d="M529.823,49.698L529.823,49.698c0-0.319,0.261-0.581,0.581-0.581h4.021
			c0.319,0,0.581,0.261,0.581,0.581l0,0c0,0.319-0.261,0.581-0.581,0.581h-4.021C530.084,50.279,529.823,50.017,529.823,49.698z"/>
		<path style="fill:#FFFFFF;" d="M526.792,42.38L526.792,42.38c-0.226-0.226-0.226-0.595,0-0.821l2.843-2.843
			c0.226-0.226,0.595-0.226,0.821,0l0,0c0.226,0.226,0.226,0.595,0,0.821l-2.843,2.843C527.387,42.606,527.018,42.606,526.792,42.38
			z"/>
		<path style="fill:#FFFFFF;" d="M528.36,49.422h-7.474v-7.423c0-0.621-0.508-1.129-1.129-1.129c-0.621,0-1.129,0.508-1.129,1.129
			v7.473c0,0.109,0.016,0.214,0.046,0.314c-0.029,0.07-0.046,0.146-0.046,0.226c0,0.324,0.265,0.59,0.59,0.59h9.143
			c0.324,0,0.59-0.265,0.59-0.59C528.95,49.687,528.684,49.422,528.36,49.422z"/>
	</g>
	<path style="fill:#FFFFFF;" d="M814.102,172.003v-17.865c0-3.075-2.516-5.591-5.591-5.591h-30.641
		c-3.075,0-5.591,2.516-5.591,5.591v17.865c0,3.075,2.516,5.591,5.591,5.591h23.812l12.421,13.895l-4.068-14.109
		C812.374,176.713,814.102,174.55,814.102,172.003z"/>
	<path style="fill:#FFFFFF;" d="M687.239,81.186l0.647,0.008c0.315,0.004,0.575-0.251,0.579-0.565l0.421-35.464
		c1.892-0.524,3.555-1.833,4.465-3.745c1.325-2.785,0.652-6.004-1.443-8.041l2.81-5.904c0.228-0.479,0.023-1.056-0.456-1.284
		l-0.463-0.22l0.494-1.038c0.184-0.387,0.018-0.854-0.369-1.039c-0.387-0.184-0.854-0.018-1.039,0.369l-0.494,1.038l-0.463-0.22
		c-0.478-0.228-1.056-0.023-1.284,0.456l-2.81,5.904c-2.902-0.34-5.825,1.167-7.15,3.952c-0.91,1.912-0.877,4.028-0.09,5.827
		l-27.256,22.694c-0.242,0.201-0.275,0.564-0.074,0.806l0.414,0.497l-1.806,1.655l2.071-1.337l0.426,0.512
		c0.201,0.242,0.564,0.275,0.806,0.074l17.105-14.242c1.361,2.19,3.341,4.03,5.842,5.22c2.501,1.19,5.178,1.568,7.735,1.243
		l-0.264,22.255c-0.004,0.315,0.251,0.575,0.565,0.579l0.666,0.008l0.269,2.45L687.239,81.186z M688.844,34.566
		c2.126,1.012,3.029,3.556,2.018,5.682c-1.012,2.126-3.556,3.03-5.682,2.018c-2.126-1.012-3.029-3.556-2.018-5.682
		C684.174,34.457,686.718,33.554,688.844,34.566z M678.933,55.393c-2.247-1.069-4.009-2.745-5.188-4.736l8.517-7.092
		c0.505,0.465,1.088,0.864,1.74,1.174c0.653,0.311,1.329,0.511,2.009,0.61l-0.131,11.082
		C683.591,56.773,681.18,56.462,678.933,55.393z"/>
	<g>
		<g>
			<path style="fill:#FFFFFF;" d="M430.021,186.969h-42.522c-1.737,0-3.151-1.414-3.151-3.151v-27.6
				c0-1.738,1.414-3.151,3.151-3.151h42.522c1.737,0,3.151,1.414,3.151,3.151v27.6C433.173,185.555,431.759,186.969,430.021,186.969
				z M387.499,156.068c-0.079,0-0.15,0.072-0.15,0.15v27.6c0,0.079,0.072,0.15,0.15,0.15h42.522c0.079,0,0.15-0.072,0.15-0.15v-27.6
				c0-0.079-0.071-0.15-0.15-0.15H387.499z"/>
		</g>
		<g>
			<path style="fill:#FFFFFF;" d="M437.549,190.486h-57.576c-0.799,0-1.453-0.654-1.453-1.453l0,0c0-0.799,0.654-1.453,1.453-1.453
				h57.576c0.799,0,1.453,0.654,1.453,1.453l0,0C439.001,189.833,438.347,190.486,437.549,190.486z"/>
		</g>
	</g>
	<path style="fill:#F4F9F4;" d="M421.418,131.909l-0.923-0.382c-0.179-0.979-0.557-1.888-1.094-2.682l0.387-0.934
		c0.016-0.038,0.01-0.077-0.014-0.102l-0.6-0.6l-0.6-0.6c-0.024-0.024-0.064-0.03-0.102-0.014l-0.923,0.382
		c-0.789-0.545-1.693-0.934-2.67-1.122l-0.388-0.935c-0.016-0.038-0.047-0.062-0.082-0.062h-0.848h-0.848
		c-0.035,0-0.066,0.024-0.082,0.062l-0.382,0.923c-0.979,0.179-1.888,0.557-2.682,1.094l-0.934-0.387
		c-0.038-0.016-0.077-0.01-0.102,0.014l-0.6,0.6l-0.6,0.6c-0.024,0.024-0.03,0.064-0.014,0.102l0.382,0.923
		c-0.545,0.789-0.934,1.693-1.122,2.67l-0.935,0.388c-0.038,0.016-0.062,0.047-0.062,0.082v0.848v0.848
		c0,0.034,0.024,0.066,0.062,0.082l0.923,0.382c0.179,0.979,0.557,1.888,1.094,2.682l-0.387,0.934
		c-0.016,0.038-0.01,0.077,0.014,0.102l0.6,0.6l0.6,0.6c0.024,0.024,0.064,0.03,0.102,0.014l0.923-0.382
		c0.789,0.545,1.693,0.934,2.67,1.122l0.388,0.935c0.016,0.038,0.047,0.062,0.082,0.062h0.848h0.848
		c0.035,0,0.066-0.024,0.082-0.062l0.382-0.923c0.979-0.179,1.888-0.557,2.682-1.094l0.934,0.387
		c0.038,0.016,0.077,0.01,0.102-0.014l0.6-0.6l0.6-0.6c0.024-0.024,0.03-0.064,0.014-0.102l-0.382-0.923
		c0.545-0.789,0.934-1.693,1.122-2.67l0.935-0.388c0.038-0.016,0.062-0.047,0.062-0.082v-0.848v-0.848
		C421.48,131.956,421.456,131.924,421.418,131.909z M413.531,137.104c-2.374,0-4.299-1.925-4.299-4.299
		c0-2.374,1.925-4.299,4.299-4.299c2.374,0,4.299,1.925,4.299,4.299C417.83,135.18,415.905,137.104,413.531,137.104z"/>
	<g>
		<path style="fill:#FFFFFF;" d="M538.356,75.387v10.583h-10.582c0,5.845,4.738,10.582,10.582,10.582
			c5.844,0,10.582-4.738,10.582-10.582C548.939,80.125,544.201,75.387,538.356,75.387z"/>
		<path style="fill:#FFFFFF;" d="M536.905,74.149c-0.112-0.004-0.225-0.006-0.338-0.006c-5.492,0-9.945,4.452-9.945,9.945h10.283
			V74.149z"/>
	</g>
	<g>
		<g>
			<defs>
				<rect id="SVGID_12_" x="638.06" y="24.766" width="24.3" height="24.329"/>
			</defs>
			<clipPath id="SVGID_13_">
				<use xlink:href="#SVGID_12_"  style="overflow:visible;"/>
			</clipPath>
			<path style="clip-path:url(#SVGID_13_);fill:#FFFFFF;" d="M661.191,41.451l-4.105-4.105c-1.588-1.589-4.173-1.589-5.761-0.001
				l-1.206,1.206c-0.01,0.011-0.019,0.022-0.03,0.034l1.789,1.787c0.01-0.01,0.019-0.023,0.029-0.033l1.207-1.206
				c0.602-0.602,1.583-0.602,2.185,0l4.105,4.106c0.603,0.602,0.603,1.582,0,2.185l-0.662,0.661c-0.602,0.603-1.582,0.603-2.185,0
				l-1.84-1.84c-0.856,0.523-1.829,0.783-2.801,0.776l2.854,2.853c1.588,1.588,4.173,1.588,5.761,0l0.662-0.662
				C662.779,45.624,662.779,43.039,661.191,41.451L661.191,41.451z M661.191,41.451"/>
			<path style="clip-path:url(#SVGID_13_);fill:#FFFFFF;" d="M641.039,28.384l0.662-0.662c0.603-0.602,1.583-0.602,2.187,0
				l4.105,4.107c0.602,0.602,0.602,1.583,0,2.185l-1.207,1.205c-0.01,0.011-0.022,0.02-0.032,0.03l1.787,1.788
				c0.011-0.01,0.022-0.019,0.034-0.029l1.205-1.207c1.588-1.588,1.588-4.173,0-5.761l-4.105-4.105
				c-1.588-1.588-4.173-1.588-5.761,0l-0.662,0.662c-1.588,1.588-1.588,4.173,0,5.761l2.852,2.852
				c-0.007-0.972,0.253-1.944,0.775-2.8l-1.84-1.841C640.437,29.968,640.437,28.987,641.039,28.384L641.039,28.384z M641.039,28.384
				"/>
		</g>
		<path style="fill:#FFFFFF;" d="M655.662,41.286l-1.788-1.789l-1.258,1.258c-0.603,0.603-1.584,0.603-2.187,0l-4.105-4.105
			c-0.603-0.603-0.603-1.582,0-2.185l1.423-1.423l-1.787-1.789l-1.424,1.423c-1.588,1.588-1.588,4.173,0,5.761l4.106,4.106
			c1.588,1.588,4.173,1.588,5.761,0L655.662,41.286z M655.662,41.286"/>
	</g>
	<g>
		<polygon style="fill:#FFFFFF;" points="736.942,179.916 769.2,187.196 742.585,195.915 744.33,187.244 766.64,187.182 
			744.215,186.113 		"/>
		<path style="fill:#FFFFFF;" d="M742.677,187.315c0,0-3.627,7.492-3.309,7.1c0.318-0.392,3.536-2.662,3.536-2.662l0.691-4.011
			L742.677,187.315z"/>
	</g>
</g>
</svg>
